<?xml version="1.0" standalone="no"?>
<!DOCTYPE svg PUBLIC "-//W3C//DTD SVG 20010904//EN"
 "http://www.w3.org/TR/2001/REC-SVG-20010904/DTD/svg10.dtd">
<svg version="1.0" xmlns="http://www.w3.org/2000/svg"
 width="640.000000pt" height="640.000000pt" viewBox="0 0 640.000000 640.000000"
 preserveAspectRatio="xMidYMid meet">
<metadata>
Created by potrace 1.11, written by Peter Selinger 2001-2013
</metadata>
<g transform="translate(0.000000,640.000000) scale(0.100000,-0.100000)"
fill="#000000" stroke="none">
<path d="M1695 6238 c3 -12 9 -56 15 -98 6 -42 12 -85 14 -96 2 -10 7 -50 11
-89 3 -38 8 -83 11 -100 2 -16 6 -71 8 -122 3 -51 6 -96 8 -100 11 -22 -5
-472 -16 -492 -2 -3 -7 -33 -10 -66 -4 -33 -14 -89 -22 -125 -9 -36 -18 -76
-20 -90 -8 -41 -46 -164 -58 -185 -5 -11 -11 -22 -11 -25 -5 -32 -30 -80 -41
-80 -19 0 -19 0 -56 -11 -107 -30 -555 -32 -748 -3 -19 3 -55 7 -80 10 -25 3
-67 9 -95 14 -27 5 -66 12 -85 15 -68 11 -345 74 -373 84 -15 6 -27 9 -27 6 0
-2 -18 2 -41 10 -23 8 -44 13 -48 11 -3 -2 -6 -278 -6 -613 l0 -608 390 0
c420 0 541 6 675 32 19 3 39 6 43 5 11 -3 249 45 317 64 165 45 267 82 375
136 66 33 122 64 123 69 2 5 9 9 14 9 13 0 112 61 116 72 2 5 10 8 17 8 7 0
15 3 17 8 2 4 28 26 58 49 30 23 67 52 81 65 14 13 41 37 60 54 46 41 169 177
194 215 6 8 38 58 73 110 58 86 182 325 182 349 0 6 4 18 10 28 16 29 83 254
107 357 17 79 19 90 48 252 3 16 8 52 11 82 3 30 8 64 10 75 5 25 16 263 16
331 0 129 -18 380 -29 398 -2 4 -283 7 -623 7 l-619 0 4 -22z"/>
<path d="M3563 6163 c-2 -165 -3 -217 -4 -243 -1 -32 -1 -22 5 -195 6 -167 14
-292 22 -351 2 -21 7 -57 10 -79 6 -52 33 -208 48 -280 17 -84 62 -250 76
-280 5 -11 12 -31 15 -45 8 -27 31 -84 46 -112 5 -10 9 -24 9 -32 0 -8 4 -16
8 -18 5 -1 20 -28 35 -58 32 -69 107 -180 172 -256 93 -111 342 -349 379 -363
6 -2 16 -10 24 -17 16 -16 161 -113 222 -148 63 -36 204 -104 305 -146 79 -34
314 -105 384 -116 14 -2 49 -9 77 -15 109 -21 139 -25 289 -36 169 -13 546 -5
574 11 3 2 33 7 66 11 32 3 63 9 67 11 9 6 11 1227 3 1236 -3 2 -64 -10 -137
-29 -133 -34 -188 -46 -220 -47 -10 0 -18 -4 -18 -9 0 -4 -4 -6 -9 -3 -4 3
-34 1 -65 -4 -206 -33 -564 -40 -726 -14 -14 2 -51 7 -84 10 -83 9 -316 57
-335 69 -12 7 -75 210 -88 280 -2 11 -8 45 -14 75 -7 30 -13 69 -15 85 -38
323 -35 603 11 980 1 11 4 20 5 20 1 0 3 16 5 35 1 19 5 49 9 65 3 17 9 47 12
68 l7 37 -584 0 -585 0 -1 -97z"/>
<path d="M337 3034 c-1 -1 -44 -5 -96 -9 -52 -3 -97 -8 -101 -10 -3 -2 -26 -6
-51 -9 -88 -10 -79 59 -79 -638 0 -587 1 -620 18 -613 9 4 24 8 32 10 8 2 62
15 120 30 158 39 181 44 315 59 33 4 73 10 90 12 16 3 81 7 145 9 63 3 117 5
120 6 16 4 254 -7 330 -16 19 -2 58 -6 85 -9 28 -3 59 -8 71 -11 12 -2 39 -7
60 -10 21 -4 46 -8 54 -10 8 -3 33 -7 55 -11 22 -3 48 -10 58 -15 9 -5 17 -7
17 -4 0 3 8 1 18 -4 9 -5 26 -33 36 -63 10 -29 20 -60 23 -68 3 -8 7 -20 8
-26 2 -6 12 -49 23 -95 11 -46 23 -100 26 -119 2 -19 7 -44 9 -55 4 -18 15
-121 23 -220 10 -125 4 -451 -12 -600 -4 -33 -8 -78 -10 -100 -3 -39 -20 -156
-29 -205 -3 -14 -8 -42 -11 -62 l-7 -38 586 0 586 0 -4 347 c-3 324 -6 399
-20 528 -10 97 -16 134 -35 245 -18 99 -21 112 -36 174 -8 34 -17 72 -20 86
-6 30 -42 148 -54 175 -4 11 -16 40 -25 65 -20 54 -43 109 -55 130 -5 8 -22
41 -39 73 -26 49 -95 150 -151 221 -21 28 -270 277 -300 301 -248 199 -497
336 -775 425 -55 17 -108 34 -117 36 -10 2 -26 6 -35 9 -38 10 -150 34 -193
40 -72 12 -83 13 -127 19 -24 4 -62 9 -85 12 -41 6 -435 13 -441 8z"/>
<path d="M5598 2915 c-2 -2 -44 -5 -95 -9 -50 -3 -98 -8 -105 -11 -7 -2 -38
-6 -68 -9 -30 -3 -80 -10 -110 -15 -30 -6 -66 -13 -80 -16 -14 -3 -38 -8 -55
-12 -16 -4 -32 -7 -35 -8 -3 -1 -21 -5 -40 -9 -19 -4 -73 -19 -120 -33 -47
-13 -92 -26 -100 -28 -92 -24 -290 -124 -442 -225 -184 -122 -331 -261 -450
-424 -21 -28 -41 -55 -46 -61 -44 -54 -202 -356 -202 -387 0 -7 -6 -25 -14
-39 -7 -14 -17 -39 -21 -55 -11 -38 -8 -29 -33 -109 -43 -141 -90 -363 -106
-500 -4 -27 -10 -77 -14 -110 -8 -68 -8 -547 1 -615 3 -25 6 -57 6 -72 l1 -28
626 0 c344 0 623 3 620 8 -2 4 -7 34 -10 67 -4 33 -9 67 -11 75 -2 8 -7 40
-10 70 -3 30 -7 66 -9 80 -5 28 -13 111 -22 240 -13 174 -7 499 11 584 2 12 7
39 10 61 9 75 16 110 31 170 9 33 18 74 21 90 3 17 8 35 13 40 6 8 19 49 24
75 1 5 48 123 51 127 1 1 19 5 41 9 21 3 41 7 45 9 16 11 178 20 344 20 192
-1 276 -6 445 -28 19 -3 58 -8 85 -12 28 -3 59 -9 69 -12 11 -3 35 -7 54 -9
18 -2 42 -6 52 -9 25 -8 59 -16 90 -20 26 -4 32 -5 110 -24 25 -7 56 -14 70
-17 14 -3 54 -14 90 -24 35 -11 66 -17 69 -14 7 7 8 1213 1 1216 -8 2 -780 5
-782 3z"/>
</g>
</svg>
