<svg xmlns="http://www.w3.org/2000/svg" xmlns:xlink="http://www.w3.org/1999/xlink" width="818.179" height="787.721" viewBox="0 0 818.179 787.721"><defs><style>.a{fill:url(#a);}.b{fill:url(#b);}.c{fill:url(#c);}.d{fill:url(#d);}.e{fill:url(#i);}.f{fill:url(#k);}.g{fill:url(#l);}.h{fill:url(#q);}.i{fill:url(#t);}.j{fill:url(#u);}.k{fill:url(#ac);}.l{fill:url(#ae);}.m{fill:url(#af);}.n{fill:url(#ag);}.o{fill:url(#ao);}.p{fill:url(#aq);}.q{fill:url(#ar);}.r{fill:url(#as);}.s{fill:url(#az);}.t{fill:url(#be);}.u{fill:url(#bf);}.v{fill:url(#bo);}.w{fill:url(#br);}.x{fill:url(#bs);}.y{fill:url(#bz);}.z{fill:url(#cb);}.aa{fill:url(#ce);}.ab{fill:url(#cf);}.ac{fill:url(#ch);}.ad{fill:url(#cm);}.ae{fill:url(#cq);}.af{fill:url(#cr);}.ag{fill:url(#cs);}.ah{fill:url(#da);}.ai{fill:url(#dc);}.aj{fill:url(#dd);}.ak{fill:url(#di);}.al{fill:url(#dl);}.am{fill:url(#dq);}.an{fill:url(#ds);}.ao{fill:url(#dt);}.ap{fill:url(#du);}.aq{fill:url(#dv);}.ar{fill:url(#dw);}.as{fill:url(#dx);}.at{fill:url(#dy);}.au{fill:url(#ea);}.av{fill:#052a6b;}.aw{fill:url(#ed);}.ax{fill:url(#ee);}.ay{fill:url(#ef);}.az{fill:url(#eg);}.ba{fill:url(#eh);}.bb{fill:url(#ei);}.bc,.be,.bg{mix-blend-mode:multiply;isolation:isolate;}.bc{fill:url(#ej);}.bd{fill:url(#ek);}.be{fill:url(#el);}.bf{fill:url(#em);}.bg{fill:url(#en);}.bh{fill:url(#eo);}</style><linearGradient id="a" x1="0.5" y1="-146.909" x2="0.5" y2="34.706" gradientUnits="objectBoundingBox"><stop offset="0" stop-color="#ed1e79"/><stop offset="1" stop-color="#6b00aa"/></linearGradient><linearGradient id="b" x1="0.5" y1="-100.669" x2="0.5" y2="23.782" xlink:href="#a"/><linearGradient id="c" x1="0.5" y1="-146.909" x2="0.5" y2="34.706" xlink:href="#a"/><linearGradient id="d" x1="0.5" y1="-36.233" x2="0.5" y2="11.657" xlink:href="#a"/><linearGradient id="i" x1="0.5" y1="-36.233" x2="0.5" y2="11.657" xlink:href="#a"/><linearGradient id="k" x1="0.5" y1="-33.73" x2="0.5" y2="14.164" xlink:href="#a"/><linearGradient id="l" x1="0.5" y1="-33.727" x2="0.5" y2="14.162" xlink:href="#a"/><linearGradient id="q" x1="0.5" y1="-33.727" x2="0.5" y2="14.162" xlink:href="#a"/><linearGradient id="t" x1="0.5" y1="-31.222" x2="0.5" y2="16.668" xlink:href="#a"/><linearGradient id="u" x1="0.5" y1="-31.222" x2="0.5" y2="16.668" xlink:href="#a"/><linearGradient id="ac" x1="0.5" y1="-31.222" x2="0.5" y2="16.668" xlink:href="#a"/><linearGradient id="ae" x1="0.5" y1="-30.051" x2="0.5" y2="20.065" xlink:href="#a"/><linearGradient id="af" x1="0.5" y1="-28.717" x2="0.5" y2="19.173" xlink:href="#a"/><linearGradient id="ag" x1="0.5" y1="-28.717" x2="0.5" y2="19.173" xlink:href="#a"/><linearGradient id="ao" x1="0.5" y1="-28.717" x2="0.5" y2="19.173" xlink:href="#a"/><linearGradient id="aq" x1="0.5" y1="-30.051" x2="0.5" y2="20.065" xlink:href="#a"/><linearGradient id="ar" x1="0.5" y1="-26.211" x2="0.5" y2="21.678" xlink:href="#a"/><linearGradient id="as" x1="0.5" y1="-26.214" x2="0.5" y2="21.681" xlink:href="#a"/><linearGradient id="az" x1="0.5" y1="-26.211" x2="0.5" y2="21.678" xlink:href="#a"/><linearGradient id="be" x1="0.5" y1="-23.706" x2="0.5" y2="24.184" xlink:href="#a"/><linearGradient id="bf" x1="0.5" y1="-23.706" x2="0.5" y2="24.184" xlink:href="#a"/><linearGradient id="bo" x1="0.5" y1="-23.706" x2="0.5" y2="24.184" xlink:href="#a"/><linearGradient id="br" x1="0.5" y1="-21.2" x2="0.5" y2="26.689" xlink:href="#a"/><linearGradient id="bs" x1="0.5" y1="-21.202" x2="0.5" y2="26.692" xlink:href="#a"/><linearGradient id="bz" x1="0.5" y1="-21.2" x2="0.5" y2="26.689" xlink:href="#a"/><linearGradient id="cb" x1="0.5" y1="-21.202" x2="0.5" y2="26.692" xlink:href="#a"/><linearGradient id="ce" x1="0.5" y1="-19.61" x2="0.5" y2="30.505" xlink:href="#a"/><linearGradient id="cf" x1="0.5" y1="-18.697" x2="0.5" y2="29.198" xlink:href="#a"/><linearGradient id="ch" x1="0.5" y1="-18.695" x2="0.5" y2="29.195" xlink:href="#a"/><linearGradient id="cm" x1="0.5" y1="-18.695" x2="0.5" y2="29.195" xlink:href="#a"/><linearGradient id="cq" x1="0.5" y1="-19.61" x2="0.5" y2="30.505" xlink:href="#a"/><linearGradient id="cr" x1="0.5" y1="-16.189" x2="0.5" y2="31.7" xlink:href="#a"/><linearGradient id="cs" x1="0.5" y1="-16.189" x2="0.5" y2="31.7" xlink:href="#a"/><linearGradient id="da" x1="0.5" y1="-16.189" x2="0.5" y2="31.7" xlink:href="#a"/><linearGradient id="dc" x1="0.5" y1="-13.685" x2="0.5" y2="34.208" xlink:href="#a"/><linearGradient id="dd" x1="0.5" y1="-13.684" x2="0.5" y2="34.205" xlink:href="#a"/><linearGradient id="di" x1="0.5" y1="-13.684" x2="0.5" y2="34.205" xlink:href="#a"/><linearGradient id="dl" x1="0.5" y1="-11.179" x2="0.5" y2="36.711" xlink:href="#a"/><linearGradient id="dq" x1="0.5" y1="-11.179" x2="0.5" y2="36.711" xlink:href="#a"/><linearGradient id="ds" x1="0.5" y1="-35.682" x2="0.5" y2="145.922" xlink:href="#a"/><linearGradient id="dt" x1="0.5" y1="-24.136" x2="0.5" y2="100.31" xlink:href="#a"/><linearGradient id="du" x1="0.5" y1="-35.682" x2="0.5" y2="145.922" xlink:href="#a"/><linearGradient id="dv" x1="0.5" y1="-0.785" x2="0.5" y2="2.489" xlink:href="#a"/><linearGradient id="dw" x1="0.5" y1="-1.228" x2="0.5" y2="3.541" gradientUnits="objectBoundingBox"><stop offset="0" stop-color="#ed1e79"/><stop offset="1" stop-color="#ffda00"/></linearGradient><linearGradient id="dx" x1="0.5" y1="-2.539" x2="0.5" y2="2.23" xlink:href="#dw"/><linearGradient id="dy" x1="0" y1="0.5" x2="1" y2="0.5" xlink:href="#a"/><linearGradient id="ea" x1="0.5" y1="-2.339" x2="0.5" y2="2.187" xlink:href="#dw"/><linearGradient id="ed" x1="-0.019" y1="-0.019" x2="1.605" y2="1.605" xlink:href="#a"/><linearGradient id="ee" x1="-0.34" y1="-0.34" x2="1.603" y2="1.603" xlink:href="#a"/><linearGradient id="ef" x1="-0.211" y1="-0.211" x2="1.297" y2="1.297" xlink:href="#dw"/><linearGradient id="eg" x1="-1.269" y1="-1.269" x2="4.503" y2="4.503" xlink:href="#dw"/><linearGradient id="eh" x1="-0.584" y1="-0.584" x2="0.845" y2="0.845" xlink:href="#dw"/><linearGradient id="ei" x1="-0.116" y1="-0.116" x2="0.859" y2="0.859" xlink:href="#dw"/><radialGradient id="ej" cx="0.5" cy="0.5" r="0.5" gradientTransform="matrix(0.707, -0.707, -0.707, -0.707, 0.5, 1.207)" gradientUnits="objectBoundingBox"><stop offset="0" stop-color="#291e79"/><stop offset="0.999" stop-color="#fff"/></radialGradient><linearGradient id="ek" x1="0.046" y1="0.046" x2="0.907" y2="0.907" gradientUnits="objectBoundingBox"><stop offset="0" stop-color="#052a6b"/><stop offset="1" stop-color="#1a4c96"/></linearGradient><radialGradient id="el" cx="0.5" cy="0.5" r="0.5" gradientTransform="matrix(1, 0, 0, -1, 0, 1)" xlink:href="#ej"/><linearGradient id="em" x1="-0.111" y1="-0.111" x2="1.034" y2="1.034" xlink:href="#dw"/><radialGradient id="en" cx="0.5" cy="0.5" r="0.5" gradientTransform="matrix(0.377, -0.926, -0.926, -0.377, 0.775, 1.152)" xlink:href="#ej"/><linearGradient id="eo" x1="0.5" y1="0" x2="0.5" y2="1" xlink:href="#a"/></defs><g transform="translate(818.179 787.721) rotate(-180)"><g transform="translate(0 99.867)"><g transform="translate(445.52 429.746)"><path class="a" d="M5.859,1.967Q2.906,1.589,0,1.054a3.7,3.7,0,0,1,5.859.913Z" transform="translate(88.721 219.707)"/><path class="b" d="M3.6,0A3.722,3.722,0,0,1,7.2,2.807c-1.2.039-2.4.064-3.6.064S1.2,2.846,0,2.807A3.722,3.722,0,0,1,3.6,0Z" transform="translate(105.23 219.707)"/><path class="c" d="M3.268,0A3.713,3.713,0,0,1,5.859,1.054q-2.9.532-5.859.913A3.714,3.714,0,0,1,3.268,0Z" transform="translate(123.079 219.707)"/><path class="d" d="M3.73,7.46A3.73,3.73,0,1,1,7.46,3.73,3.731,3.731,0,0,1,3.73,7.46Z" transform="translate(52.55 201.016)"/><path class="d" d="M3.73,7.46A3.73,3.73,0,1,1,7.46,3.73,3.731,3.731,0,0,1,3.73,7.46Z" transform="translate(70.066 201.016)"/><path class="d" d="M3.728,7.46a3.73,3.73,0,1,1,3.73-3.73A3.729,3.729,0,0,1,3.728,7.46Z" transform="translate(87.584 201.016)"/><path class="d" d="M3.73,7.46A3.73,3.73,0,1,1,7.458,3.73,3.731,3.731,0,0,1,3.73,7.46Z" transform="translate(105.1 201.016)"/><path class="d" d="M3.73,7.46A3.73,3.73,0,1,1,7.46,3.73,3.731,3.731,0,0,1,3.73,7.46Z" transform="translate(122.617 201.016)"/><path class="e" d="M3.73,7.46A3.73,3.73,0,1,1,7.46,3.73,3.731,3.731,0,0,1,3.73,7.46Z" transform="translate(140.133 201.016)"/><path class="d" d="M3.728,7.46a3.73,3.73,0,1,1,3.73-3.73A3.729,3.729,0,0,1,3.728,7.46Z" transform="translate(157.651 201.016)"/><ellipse class="f" cx="3.73" cy="3.73" rx="3.73" ry="3.73" transform="translate(35.034 182.324)"/><path class="g" d="M3.73,7.46A3.73,3.73,0,1,1,7.46,3.73,3.731,3.731,0,0,1,3.73,7.46Z" transform="translate(52.55 182.325)"/><path class="g" d="M3.73,7.46A3.73,3.73,0,1,1,7.46,3.73,3.731,3.731,0,0,1,3.73,7.46Z" transform="translate(70.066 182.325)"/><path class="g" d="M3.728,7.46a3.73,3.73,0,1,1,3.73-3.73A3.729,3.729,0,0,1,3.728,7.46Z" transform="translate(87.584 182.325)"/><ellipse class="f" cx="3.73" cy="3.73" rx="3.73" ry="3.73" transform="translate(105.1 182.324)"/><ellipse class="f" cx="3.73" cy="3.73" rx="3.73" ry="3.73" transform="translate(122.617 182.324)"/><path class="h" d="M3.73,7.46A3.73,3.73,0,1,1,7.46,3.73,3.731,3.731,0,0,1,3.73,7.46Z" transform="translate(140.133 182.325)"/><ellipse class="f" cx="3.73" cy="3.73" rx="3.73" ry="3.73" transform="translate(157.65 182.324)"/><ellipse class="f" cx="3.73" cy="3.73" rx="3.73" ry="3.73" transform="translate(175.167 182.324)"/><path class="i" d="M3.73,7.46A3.73,3.73,0,1,1,7.46,3.73,3.731,3.731,0,0,1,3.73,7.46Z" transform="translate(17.516 163.633)"/><path class="j" d="M3.73,7.46A3.73,3.73,0,1,1,7.458,3.73,3.73,3.73,0,0,1,3.73,7.46Z" transform="translate(35.034 163.633)"/><path class="j" d="M3.73,7.46A3.73,3.73,0,1,1,7.46,3.73,3.731,3.731,0,0,1,3.73,7.46Z" transform="translate(52.55 163.633)"/><path class="j" d="M3.73,7.46A3.73,3.73,0,1,1,7.46,3.73,3.731,3.731,0,0,1,3.73,7.46Z" transform="translate(70.066 163.633)"/><path class="j" d="M3.728,7.46a3.73,3.73,0,1,1,3.73-3.73A3.729,3.729,0,0,1,3.728,7.46Z" transform="translate(87.584 163.633)"/><path class="j" d="M3.73,7.46A3.73,3.73,0,1,1,7.458,3.73,3.731,3.731,0,0,1,3.73,7.46Z" transform="translate(105.1 163.633)"/><path class="j" d="M3.73,7.46A3.73,3.73,0,1,1,7.46,3.73,3.731,3.731,0,0,1,3.73,7.46Z" transform="translate(122.617 163.633)"/><path class="i" d="M3.73,7.46A3.73,3.73,0,1,1,7.46,3.73,3.731,3.731,0,0,1,3.73,7.46Z" transform="translate(140.133 163.633)"/><path class="j" d="M3.728,7.46a3.73,3.73,0,1,1,3.73-3.73A3.729,3.729,0,0,1,3.728,7.46Z" transform="translate(157.651 163.633)"/><path class="k" d="M3.73,7.46A3.73,3.73,0,1,1,7.46,3.73,3.731,3.731,0,0,1,3.73,7.46Z" transform="translate(175.167 163.633)"/><path class="j" d="M3.73,7.46A3.73,3.73,0,1,1,7.46,3.73,3.731,3.731,0,0,1,3.73,7.46Z" transform="translate(192.683 163.633)"/><path class="l" d="M4.69,3.73a3.724,3.724,0,0,1-2.21,3.4Q1.124,3.69,0,.141A3.677,3.677,0,0,1,.96,0,3.731,3.731,0,0,1,4.69,3.73Z" transform="translate(2.771 144.942)"/><path class="m" d="M3.73,7.46A3.73,3.73,0,1,1,7.46,3.73,3.731,3.731,0,0,1,3.73,7.46Z" transform="translate(17.516 144.942)"/><path class="n" d="M3.73,7.46A3.73,3.73,0,1,1,7.458,3.73,3.73,3.73,0,0,1,3.73,7.46Z" transform="translate(35.034 144.942)"/><path class="n" d="M3.73,7.46A3.73,3.73,0,1,1,7.46,3.73,3.731,3.731,0,0,1,3.73,7.46Z" transform="translate(52.55 144.942)"/><path class="n" d="M3.73,7.46A3.73,3.73,0,1,1,7.46,3.73,3.731,3.731,0,0,1,3.73,7.46Z" transform="translate(70.066 144.942)"/><path class="n" d="M3.728,7.46a3.73,3.73,0,1,1,3.73-3.73A3.729,3.729,0,0,1,3.728,7.46Z" transform="translate(87.584 144.942)"/><path class="n" d="M3.73,7.46A3.73,3.73,0,1,1,7.458,3.73,3.731,3.731,0,0,1,3.73,7.46Z" transform="translate(105.1 144.942)"/><path class="n" d="M3.73,7.46A3.73,3.73,0,1,1,7.46,3.73,3.731,3.731,0,0,1,3.73,7.46Z" transform="translate(122.617 144.942)"/><path class="m" d="M3.73,7.46A3.73,3.73,0,1,1,7.46,3.73,3.731,3.731,0,0,1,3.73,7.46Z" transform="translate(140.133 144.942)"/><path class="n" d="M3.728,7.46a3.73,3.73,0,1,1,3.73-3.73A3.729,3.729,0,0,1,3.728,7.46Z" transform="translate(157.651 144.942)"/><path class="o" d="M3.73,7.46A3.73,3.73,0,1,1,7.46,3.73,3.731,3.731,0,0,1,3.73,7.46Z" transform="translate(175.167 144.942)"/><path class="n" d="M3.73,7.46A3.73,3.73,0,1,1,7.46,3.73,3.731,3.731,0,0,1,3.73,7.46Z" transform="translate(192.683 144.942)"/><path class="p" d="M0,3.73A3.731,3.731,0,0,1,3.73,0,3.664,3.664,0,0,1,4.69.141Q3.563,3.687,2.21,7.129A3.724,3.724,0,0,1,0,3.73Z" transform="translate(210.199 144.942)"/><path class="q" d="M3.73,7.46A3.73,3.73,0,1,1,7.46,3.73,3.731,3.731,0,0,1,3.73,7.46Z" transform="translate(0 126.25)"/><ellipse class="r" cx="3.73" cy="3.73" rx="3.73" ry="3.73" transform="translate(17.517 126.251)"/><ellipse class="r" cx="3.73" cy="3.73" rx="3.73" ry="3.73" transform="translate(35.034 126.251)"/><path class="q" d="M3.73,7.46A3.73,3.73,0,1,1,7.46,3.73,3.731,3.731,0,0,1,3.73,7.46Z" transform="translate(52.55 126.25)"/><path class="q" d="M3.73,7.46A3.73,3.73,0,1,1,7.46,3.73,3.731,3.731,0,0,1,3.73,7.46Z" transform="translate(70.066 126.25)"/><path class="q" d="M3.728,7.46a3.73,3.73,0,1,1,3.73-3.73A3.729,3.729,0,0,1,3.728,7.46Z" transform="translate(87.584 126.25)"/><ellipse class="r" cx="3.73" cy="3.73" rx="3.73" ry="3.73" transform="translate(105.1 126.251)"/><ellipse class="r" cx="3.73" cy="3.73" rx="3.73" ry="3.73" transform="translate(122.617 126.251)"/><path class="s" d="M3.73,7.46A3.73,3.73,0,1,1,7.46,3.73,3.731,3.731,0,0,1,3.73,7.46Z" transform="translate(140.133 126.25)"/><ellipse class="r" cx="3.73" cy="3.73" rx="3.73" ry="3.73" transform="translate(157.65 126.251)"/><ellipse class="r" cx="3.73" cy="3.73" rx="3.73" ry="3.73" transform="translate(175.167 126.251)"/><ellipse class="r" cx="3.73" cy="3.73" rx="3.73" ry="3.73" transform="translate(192.683 126.251)"/><path class="s" d="M3.73,7.46A3.73,3.73,0,1,1,7.46,3.73,3.731,3.731,0,0,1,3.73,7.46Z" transform="translate(210.199 126.25)"/><path class="t" d="M3.73,7.46A3.73,3.73,0,1,1,7.46,3.73,3.731,3.731,0,0,1,3.73,7.46Z" transform="translate(0 107.559)"/><path class="u" d="M3.73,7.46A3.73,3.73,0,1,1,7.46,3.73,3.731,3.731,0,0,1,3.73,7.46Z" transform="translate(17.516 107.559)"/><path class="t" d="M3.73,7.46A3.73,3.73,0,1,1,7.458,3.73,3.73,3.73,0,0,1,3.73,7.46Z" transform="translate(35.034 107.559)"/><path class="t" d="M3.73,7.46A3.73,3.73,0,1,1,7.46,3.73,3.731,3.731,0,0,1,3.73,7.46Z" transform="translate(52.55 107.559)"/><path class="t" d="M3.73,7.46A3.73,3.73,0,1,1,7.46,3.73,3.731,3.731,0,0,1,3.73,7.46Z" transform="translate(70.066 107.559)"/><path class="t" d="M3.728,7.46a3.73,3.73,0,1,1,3.73-3.73A3.729,3.729,0,0,1,3.728,7.46Z" transform="translate(87.584 107.559)"/><path class="t" d="M3.73,7.46A3.73,3.73,0,1,1,7.458,3.73,3.731,3.731,0,0,1,3.73,7.46Z" transform="translate(105.1 107.559)"/><path class="t" d="M3.73,7.46A3.73,3.73,0,1,1,7.46,3.73,3.731,3.731,0,0,1,3.73,7.46Z" transform="translate(122.617 107.559)"/><path class="u" d="M3.73,7.46A3.73,3.73,0,1,1,7.46,3.73,3.731,3.731,0,0,1,3.73,7.46Z" transform="translate(140.133 107.559)"/><path class="t" d="M3.728,7.46a3.73,3.73,0,1,1,3.73-3.73A3.729,3.729,0,0,1,3.728,7.46Z" transform="translate(157.651 107.559)"/><path class="v" d="M3.73,7.46A3.73,3.73,0,1,1,7.46,3.73,3.731,3.731,0,0,1,3.73,7.46Z" transform="translate(175.167 107.559)"/><path class="t" d="M3.73,7.46A3.73,3.73,0,1,1,7.46,3.73,3.731,3.731,0,0,1,3.73,7.46Z" transform="translate(192.683 107.559)"/><path class="u" d="M3.73,7.46A3.73,3.73,0,1,1,7.46,3.73,3.731,3.731,0,0,1,3.73,7.46Z" transform="translate(210.199 107.559)"/><path class="w" d="M3.73,7.46A3.73,3.73,0,1,1,7.46,3.73,3.731,3.731,0,0,1,3.73,7.46Z" transform="translate(0 88.868)"/><ellipse class="x" cx="3.73" cy="3.73" rx="3.73" ry="3.73" transform="translate(17.517 88.868)"/><ellipse class="x" cx="3.73" cy="3.73" rx="3.73" ry="3.73" transform="translate(35.034 88.868)"/><path class="w" d="M3.73,7.46A3.73,3.73,0,1,1,7.46,3.73,3.731,3.731,0,0,1,3.73,7.46Z" transform="translate(52.55 88.868)"/><path class="w" d="M3.73,7.46A3.73,3.73,0,1,1,7.46,3.73,3.731,3.731,0,0,1,3.73,7.46Z" transform="translate(70.066 88.868)"/><path class="w" d="M3.728,7.46a3.73,3.73,0,1,1,3.73-3.73A3.729,3.729,0,0,1,3.728,7.46Z" transform="translate(87.584 88.868)"/><ellipse class="x" cx="3.73" cy="3.73" rx="3.73" ry="3.73" transform="translate(105.1 88.868)"/><ellipse class="x" cx="3.73" cy="3.73" rx="3.73" ry="3.73" transform="translate(122.617 88.868)"/><path class="y" d="M3.73,7.46A3.73,3.73,0,1,1,7.46,3.73,3.731,3.731,0,0,1,3.73,7.46Z" transform="translate(140.133 88.868)"/><ellipse class="x" cx="3.73" cy="3.73" rx="3.73" ry="3.73" transform="translate(157.65 88.868)"/><ellipse class="z" cx="3.73" cy="3.73" rx="3.73" ry="3.73" transform="translate(175.167 88.868)"/><ellipse class="x" cx="3.73" cy="3.73" rx="3.73" ry="3.73" transform="translate(192.683 88.868)"/><path class="y" d="M3.73,7.46A3.73,3.73,0,1,1,7.46,3.73,3.731,3.731,0,0,1,3.73,7.46Z" transform="translate(210.199 88.868)"/><path class="aa" d="M4.69,3.4A3.731,3.731,0,0,1,.96,7.129,3.677,3.677,0,0,1,0,6.988Q1.13,3.442,2.48,0A3.724,3.724,0,0,1,4.69,3.4Z" transform="translate(2.771 70.508)"/><ellipse class="ab" cx="3.73" cy="3.73" rx="3.73" ry="3.73" transform="translate(17.517 70.177)"/><ellipse class="ab" cx="3.73" cy="3.73" rx="3.73" ry="3.73" transform="translate(35.034 70.177)"/><path class="ac" d="M3.73,7.46A3.73,3.73,0,1,1,7.46,3.73,3.731,3.731,0,0,1,3.73,7.46Z" transform="translate(52.55 70.176)"/><path class="ac" d="M3.73,7.46A3.73,3.73,0,1,1,7.46,3.73,3.731,3.731,0,0,1,3.73,7.46Z" transform="translate(70.066 70.176)"/><path class="ac" d="M3.728,7.46a3.73,3.73,0,1,1,3.73-3.73A3.729,3.729,0,0,1,3.728,7.46Z" transform="translate(87.584 70.176)"/><ellipse class="ab" cx="3.73" cy="3.73" rx="3.73" ry="3.73" transform="translate(105.1 70.177)"/><ellipse class="ab" cx="3.73" cy="3.73" rx="3.73" ry="3.73" transform="translate(122.617 70.177)"/><path class="ad" d="M3.73,7.46A3.73,3.73,0,1,1,7.46,3.73,3.731,3.731,0,0,1,3.73,7.46Z" transform="translate(140.133 70.176)"/><ellipse class="ab" cx="3.73" cy="3.73" rx="3.73" ry="3.73" transform="translate(157.65 70.177)"/><ellipse class="ab" cx="3.73" cy="3.73" rx="3.73" ry="3.73" transform="translate(175.167 70.177)"/><ellipse class="ab" cx="3.73" cy="3.73" rx="3.73" ry="3.73" transform="translate(192.683 70.177)"/><path class="ae" d="M0,3.4A3.724,3.724,0,0,1,2.21,0Q3.565,3.436,4.69,6.988a3.665,3.665,0,0,1-.959.141A3.731,3.731,0,0,1,0,3.4Z" transform="translate(210.199 70.508)"/><path class="af" d="M3.73,7.46A3.73,3.73,0,1,1,7.46,3.73,3.731,3.731,0,0,1,3.73,7.46Z" transform="translate(17.516 51.485)"/><path class="ag" d="M3.73,7.46A3.73,3.73,0,1,1,7.458,3.73,3.729,3.729,0,0,1,3.73,7.46Z" transform="translate(35.034 51.485)"/><path class="ag" d="M3.73,7.46A3.73,3.73,0,1,1,7.46,3.73,3.731,3.731,0,0,1,3.73,7.46Z" transform="translate(52.55 51.485)"/><path class="ag" d="M3.73,7.46A3.73,3.73,0,1,1,7.46,3.73,3.731,3.731,0,0,1,3.73,7.46Z" transform="translate(70.066 51.485)"/><path class="ag" d="M3.728,7.46a3.73,3.73,0,1,1,3.73-3.73A3.729,3.729,0,0,1,3.728,7.46Z" transform="translate(87.584 51.485)"/><path class="ag" d="M3.73,7.46A3.73,3.73,0,1,1,7.458,3.73,3.731,3.731,0,0,1,3.73,7.46Z" transform="translate(105.1 51.485)"/><path class="ag" d="M3.73,7.46A3.73,3.73,0,1,1,7.46,3.73,3.731,3.731,0,0,1,3.73,7.46Z" transform="translate(122.617 51.485)"/><path class="af" d="M3.73,7.46A3.73,3.73,0,1,1,7.46,3.73,3.731,3.731,0,0,1,3.73,7.46Z" transform="translate(140.133 51.485)"/><path class="ag" d="M3.728,7.46a3.73,3.73,0,1,1,3.73-3.73A3.729,3.729,0,0,1,3.728,7.46Z" transform="translate(157.651 51.485)"/><path class="ah" d="M3.73,7.46A3.73,3.73,0,1,1,7.46,3.73,3.731,3.731,0,0,1,3.73,7.46Z" transform="translate(175.167 51.485)"/><path class="ag" d="M3.73,7.46A3.73,3.73,0,1,1,7.46,3.73,3.731,3.731,0,0,1,3.73,7.46Z" transform="translate(192.683 51.485)"/><ellipse class="ai" cx="3.73" cy="3.73" rx="3.73" ry="3.73" transform="translate(35.034 32.794)"/><path class="aj" d="M3.73,7.46A3.73,3.73,0,1,1,7.46,3.73,3.731,3.731,0,0,1,3.73,7.46Z" transform="translate(52.55 32.793)"/><path class="aj" d="M3.73,7.46A3.73,3.73,0,1,1,7.46,3.73,3.731,3.731,0,0,1,3.73,7.46Z" transform="translate(70.066 32.793)"/><path class="aj" d="M3.728,7.46a3.73,3.73,0,1,1,3.73-3.73A3.729,3.729,0,0,1,3.728,7.46Z" transform="translate(87.584 32.793)"/><ellipse class="ai" cx="3.73" cy="3.73" rx="3.73" ry="3.73" transform="translate(105.1 32.794)"/><ellipse class="ai" cx="3.73" cy="3.73" rx="3.73" ry="3.73" transform="translate(122.617 32.794)"/><path class="ak" d="M3.73,7.46A3.73,3.73,0,1,1,7.46,3.73,3.731,3.731,0,0,1,3.73,7.46Z" transform="translate(140.133 32.793)"/><ellipse class="ai" cx="3.73" cy="3.73" rx="3.73" ry="3.73" transform="translate(157.65 32.794)"/><ellipse class="ai" cx="3.73" cy="3.73" rx="3.73" ry="3.73" transform="translate(175.167 32.794)"/><path class="al" d="M3.73,7.46A3.73,3.73,0,1,1,7.46,3.73,3.731,3.731,0,0,1,3.73,7.46Z" transform="translate(52.55 14.102)"/><path class="al" d="M3.73,7.46A3.73,3.73,0,1,1,7.46,3.73,3.731,3.731,0,0,1,3.73,7.46Z" transform="translate(70.066 14.102)"/><path class="al" d="M3.728,7.46a3.73,3.73,0,1,1,3.73-3.73A3.729,3.729,0,0,1,3.728,7.46Z" transform="translate(87.584 14.102)"/><path class="al" d="M3.73,7.46A3.73,3.73,0,1,1,7.458,3.73,3.731,3.731,0,0,1,3.73,7.46Z" transform="translate(105.1 14.102)"/><path class="al" d="M3.73,7.46A3.73,3.73,0,1,1,7.46,3.73,3.731,3.731,0,0,1,3.73,7.46Z" transform="translate(122.617 14.102)"/><path class="am" d="M3.73,7.46A3.73,3.73,0,1,1,7.46,3.73,3.731,3.731,0,0,1,3.73,7.46Z" transform="translate(140.133 14.102)"/><path class="al" d="M3.728,7.46a3.73,3.73,0,1,1,3.73-3.73A3.729,3.729,0,0,1,3.728,7.46Z" transform="translate(157.651 14.102)"/><path class="an" d="M2.591,1.967A3.717,3.717,0,0,1,0,.913Q2.9.381,5.859,0A3.712,3.712,0,0,1,2.591,1.967Z" transform="translate(88.721 0.904)"/><path class="ao" d="M3.6,2.871A3.722,3.722,0,0,1,0,.064C1.2.025,2.395,0,3.6,0s2.4.025,3.6.064A3.722,3.722,0,0,1,3.6,2.871Z" transform="translate(105.23 0)"/><path class="ap" d="M0,0Q2.954.379,5.859.913A3.713,3.713,0,0,1,3.268,1.967,3.714,3.714,0,0,1,0,0Z" transform="translate(123.079 0.904)"/></g><g transform="translate(619.346 433.036) rotate(-45)"><path class="aq" d="M126.453,0c-5.358,0-7.967,4.536-10.268,8.539-2.154,3.746-4.013,6.981-7.576,6.981s-5.422-3.235-7.574-6.981C98.733,4.536,96.126,0,90.765,0S82.8,4.536,80.5,8.539c-2.152,3.746-4.011,6.981-7.576,6.981S67.5,12.285,65.348,8.537C63.047,4.536,60.438,0,55.08,0S47.113,4.536,44.812,8.539C42.66,12.285,40.8,15.52,37.24,15.52s-5.422-3.235-7.576-6.981C27.364,4.536,24.755,0,19.4,0S11.429,4.536,9.129,8.539C6.975,12.285,5.116,15.52,1.553,15.52a1.553,1.553,0,1,0,0,3.106c5.358,0,7.967-4.537,10.268-8.539,2.154-3.746,4.013-6.981,7.576-6.981s5.422,3.235,7.576,6.981c2.3,4,4.909,8.539,10.268,8.539s7.965-4.537,10.266-8.539c2.154-3.746,4.011-6.981,7.574-6.981s5.42,3.235,7.574,6.979c2.3,4,4.908,8.541,10.268,8.541s7.967-4.537,10.27-8.539c2.152-3.746,4.012-6.981,7.574-6.981s5.424,3.235,7.576,6.981c2.3,4,4.909,8.539,10.268,8.539s7.967-4.537,10.268-8.539c2.154-3.746,4.013-6.981,7.576-6.981s5.422,3.235,7.576,6.981c2.3,4,4.909,8.539,10.268,8.539a1.553,1.553,0,1,0,0-3.106c-3.563,0-5.422-3.235-7.576-6.981C134.42,4.536,131.811,0,126.453,0Z" transform="translate(0 0)"/><path class="ar" d="M126.453,0c-5.358,0-7.967,4.537-10.268,8.539-2.154,3.746-4.013,6.981-7.576,6.981s-5.422-3.235-7.574-6.981C98.733,4.537,96.126,0,90.765,0S82.8,4.537,80.5,8.539c-2.152,3.746-4.011,6.981-7.576,6.981S67.5,12.285,65.348,8.537C63.047,4.536,60.438,0,55.08,0S47.113,4.537,44.812,8.539C42.66,12.285,40.8,15.52,37.24,15.52s-5.422-3.235-7.576-6.981C27.364,4.537,24.755,0,19.4,0S11.429,4.537,9.129,8.539C6.975,12.285,5.116,15.52,1.553,15.52a1.553,1.553,0,1,0,0,3.106c5.358,0,7.967-4.538,10.268-8.539,2.154-3.746,4.013-6.981,7.576-6.981s5.422,3.235,7.576,6.981c2.3,4,4.909,8.539,10.268,8.539s7.965-4.538,10.266-8.539c2.154-3.746,4.011-6.981,7.574-6.981s5.42,3.235,7.574,6.979c2.3,4,4.908,8.541,10.268,8.541s7.967-4.538,10.27-8.539c2.152-3.746,4.012-6.981,7.574-6.981s5.424,3.235,7.576,6.981c2.3,4,4.909,8.539,10.268,8.539s7.967-4.538,10.268-8.539c2.154-3.746,4.013-6.981,7.576-6.981s5.422,3.235,7.576,6.981c2.3,4,4.909,8.539,10.268,8.539a1.553,1.553,0,1,0,0-3.106c-3.563,0-5.422-3.235-7.576-6.981C134.42,4.537,131.811,0,126.453,0Z" transform="translate(0 24.418)"/><path class="as" d="M126.453,0c-5.358,0-7.967,4.538-10.268,8.539-2.154,3.746-4.013,6.981-7.576,6.981s-5.422-3.235-7.574-6.981C98.733,4.538,96.126,0,90.765,0S82.8,4.538,80.5,8.539c-2.152,3.746-4.011,6.981-7.576,6.981S67.5,12.285,65.348,8.539C63.047,4.538,60.438,0,55.08,0S47.113,4.538,44.812,8.539C42.66,12.285,40.8,15.52,37.24,15.52s-5.422-3.235-7.576-6.981C27.364,4.538,24.757,0,19.4,0S11.429,4.538,9.129,8.539C6.975,12.285,5.116,15.52,1.553,15.52a1.553,1.553,0,1,0,0,3.106c5.36,0,7.967-4.538,10.268-8.539,2.154-3.746,4.013-6.981,7.576-6.981s5.422,3.235,7.576,6.981c2.3,4,4.909,8.539,10.268,8.539s7.965-4.538,10.266-8.539c2.154-3.746,4.011-6.981,7.574-6.981s5.42,3.235,7.574,6.981c2.3,4,4.908,8.539,10.268,8.539s7.967-4.538,10.27-8.539c2.152-3.746,4.012-6.981,7.574-6.981s5.424,3.235,7.576,6.981c2.3,4,4.909,8.539,10.268,8.539s7.967-4.538,10.268-8.539c2.154-3.746,4.013-6.981,7.576-6.981s5.422,3.235,7.576,6.981c2.3,4,4.909,8.539,10.268,8.539a1.553,1.553,0,1,0,0-3.106c-3.563,0-5.422-3.235-7.576-6.981C134.42,4.538,131.813,0,126.453,0Z" transform="translate(0 48.835)"/></g><g transform="translate(387.824 24.477)"><path class="at" d="M138.021,0c-5.815,0-8.655,4.936-11.16,9.295-2.36,4.106-4.4,7.653-8.326,7.653s-5.963-3.547-8.324-7.653C107.709,4.936,104.871,0,99.054,0S90.4,4.938,87.893,9.295c-2.36,4.106-4.4,7.653-8.325,7.653S73.606,13.4,71.244,9.295C68.741,4.938,65.9,0,60.084,0S51.433,4.936,48.928,9.293c-2.36,4.108-4.4,7.655-8.324,7.655S34.639,13.4,32.279,9.295C29.774,4.936,26.936,0,21.119,0S12.464,4.936,9.959,9.295c-2.36,4.106-4.4,7.653-8.325,7.653a1.634,1.634,0,1,0,0,3.268c5.817,0,8.657-4.936,11.16-9.293,2.362-4.108,4.4-7.653,8.325-7.653s5.965,3.545,8.326,7.653c2.5,4.356,5.343,9.293,11.16,9.293s8.653-4.938,11.158-9.293c2.36-4.108,4.4-7.653,8.322-7.653s5.965,3.545,8.325,7.655c2.5,4.354,5.343,9.291,11.158,9.291s8.657-4.936,11.16-9.291c2.362-4.11,4.4-7.655,8.327-7.655s5.963,3.545,8.324,7.653c2.5,4.356,5.343,9.293,11.158,9.293s8.657-4.936,11.16-9.293c2.36-4.108,4.4-7.653,8.326-7.653s5.965,3.545,8.326,7.653c2.5,4.354,5.343,9.293,11.162,9.293a1.634,1.634,0,0,0,0-3.268c-3.927,0-5.967-3.547-8.327-7.655C146.676,4.936,143.838,0,138.021,0Z" transform="translate(0)"/><path class="at" d="M138.021,0c-5.815,0-8.655,4.936-11.16,9.295-2.36,4.106-4.4,7.653-8.326,7.653s-5.963-3.547-8.324-7.653C107.709,4.936,104.871,0,99.054,0S90.4,4.938,87.893,9.295c-2.36,4.106-4.4,7.653-8.325,7.653S73.606,13.4,71.244,9.295C68.741,4.938,65.9,0,60.084,0S51.433,4.936,48.928,9.293c-2.36,4.108-4.4,7.655-8.324,7.655S34.639,13.4,32.279,9.295C29.774,4.936,26.936,0,21.119,0S12.464,4.936,9.959,9.295c-2.36,4.106-4.4,7.653-8.325,7.653a1.634,1.634,0,0,0,0,3.268c5.817,0,8.657-4.936,11.16-9.293,2.362-4.108,4.4-7.653,8.325-7.653s5.965,3.545,8.326,7.653c2.5,4.356,5.343,9.293,11.16,9.293s8.653-4.938,11.158-9.293c2.36-4.108,4.4-7.653,8.322-7.653s5.965,3.545,8.325,7.655c2.5,4.354,5.343,9.291,11.158,9.291s8.657-4.936,11.16-9.291c2.362-4.11,4.4-7.655,8.327-7.655s5.963,3.545,8.324,7.653c2.5,4.356,5.343,9.293,11.158,9.293s8.657-4.936,11.16-9.293c2.36-4.108,4.4-7.653,8.326-7.653s5.965,3.545,8.326,7.653c2.5,4.354,5.343,9.293,11.162,9.293a1.634,1.634,0,0,0,0-3.268c-3.927,0-5.967-3.547-8.327-7.655C146.676,4.936,143.838,0,138.021,0Z" transform="translate(0 26.664)"/></g><g transform="translate(426.028 0)"><path class="au" d="M13.5,6.749A6.751,6.751,0,1,1,6.751,0,6.752,6.752,0,0,1,13.5,6.749Z" transform="translate(0 0)"/><path class="au" d="M13.5,6.749A6.75,6.75,0,1,1,6.749,0,6.752,6.752,0,0,1,13.5,6.749Z" transform="translate(33.922 0)"/><path class="au" d="M13.5,6.749A6.75,6.75,0,1,1,6.749,0,6.752,6.752,0,0,1,13.5,6.749Z" transform="translate(67.843)"/></g><path class="av" d="M33.581,38.884,19.442,24.744,5.3,38.884,0,33.581,14.139,19.442,0,5.3,5.3,0,19.442,14.139,33.581,0l5.3,5.3L24.744,19.442,38.884,33.581Z" transform="translate(674.864 529.845)"/><path class="av" d="M26.948,31.2,15.6,19.856,4.255,31.2,0,26.948,11.346,15.6,0,4.255,4.255,0,15.6,11.347,26.948,0,31.2,4.255,19.856,15.6,31.2,26.948Z" transform="translate(74.388 77.732)"/><g transform="translate(741.971 239.428)"><path class="av" d="M.813,0A1.047,1.047,0,0,1,1.78.649Q.884.554,0,.416A1.031,1.031,0,0,1,.813,0Z" transform="translate(29.77 72.324)"/><path class="av" d="M1,0A1.035,1.035,0,0,1,2.01.834C1.665.844,1.322.861.973.861.647.861.324.844,0,.836A1.031,1.031,0,0,1,1,0Z" transform="translate(34.502 72.324)"/><path class="av" d="M1.476,1.021Q.724.576,0,.1A1.051,1.051,0,0,1,.434,0,1.045,1.045,0,0,1,1.476,1.021Z" transform="translate(15.383 67.072)"/><path class="av" d="M1.048,2.1A1.048,1.048,0,1,1,2.1,1.048,1.048,1.048,0,0,1,1.048,2.1Z" transform="translate(19.689 67.072)"/><ellipse class="av" cx="1.048" cy="1.048" rx="1.048" ry="1.048" transform="translate(24.613 67.073)"/><path class="av" d="M1.048,2.1A1.048,1.048,0,1,1,2.1,1.048,1.048,1.048,0,0,1,1.048,2.1Z" transform="translate(29.535 67.072)"/><path class="av" d="M1.048,2.1A1.048,1.048,0,1,1,2.1,1.048,1.048,1.048,0,0,1,1.048,2.1Z" transform="translate(34.458 67.072)"/><path class="av" d="M1.021,0A1.048,1.048,0,0,1,2.069,1.048a1.034,1.034,0,0,1-.844,1.008C.807,1.682.4,1.3,0,.908A1.035,1.035,0,0,1,1.021,0Z" transform="translate(9.873 61.82)"/><path class="av" d="M1.05,2.1A1.048,1.048,0,1,1,2.1,1.048,1.05,1.05,0,0,1,1.05,2.1Z" transform="translate(14.767 61.82)"/><path class="av" d="M1.048,2.1A1.048,1.048,0,1,1,2.1,1.048,1.049,1.049,0,0,1,1.048,2.1Z" transform="translate(19.689 61.82)"/><ellipse class="av" cx="1.048" cy="1.048" rx="1.048" ry="1.048" transform="translate(24.613 61.82)"/><path class="av" d="M1.048,2.1A1.048,1.048,0,1,1,2.1,1.048,1.049,1.049,0,0,1,1.048,2.1Z" transform="translate(29.535 61.82)"/><path class="av" d="M1.048,2.1A1.048,1.048,0,1,1,2.1,1.048,1.049,1.049,0,0,1,1.048,2.1Z" transform="translate(34.458 61.82)"/><path class="av" d="M.85,0A1.048,1.048,0,0,1,1.9,1.048a1.038,1.038,0,0,1-.771.992C.738,1.526.36,1,0,.466A1.027,1.027,0,0,1,.85,0Z" transform="translate(5.121 56.567)"/><ellipse class="av" cx="1.048" cy="1.048" rx="1.048" ry="1.048" transform="translate(9.845 56.567)"/><path class="av" d="M1.05,2.1A1.048,1.048,0,1,1,2.1,1.048,1.05,1.05,0,0,1,1.05,2.1Z" transform="translate(14.767 56.568)"/><path class="av" d="M1.048,2.1A1.048,1.048,0,1,1,2.1,1.048,1.049,1.049,0,0,1,1.048,2.1Z" transform="translate(19.689 56.568)"/><ellipse class="av" cx="1.048" cy="1.048" rx="1.048" ry="1.048" transform="translate(24.613 56.567)"/><path class="av" d="M1.048,2.1A1.048,1.048,0,1,1,2.1,1.048,1.049,1.049,0,0,1,1.048,2.1Z" transform="translate(29.535 56.568)"/><path class="av" d="M1.048,2.1A1.048,1.048,0,1,1,2.1,1.048,1.049,1.049,0,0,1,1.048,2.1Z" transform="translate(34.458 56.568)"/><path class="av" d="M1.048,2.1A1.048,1.048,0,1,1,2.1,1.048,1.047,1.047,0,0,1,1.048,2.1Z" transform="translate(4.923 51.313)"/><ellipse class="av" cx="1.048" cy="1.048" rx="1.048" ry="1.048" transform="translate(9.845 51.314)"/><path class="av" d="M1.05,2.1A1.048,1.048,0,1,1,2.1,1.048,1.048,1.048,0,0,1,1.05,2.1Z" transform="translate(14.767 51.313)"/><path class="av" d="M1.048,2.1A1.048,1.048,0,1,1,2.1,1.048,1.048,1.048,0,0,1,1.048,2.1Z" transform="translate(19.689 51.313)"/><ellipse class="av" cx="1.048" cy="1.048" rx="1.048" ry="1.048" transform="translate(24.613 51.314)"/><path class="av" d="M1.048,2.1A1.048,1.048,0,1,1,2.1,1.048,1.048,1.048,0,0,1,1.048,2.1Z" transform="translate(29.535 51.313)"/><path class="av" d="M1.048,2.1A1.048,1.048,0,1,1,2.1,1.048,1.048,1.048,0,0,1,1.048,2.1Z" transform="translate(34.458 51.313)"/><path class="av" d="M.807,0a1.048,1.048,0,0,1,0,2.1A1.047,1.047,0,0,1,.5,2.035Q.231,1.225,0,.4A1.035,1.035,0,0,1,.807,0Z" transform="translate(0.241 46.061)"/><path class="av" d="M1.048,2.1A1.048,1.048,0,1,1,2.1,1.048,1.047,1.047,0,0,1,1.048,2.1Z" transform="translate(4.923 46.061)"/><ellipse class="av" cx="1.048" cy="1.048" rx="1.048" ry="1.048" transform="translate(9.845 46.061)"/><path class="av" d="M1.05,2.1A1.048,1.048,0,1,1,2.1,1.048,1.048,1.048,0,0,1,1.05,2.1Z" transform="translate(14.767 46.061)"/><path class="av" d="M1.048,2.1A1.048,1.048,0,1,1,2.1,1.048,1.048,1.048,0,0,1,1.048,2.1Z" transform="translate(19.689 46.061)"/><ellipse class="av" cx="1.048" cy="1.048" rx="1.048" ry="1.048" transform="translate(24.613 46.061)"/><path class="av" d="M1.048,2.1A1.048,1.048,0,1,1,2.1,1.048,1.048,1.048,0,0,1,1.048,2.1Z" transform="translate(29.535 46.061)"/><path class="av" d="M1.048,2.1A1.048,1.048,0,1,1,2.1,1.048,1.048,1.048,0,0,1,1.048,2.1Z" transform="translate(34.458 46.061)"/><path class="av" d="M1.048,2.1A1.048,1.048,0,1,1,2.1,1.048,1.048,1.048,0,0,1,1.048,2.1Z" transform="translate(0 40.809)"/><path class="av" d="M1.048,2.1A1.048,1.048,0,1,1,2.1,1.048,1.048,1.048,0,0,1,1.048,2.1Z" transform="translate(4.923 40.809)"/><ellipse class="av" cx="1.048" cy="1.048" rx="1.048" ry="1.048" transform="translate(9.845 40.808)"/><path class="av" d="M1.05,2.1A1.048,1.048,0,1,1,2.1,1.048,1.05,1.05,0,0,1,1.05,2.1Z" transform="translate(14.767 40.809)"/><path class="av" d="M1.048,2.1A1.048,1.048,0,1,1,2.1,1.048,1.049,1.049,0,0,1,1.048,2.1Z" transform="translate(19.689 40.809)"/><ellipse class="av" cx="1.048" cy="1.048" rx="1.048" ry="1.048" transform="translate(24.613 40.808)"/><path class="av" d="M1.048,2.1A1.048,1.048,0,1,1,2.1,1.048,1.049,1.049,0,0,1,1.048,2.1Z" transform="translate(29.535 40.809)"/><path class="av" d="M1.048,2.1A1.048,1.048,0,1,1,2.1,1.048,1.049,1.049,0,0,1,1.048,2.1Z" transform="translate(34.458 40.809)"/><path class="av" d="M1.048,2.1A1.048,1.048,0,1,1,2.1,1.048,1.047,1.047,0,0,1,1.048,2.1Z" transform="translate(0 35.554)"/><path class="av" d="M1.048,2.1A1.048,1.048,0,1,1,2.1,1.048,1.047,1.047,0,0,1,1.048,2.1Z" transform="translate(4.923 35.554)"/><path class="av" d="M1.048,2.1A1.048,1.048,0,1,1,2.1,1.048,1.047,1.047,0,0,1,1.048,2.1Z" transform="translate(9.846 35.554)"/><path class="av" d="M1.05,2.1A1.048,1.048,0,1,1,2.1,1.048,1.048,1.048,0,0,1,1.05,2.1Z" transform="translate(14.767 35.554)"/><path class="av" d="M1.048,2.1A1.048,1.048,0,1,1,2.1,1.048,1.048,1.048,0,0,1,1.048,2.1Z" transform="translate(19.689 35.554)"/><path class="av" d="M1.048,2.1A1.048,1.048,0,1,1,2.1,1.048,1.048,1.048,0,0,1,1.048,2.1Z" transform="translate(24.612 35.554)"/><path class="av" d="M1.048,2.1A1.048,1.048,0,1,1,2.1,1.048,1.048,1.048,0,0,1,1.048,2.1Z" transform="translate(29.535 35.554)"/><path class="av" d="M1.048,2.1A1.048,1.048,0,1,1,2.1,1.048,1.048,1.048,0,0,1,1.048,2.1Z" transform="translate(34.458 35.554)"/><path class="av" d="M.967,0A1.025,1.025,0,0,1,1.78.416Q.9.555,0,.649A1.049,1.049,0,0,1,.967,0Z" transform="translate(39.4 72.324)"/><path class="av" d="M1.048,2.1A1.048,1.048,0,1,1,2.1,1.048,1.048,1.048,0,0,1,1.048,2.1Z" transform="translate(39.319 67.072)"/><ellipse class="av" cx="1.048" cy="1.048" rx="1.048" ry="1.048" transform="translate(44.242 67.073)"/><ellipse class="av" cx="1.048" cy="1.048" rx="1.048" ry="1.048" transform="translate(49.165 67.073)"/><path class="av" d="M1.042,0a1.035,1.035,0,0,1,.432.1Q.749.578,0,1.021A1.045,1.045,0,0,1,1.042,0Z" transform="translate(54.094 67.072)"/><path class="av" d="M1.048,2.1A1.048,1.048,0,1,1,2.1,1.048,1.049,1.049,0,0,1,1.048,2.1Z" transform="translate(39.319 61.82)"/><ellipse class="av" cx="1.048" cy="1.048" rx="1.048" ry="1.048" transform="translate(44.242 61.82)"/><ellipse class="av" cx="1.048" cy="1.048" rx="1.048" ry="1.048" transform="translate(49.165 61.82)"/><path class="av" d="M1.048,2.1A1.048,1.048,0,1,1,2.1,1.048,1.049,1.049,0,0,1,1.048,2.1Z" transform="translate(54.088 61.82)"/><path class="av" d="M0,1.048A1.048,1.048,0,0,1,1.048,0,1.033,1.033,0,0,1,2.067.908q-.6.587-1.223,1.148A1.034,1.034,0,0,1,0,1.048Z" transform="translate(59.011 61.82)"/><path class="av" d="M1.048,2.1A1.048,1.048,0,1,1,2.1,1.048,1.049,1.049,0,0,1,1.048,2.1Z" transform="translate(39.319 56.568)"/><ellipse class="av" cx="1.048" cy="1.048" rx="1.048" ry="1.048" transform="translate(44.242 56.567)"/><ellipse class="av" cx="1.048" cy="1.048" rx="1.048" ry="1.048" transform="translate(49.165 56.567)"/><path class="av" d="M1.048,2.1A1.048,1.048,0,1,1,2.1,1.048,1.049,1.049,0,0,1,1.048,2.1Z" transform="translate(54.088 56.568)"/><path class="av" d="M1.048,2.1A1.048,1.048,0,1,1,2.1,1.048,1.049,1.049,0,0,1,1.048,2.1Z" transform="translate(59.011 56.568)"/><path class="av" d="M0,1.048A1.048,1.048,0,0,1,1.048,0,1.029,1.029,0,0,1,1.9.466C1.536,1,1.16,1.524.771,2.04A1.036,1.036,0,0,1,0,1.048Z" transform="translate(63.933 56.567)"/><path class="av" d="M1.048,2.1A1.048,1.048,0,1,1,2.1,1.048,1.048,1.048,0,0,1,1.048,2.1Z" transform="translate(39.319 51.313)"/><ellipse class="av" cx="1.048" cy="1.048" rx="1.048" ry="1.048" transform="translate(44.242 51.314)"/><ellipse class="av" cx="1.048" cy="1.048" rx="1.048" ry="1.048" transform="translate(49.165 51.314)"/><path class="av" d="M1.048,2.1A1.048,1.048,0,1,1,2.1,1.048,1.048,1.048,0,0,1,1.048,2.1Z" transform="translate(54.088 51.313)"/><path class="av" d="M1.048,2.1A1.048,1.048,0,1,1,2.1,1.048,1.048,1.048,0,0,1,1.048,2.1Z" transform="translate(59.011 51.313)"/><path class="av" d="M1.048,2.1A1.048,1.048,0,1,1,2.1,1.048,1.048,1.048,0,0,1,1.048,2.1Z" transform="translate(63.933 51.313)"/><path class="av" d="M1.048,2.1A1.048,1.048,0,1,1,2.1,1.048,1.048,1.048,0,0,1,1.048,2.1Z" transform="translate(39.319 46.061)"/><ellipse class="av" cx="1.048" cy="1.048" rx="1.048" ry="1.048" transform="translate(44.242 46.061)"/><ellipse class="av" cx="1.048" cy="1.048" rx="1.048" ry="1.048" transform="translate(49.165 46.061)"/><path class="av" d="M1.048,2.1A1.048,1.048,0,1,1,2.1,1.048,1.048,1.048,0,0,1,1.048,2.1Z" transform="translate(54.088 46.061)"/><path class="av" d="M1.048,2.1A1.048,1.048,0,1,1,2.1,1.048,1.048,1.048,0,0,1,1.048,2.1Z" transform="translate(59.011 46.061)"/><path class="av" d="M1.048,2.1A1.048,1.048,0,1,1,2.1,1.048,1.048,1.048,0,0,1,1.048,2.1Z" transform="translate(63.933 46.061)"/><path class="av" d="M0,1.048A1.048,1.048,0,0,1,1.048,0a1.028,1.028,0,0,1,.805.4q-.228.824-.5,1.632a1.022,1.022,0,0,1-.308.062A1.048,1.048,0,0,1,0,1.048Z" transform="translate(68.856 46.061)"/><path class="av" d="M1.048,2.1A1.048,1.048,0,1,1,2.1,1.048,1.049,1.049,0,0,1,1.048,2.1Z" transform="translate(39.319 40.809)"/><ellipse class="av" cx="1.048" cy="1.048" rx="1.048" ry="1.048" transform="translate(44.242 40.808)"/><ellipse class="av" cx="1.048" cy="1.048" rx="1.048" ry="1.048" transform="translate(49.165 40.808)"/><path class="av" d="M1.048,2.1A1.048,1.048,0,1,1,2.1,1.048,1.049,1.049,0,0,1,1.048,2.1Z" transform="translate(54.088 40.809)"/><path class="av" d="M1.048,2.1A1.048,1.048,0,1,1,2.1,1.048,1.049,1.049,0,0,1,1.048,2.1Z" transform="translate(59.011 40.809)"/><path class="av" d="M1.048,2.1A1.048,1.048,0,1,1,2.1,1.048,1.049,1.049,0,0,1,1.048,2.1Z" transform="translate(63.933 40.809)"/><ellipse class="av" cx="1.048" cy="1.048" rx="1.048" ry="1.048" transform="translate(68.856 40.808)"/><path class="av" d="M1.048,2.1A1.048,1.048,0,1,1,2.1,1.048,1.048,1.048,0,0,1,1.048,2.1Z" transform="translate(39.319 35.554)"/><path class="av" d="M1.048,2.1A1.048,1.048,0,1,1,2.1,1.048,1.048,1.048,0,0,1,1.048,2.1Z" transform="translate(44.242 35.554)"/><path class="av" d="M1.048,2.1A1.048,1.048,0,1,1,2.1,1.048,1.048,1.048,0,0,1,1.048,2.1Z" transform="translate(49.165 35.554)"/><path class="av" d="M1.048,2.1A1.048,1.048,0,1,1,2.1,1.048,1.048,1.048,0,0,1,1.048,2.1Z" transform="translate(54.088 35.554)"/><path class="av" d="M1.048,2.1A1.048,1.048,0,1,1,2.1,1.048,1.048,1.048,0,0,1,1.048,2.1Z" transform="translate(59.011 35.554)"/><path class="av" d="M1.048,2.1A1.048,1.048,0,1,1,2.1,1.048,1.048,1.048,0,0,1,1.048,2.1Z" transform="translate(63.933 35.554)"/><path class="av" d="M1.048,2.1A1.048,1.048,0,1,1,2.1,1.048,1.048,1.048,0,0,1,1.048,2.1Z" transform="translate(68.856 35.554)"/><path class="av" d="M1.048,2.1A1.048,1.048,0,1,1,2.1,1.048,1.048,1.048,0,0,1,1.048,2.1Z" transform="translate(0 30.283)"/><path class="av" d="M1.048,2.1A1.048,1.048,0,1,1,2.1,1.048,1.048,1.048,0,0,1,1.048,2.1Z" transform="translate(4.923 30.283)"/><path class="av" d="M1.048,2.1A1.048,1.048,0,1,1,2.1,1.048,1.048,1.048,0,0,1,1.048,2.1Z" transform="translate(9.846 30.283)"/><path class="av" d="M1.05,2.1A1.048,1.048,0,1,1,2.1,1.048,1.05,1.05,0,0,1,1.05,2.1Z" transform="translate(14.767 30.283)"/><path class="av" d="M1.048,2.1A1.048,1.048,0,1,1,2.1,1.048,1.049,1.049,0,0,1,1.048,2.1Z" transform="translate(19.689 30.283)"/><path class="av" d="M1.048,2.1A1.048,1.048,0,1,1,2.1,1.048,1.049,1.049,0,0,1,1.048,2.1Z" transform="translate(24.612 30.283)"/><path class="av" d="M1.048,2.1A1.048,1.048,0,1,1,2.1,1.048,1.049,1.049,0,0,1,1.048,2.1Z" transform="translate(29.535 30.283)"/><path class="av" d="M1.048,2.1A1.048,1.048,0,1,1,2.1,1.048,1.049,1.049,0,0,1,1.048,2.1Z" transform="translate(34.458 30.283)"/><path class="av" d="M1.855,1.048A1.048,1.048,0,0,1,.807,2.1,1.03,1.03,0,0,1,0,1.694Q.231.87.5.064A.989.989,0,0,1,.807,0,1.049,1.049,0,0,1,1.855,1.048Z" transform="translate(0.241 25.028)"/><path class="av" d="M1.048,2.1A1.048,1.048,0,1,1,2.1,1.048,1.047,1.047,0,0,1,1.048,2.1Z" transform="translate(4.923 25.028)"/><path class="av" d="M1.048,2.1A1.048,1.048,0,1,1,2.1,1.048,1.047,1.047,0,0,1,1.048,2.1Z" transform="translate(9.846 25.028)"/><path class="av" d="M1.05,2.1A1.048,1.048,0,1,1,2.1,1.048,1.048,1.048,0,0,1,1.05,2.1Z" transform="translate(14.767 25.028)"/><path class="av" d="M1.048,2.1A1.048,1.048,0,1,1,2.1,1.048,1.048,1.048,0,0,1,1.048,2.1Z" transform="translate(19.689 25.028)"/><path class="av" d="M1.048,2.1A1.048,1.048,0,1,1,2.1,1.048,1.048,1.048,0,0,1,1.048,2.1Z" transform="translate(24.612 25.028)"/><path class="av" d="M1.048,2.1A1.048,1.048,0,1,1,2.1,1.048,1.048,1.048,0,0,1,1.048,2.1Z" transform="translate(29.535 25.028)"/><path class="av" d="M1.048,2.1A1.048,1.048,0,1,1,2.1,1.048,1.048,1.048,0,0,1,1.048,2.1Z" transform="translate(34.458 25.028)"/><path class="av" d="M1.048,2.1A1.048,1.048,0,1,1,2.1,1.048,1.048,1.048,0,0,1,1.048,2.1Z" transform="translate(4.923 19.776)"/><path class="av" d="M1.048,2.1A1.048,1.048,0,1,1,2.1,1.048,1.048,1.048,0,0,1,1.048,2.1Z" transform="translate(9.846 19.776)"/><path class="av" d="M1.05,2.1A1.048,1.048,0,1,1,2.1,1.048,1.05,1.05,0,0,1,1.05,2.1Z" transform="translate(14.767 19.776)"/><path class="av" d="M1.048,2.1A1.048,1.048,0,1,1,2.1,1.048,1.049,1.049,0,0,1,1.048,2.1Z" transform="translate(19.689 19.776)"/><path class="av" d="M1.048,2.1A1.048,1.048,0,1,1,2.1,1.048,1.049,1.049,0,0,1,1.048,2.1Z" transform="translate(24.612 19.776)"/><path class="av" d="M1.048,2.1A1.048,1.048,0,1,1,2.1,1.048,1.049,1.049,0,0,1,1.048,2.1Z" transform="translate(29.535 19.776)"/><path class="av" d="M1.048,2.1A1.048,1.048,0,1,1,2.1,1.048,1.049,1.049,0,0,1,1.048,2.1Z" transform="translate(34.458 19.776)"/><path class="av" d="M1.9.992A1.049,1.049,0,0,1,.85,2.04,1.029,1.029,0,0,1,0,1.572C.36,1.037.738.514,1.127,0A1.035,1.035,0,0,1,1.9.992Z" transform="translate(5.121 14.58)"/><path class="av" d="M1.048,2.1A1.048,1.048,0,1,1,2.1,1.048,1.048,1.048,0,0,1,1.048,2.1Z" transform="translate(9.846 14.524)"/><path class="av" d="M1.05,2.1A1.048,1.048,0,1,1,2.1,1.048,1.05,1.05,0,0,1,1.05,2.1Z" transform="translate(14.767 14.524)"/><path class="av" d="M1.048,2.1A1.048,1.048,0,1,1,2.1,1.048,1.049,1.049,0,0,1,1.048,2.1Z" transform="translate(19.689 14.524)"/><path class="av" d="M1.048,2.1A1.048,1.048,0,1,1,2.1,1.048,1.049,1.049,0,0,1,1.048,2.1Z" transform="translate(24.612 14.524)"/><path class="av" d="M1.048,2.1A1.048,1.048,0,1,1,2.1,1.048,1.049,1.049,0,0,1,1.048,2.1Z" transform="translate(29.535 14.524)"/><path class="av" d="M1.048,2.1A1.048,1.048,0,1,1,2.1,1.048,1.049,1.049,0,0,1,1.048,2.1Z" transform="translate(34.458 14.524)"/><path class="av" d="M2.069,1.006A1.048,1.048,0,0,1,1.021,2.054,1.035,1.035,0,0,1,0,1.146C.4.755.807.372,1.225,0A1.032,1.032,0,0,1,2.069,1.006Z" transform="translate(9.873 9.312)"/><path class="av" d="M1.05,2.1A1.048,1.048,0,1,1,2.1,1.048,1.048,1.048,0,0,1,1.05,2.1Z" transform="translate(14.767 9.27)"/><path class="av" d="M1.048,2.1A1.048,1.048,0,1,1,2.1,1.048,1.048,1.048,0,0,1,1.048,2.1Z" transform="translate(19.689 9.27)"/><ellipse class="av" cx="1.048" cy="1.048" rx="1.048" ry="1.048" transform="translate(24.613 9.27)"/><path class="av" d="M1.048,2.1A1.048,1.048,0,1,1,2.1,1.048,1.048,1.048,0,0,1,1.048,2.1Z" transform="translate(29.535 9.27)"/><path class="av" d="M1.048,2.1A1.048,1.048,0,1,1,2.1,1.048,1.048,1.048,0,0,1,1.048,2.1Z" transform="translate(34.458 9.27)"/><path class="av" d="M.434,1.021A1.051,1.051,0,0,1,0,.923Q.725.446,1.476,0A1.045,1.045,0,0,1,.434,1.021Z" transform="translate(15.383 5.092)"/><path class="av" d="M1.048,2.1A1.048,1.048,0,1,1,2.1,1.048,1.048,1.048,0,0,1,1.048,2.1Z" transform="translate(19.689 4.017)"/><ellipse class="av" cx="1.048" cy="1.048" rx="1.048" ry="1.048" transform="translate(24.613 4.017)"/><path class="av" d="M1.048,2.1A1.048,1.048,0,1,1,2.1,1.048,1.048,1.048,0,0,1,1.048,2.1Z" transform="translate(29.535 4.017)"/><path class="av" d="M1.048,2.1A1.048,1.048,0,1,1,2.1,1.048,1.048,1.048,0,0,1,1.048,2.1Z" transform="translate(34.458 4.017)"/><path class="av" d="M.813.649A1.034,1.034,0,0,1,0,.235C.59.143,1.183.065,1.78,0A1.044,1.044,0,0,1,.813.649Z" transform="translate(29.77 0.212)"/><path class="av" d="M1,.861A1.031,1.031,0,0,1,0,.025C.324.017.647,0,.973,0c.349,0,.692.017,1.037.027A1.035,1.035,0,0,1,1,.861Z" transform="translate(34.502 0)"/><path class="av" d="M1.048,2.1A1.048,1.048,0,1,1,2.1,1.048,1.049,1.049,0,0,1,1.048,2.1Z" transform="translate(39.319 30.283)"/><path class="av" d="M1.048,2.1A1.048,1.048,0,1,1,2.1,1.048,1.049,1.049,0,0,1,1.048,2.1Z" transform="translate(44.242 30.283)"/><path class="av" d="M1.048,2.1A1.048,1.048,0,1,1,2.1,1.048,1.049,1.049,0,0,1,1.048,2.1Z" transform="translate(49.165 30.283)"/><path class="av" d="M1.048,2.1A1.048,1.048,0,1,1,2.1,1.048,1.049,1.049,0,0,1,1.048,2.1Z" transform="translate(54.088 30.283)"/><path class="av" d="M1.048,2.1A1.048,1.048,0,1,1,2.1,1.048,1.049,1.049,0,0,1,1.048,2.1Z" transform="translate(59.011 30.283)"/><path class="av" d="M1.048,2.1A1.048,1.048,0,1,1,2.1,1.048,1.049,1.049,0,0,1,1.048,2.1Z" transform="translate(63.933 30.283)"/><path class="av" d="M1.048,2.1A1.048,1.048,0,1,1,2.1,1.048,1.049,1.049,0,0,1,1.048,2.1Z" transform="translate(68.856 30.283)"/><path class="av" d="M1.048,2.1A1.048,1.048,0,1,1,2.1,1.048,1.048,1.048,0,0,1,1.048,2.1Z" transform="translate(39.319 25.028)"/><path class="av" d="M1.048,2.1A1.048,1.048,0,1,1,2.1,1.048,1.048,1.048,0,0,1,1.048,2.1Z" transform="translate(44.242 25.028)"/><path class="av" d="M1.048,2.1A1.048,1.048,0,1,1,2.1,1.048,1.048,1.048,0,0,1,1.048,2.1Z" transform="translate(49.165 25.028)"/><path class="av" d="M1.048,2.1A1.048,1.048,0,1,1,2.1,1.048,1.048,1.048,0,0,1,1.048,2.1Z" transform="translate(54.088 25.028)"/><path class="av" d="M1.048,2.1A1.048,1.048,0,1,1,2.1,1.048,1.048,1.048,0,0,1,1.048,2.1Z" transform="translate(59.011 25.028)"/><path class="av" d="M1.048,2.1A1.048,1.048,0,1,1,2.1,1.048,1.048,1.048,0,0,1,1.048,2.1Z" transform="translate(63.933 25.028)"/><path class="av" d="M1.048,2.1a1.048,1.048,0,0,1,0-2.1.965.965,0,0,1,.308.064q.269.806.5,1.63A1.023,1.023,0,0,1,1.048,2.1Z" transform="translate(68.856 25.028)"/><path class="av" d="M1.048,2.1A1.048,1.048,0,1,1,2.1,1.048,1.049,1.049,0,0,1,1.048,2.1Z" transform="translate(39.319 19.776)"/><path class="av" d="M1.048,2.1A1.048,1.048,0,1,1,2.1,1.048,1.049,1.049,0,0,1,1.048,2.1Z" transform="translate(44.242 19.776)"/><path class="av" d="M1.048,2.1A1.048,1.048,0,1,1,2.1,1.048,1.049,1.049,0,0,1,1.048,2.1Z" transform="translate(49.165 19.776)"/><path class="av" d="M1.048,2.1A1.048,1.048,0,1,1,2.1,1.048,1.049,1.049,0,0,1,1.048,2.1Z" transform="translate(54.088 19.776)"/><path class="av" d="M1.048,2.1A1.048,1.048,0,1,1,2.1,1.048,1.049,1.049,0,0,1,1.048,2.1Z" transform="translate(59.011 19.776)"/><path class="av" d="M1.048,2.1A1.048,1.048,0,1,1,2.1,1.048,1.049,1.049,0,0,1,1.048,2.1Z" transform="translate(63.933 19.776)"/><path class="av" d="M1.048,2.1A1.048,1.048,0,1,1,2.1,1.048,1.049,1.049,0,0,1,1.048,2.1Z" transform="translate(39.319 14.524)"/><path class="av" d="M1.048,2.1A1.048,1.048,0,1,1,2.1,1.048,1.049,1.049,0,0,1,1.048,2.1Z" transform="translate(44.242 14.524)"/><path class="av" d="M1.048,2.1A1.048,1.048,0,1,1,2.1,1.048,1.049,1.049,0,0,1,1.048,2.1Z" transform="translate(49.165 14.524)"/><path class="av" d="M1.048,2.1A1.048,1.048,0,1,1,2.1,1.048,1.049,1.049,0,0,1,1.048,2.1Z" transform="translate(54.088 14.524)"/><path class="av" d="M1.048,2.1A1.048,1.048,0,1,1,2.1,1.048,1.049,1.049,0,0,1,1.048,2.1Z" transform="translate(59.011 14.524)"/><path class="av" d="M1.048,2.04A1.049,1.049,0,0,1,0,.992,1.032,1.032,0,0,1,.771,0C1.16.514,1.536,1.037,1.9,1.572A1.031,1.031,0,0,1,1.048,2.04Z" transform="translate(63.933 14.58)"/><path class="av" d="M1.048,2.1A1.048,1.048,0,1,1,2.1,1.048,1.048,1.048,0,0,1,1.048,2.1Z" transform="translate(39.319 9.27)"/><ellipse class="av" cx="1.048" cy="1.048" rx="1.048" ry="1.048" transform="translate(44.242 9.27)"/><ellipse class="av" cx="1.048" cy="1.048" rx="1.048" ry="1.048" transform="translate(49.165 9.27)"/><path class="av" d="M1.048,2.1A1.048,1.048,0,1,1,2.1,1.048,1.048,1.048,0,0,1,1.048,2.1Z" transform="translate(54.088 9.27)"/><path class="av" d="M1.048,2.054A1.048,1.048,0,0,1,0,1.006,1.032,1.032,0,0,1,.844,0q.624.558,1.223,1.146A1.033,1.033,0,0,1,1.048,2.054Z" transform="translate(59.011 9.312)"/><path class="av" d="M1.048,2.1A1.048,1.048,0,1,1,2.1,1.048,1.048,1.048,0,0,1,1.048,2.1Z" transform="translate(39.319 4.017)"/><ellipse class="av" cx="1.048" cy="1.048" rx="1.048" ry="1.048" transform="translate(44.242 4.017)"/><ellipse class="av" cx="1.048" cy="1.048" rx="1.048" ry="1.048" transform="translate(49.165 4.017)"/><path class="av" d="M0,0Q.749.445,1.474.923a1.035,1.035,0,0,1-.432.1A1.045,1.045,0,0,1,0,0Z" transform="translate(54.094 5.092)"/><path class="av" d="M.967.649A1.046,1.046,0,0,1,0,0C.6.065,1.193.143,1.78.235A1.029,1.029,0,0,1,.967.649Z" transform="translate(39.4 0.212)"/></g><g transform="translate(0 419.209)"><path class="av" d="M1.129,0A1.452,1.452,0,0,1,2.472.9C1.642.809.819.7,0,.576A1.425,1.425,0,0,1,1.129,0Z" transform="translate(41.323 100.39)"/><path class="av" d="M1.395,0A1.434,1.434,0,0,1,2.79,1.158c-.48.012-.956.035-1.439.035C.9,1.193.449,1.171,0,1.16A1.432,1.432,0,0,1,1.395,0Z" transform="translate(47.891 100.39)"/><path class="av" d="M2.046,1.416Q1.009.8,0,.137A1.417,1.417,0,0,1,.6,0,1.45,1.45,0,0,1,2.046,1.416Z" transform="translate(21.354 93.099)"/><path class="av" d="M1.455,2.909A1.455,1.455,0,1,1,2.909,1.455,1.455,1.455,0,0,1,1.455,2.909Z" transform="translate(27.333 93.099)"/><path class="av" d="M1.455,2.909A1.455,1.455,0,1,1,2.909,1.455,1.455,1.455,0,0,1,1.455,2.909Z" transform="translate(34.165 93.099)"/><path class="av" d="M1.455,2.909A1.455,1.455,0,1,1,2.911,1.455,1.455,1.455,0,0,1,1.455,2.909Z" transform="translate(40.997 93.099)"/><path class="av" d="M1.455,2.909A1.455,1.455,0,1,1,2.909,1.455,1.455,1.455,0,0,1,1.455,2.909Z" transform="translate(47.832 93.099)"/><path class="av" d="M1.416,0A1.455,1.455,0,0,1,2.871,1.457,1.436,1.436,0,0,1,1.7,2.854Q.832,2.076,0,1.26A1.439,1.439,0,0,1,1.416,0Z" transform="translate(13.705 85.806)"/><path class="av" d="M1.455,2.911A1.456,1.456,0,1,1,2.911,1.457,1.455,1.455,0,0,1,1.455,2.911Z" transform="translate(20.499 85.806)"/><path class="av" d="M1.455,2.911A1.456,1.456,0,1,1,2.909,1.457,1.455,1.455,0,0,1,1.455,2.911Z" transform="translate(27.333 85.806)"/><path class="av" d="M1.455,2.911A1.456,1.456,0,1,1,2.909,1.457,1.455,1.455,0,0,1,1.455,2.911Z" transform="translate(34.165 85.806)"/><path class="av" d="M1.455,2.911A1.456,1.456,0,1,1,2.911,1.457,1.455,1.455,0,0,1,1.455,2.911Z" transform="translate(40.997 85.806)"/><path class="av" d="M1.455,2.911A1.456,1.456,0,1,1,2.909,1.457,1.455,1.455,0,0,1,1.455,2.911Z" transform="translate(47.832 85.806)"/><path class="av" d="M1.179,0A1.455,1.455,0,0,1,2.634,1.455,1.435,1.435,0,0,1,1.565,2.832C1.025,2.117.5,1.391,0,.649A1.426,1.426,0,0,1,1.179,0Z" transform="translate(7.11 78.515)"/><path class="av" d="M1.455,2.909A1.455,1.455,0,1,1,2.909,1.455,1.455,1.455,0,0,1,1.455,2.909Z" transform="translate(13.666 78.515)"/><path class="av" d="M1.455,2.909A1.455,1.455,0,1,1,2.911,1.455,1.455,1.455,0,0,1,1.455,2.909Z" transform="translate(20.499 78.515)"/><path class="av" d="M1.455,2.909A1.455,1.455,0,1,1,2.909,1.455,1.455,1.455,0,0,1,1.455,2.909Z" transform="translate(27.333 78.515)"/><path class="av" d="M1.455,2.909A1.455,1.455,0,1,1,2.909,1.455,1.455,1.455,0,0,1,1.455,2.909Z" transform="translate(34.165 78.515)"/><path class="av" d="M1.455,2.909A1.455,1.455,0,1,1,2.911,1.455,1.455,1.455,0,0,1,1.455,2.909Z" transform="translate(40.997 78.515)"/><path class="av" d="M1.455,2.909A1.455,1.455,0,1,1,2.909,1.455,1.455,1.455,0,0,1,1.455,2.909Z" transform="translate(47.832 78.515)"/><path class="av" d="M1.457,2.909A1.455,1.455,0,1,1,2.911,1.455,1.455,1.455,0,0,1,1.457,2.909Z" transform="translate(6.832 71.224)"/><path class="av" d="M1.455,2.909A1.455,1.455,0,1,1,2.909,1.455,1.455,1.455,0,0,1,1.455,2.909Z" transform="translate(13.666 71.224)"/><path class="av" d="M1.455,2.909A1.455,1.455,0,1,1,2.911,1.455,1.455,1.455,0,0,1,1.455,2.909Z" transform="translate(20.499 71.224)"/><path class="av" d="M1.455,2.909A1.455,1.455,0,1,1,2.909,1.455,1.455,1.455,0,0,1,1.455,2.909Z" transform="translate(27.333 71.224)"/><path class="av" d="M1.455,2.909A1.455,1.455,0,1,1,2.909,1.455,1.455,1.455,0,0,1,1.455,2.909Z" transform="translate(34.165 71.224)"/><path class="av" d="M1.455,2.909A1.455,1.455,0,1,1,2.911,1.455,1.455,1.455,0,0,1,1.455,2.909Z" transform="translate(40.997 71.224)"/><path class="av" d="M1.455,2.909A1.455,1.455,0,1,1,2.909,1.455,1.455,1.455,0,0,1,1.455,2.909Z" transform="translate(47.832 71.224)"/><path class="av" d="M1.118,0a1.455,1.455,0,1,1,0,2.909A1.373,1.373,0,0,1,.69,2.823Q.317,1.7,0,.559A1.426,1.426,0,0,1,1.118,0Z" transform="translate(0.337 63.933)"/><path class="av" d="M1.457,2.909A1.455,1.455,0,1,1,2.911,1.455,1.455,1.455,0,0,1,1.457,2.909Z" transform="translate(6.832 63.933)"/><path class="av" d="M1.455,2.909A1.455,1.455,0,1,1,2.909,1.455,1.455,1.455,0,0,1,1.455,2.909Z" transform="translate(13.666 63.933)"/><path class="av" d="M1.455,2.909A1.455,1.455,0,1,1,2.911,1.455,1.455,1.455,0,0,1,1.455,2.909Z" transform="translate(20.499 63.933)"/><path class="av" d="M1.455,2.909A1.455,1.455,0,1,1,2.909,1.455,1.455,1.455,0,0,1,1.455,2.909Z" transform="translate(27.333 63.933)"/><path class="av" d="M1.455,2.909A1.455,1.455,0,1,1,2.909,1.455,1.455,1.455,0,0,1,1.455,2.909Z" transform="translate(34.165 63.933)"/><path class="av" d="M1.455,2.909A1.455,1.455,0,1,1,2.911,1.455,1.455,1.455,0,0,1,1.455,2.909Z" transform="translate(40.997 63.933)"/><path class="av" d="M1.455,2.909A1.455,1.455,0,1,1,2.909,1.455,1.455,1.455,0,0,1,1.455,2.909Z" transform="translate(47.832 63.933)"/><path class="av" d="M1.455,2.909A1.455,1.455,0,1,1,2.909,1.455,1.455,1.455,0,0,1,1.455,2.909Z" transform="translate(0 56.643)"/><path class="av" d="M1.457,2.909A1.455,1.455,0,1,1,2.911,1.455,1.455,1.455,0,0,1,1.457,2.909Z" transform="translate(6.832 56.643)"/><path class="av" d="M1.455,2.909A1.455,1.455,0,1,1,2.909,1.455,1.455,1.455,0,0,1,1.455,2.909Z" transform="translate(13.666 56.643)"/><path class="av" d="M1.455,2.909A1.455,1.455,0,1,1,2.911,1.455,1.455,1.455,0,0,1,1.455,2.909Z" transform="translate(20.499 56.643)"/><path class="av" d="M1.455,2.909A1.455,1.455,0,1,1,2.909,1.455,1.455,1.455,0,0,1,1.455,2.909Z" transform="translate(27.333 56.643)"/><path class="av" d="M1.455,2.909A1.455,1.455,0,1,1,2.909,1.455,1.455,1.455,0,0,1,1.455,2.909Z" transform="translate(34.165 56.643)"/><path class="av" d="M1.455,2.909A1.455,1.455,0,1,1,2.911,1.455,1.455,1.455,0,0,1,1.455,2.909Z" transform="translate(40.997 56.643)"/><path class="av" d="M1.455,2.909A1.455,1.455,0,1,1,2.909,1.455,1.455,1.455,0,0,1,1.455,2.909Z" transform="translate(47.832 56.643)"/><path class="av" d="M1.455,2.911A1.456,1.456,0,1,1,2.909,1.457,1.455,1.455,0,0,1,1.455,2.911Z" transform="translate(0 49.35)"/><path class="av" d="M1.457,2.911A1.456,1.456,0,1,1,2.911,1.457,1.455,1.455,0,0,1,1.457,2.911Z" transform="translate(6.832 49.35)"/><path class="av" d="M1.455,2.911A1.456,1.456,0,1,1,2.909,1.457,1.455,1.455,0,0,1,1.455,2.911Z" transform="translate(13.666 49.35)"/><path class="av" d="M1.455,2.911A1.456,1.456,0,1,1,2.911,1.457,1.455,1.455,0,0,1,1.455,2.911Z" transform="translate(20.499 49.35)"/><path class="av" d="M1.455,2.911A1.456,1.456,0,1,1,2.909,1.457,1.455,1.455,0,0,1,1.455,2.911Z" transform="translate(27.333 49.35)"/><path class="av" d="M1.455,2.911A1.456,1.456,0,1,1,2.909,1.457,1.455,1.455,0,0,1,1.455,2.911Z" transform="translate(34.165 49.35)"/><path class="av" d="M1.455,2.911A1.456,1.456,0,1,1,2.911,1.457,1.455,1.455,0,0,1,1.455,2.911Z" transform="translate(40.997 49.35)"/><path class="av" d="M1.455,2.911A1.456,1.456,0,1,1,2.909,1.457,1.455,1.455,0,0,1,1.455,2.911Z" transform="translate(47.832 49.35)"/><path class="av" d="M1.343,0A1.425,1.425,0,0,1,2.472.576C1.653.7.83.809,0,.9A1.452,1.452,0,0,1,1.343,0Z" transform="translate(54.691 100.39)"/><path class="av" d="M1.457,2.909A1.455,1.455,0,1,1,2.911,1.455,1.455,1.455,0,0,1,1.457,2.909Z" transform="translate(54.577 93.099)"/><path class="av" d="M1.455,2.909A1.455,1.455,0,1,1,2.909,1.455,1.455,1.455,0,0,1,1.455,2.909Z" transform="translate(61.411 93.099)"/><path class="av" d="M1.455,2.909A1.455,1.455,0,1,1,2.909,1.455,1.455,1.455,0,0,1,1.455,2.909Z" transform="translate(68.244 93.099)"/><path class="av" d="M1.449,0a1.417,1.417,0,0,1,.6.137Q1.039.8,0,1.416A1.453,1.453,0,0,1,1.449,0Z" transform="translate(75.084 93.099)"/><path class="av" d="M1.457,2.911A1.456,1.456,0,1,1,2.911,1.457,1.455,1.455,0,0,1,1.457,2.911Z" transform="translate(54.577 85.806)"/><path class="av" d="M1.455,2.911A1.456,1.456,0,1,1,2.909,1.457,1.455,1.455,0,0,1,1.455,2.911Z" transform="translate(61.411 85.806)"/><path class="av" d="M1.455,2.911A1.456,1.456,0,1,1,2.909,1.457,1.455,1.455,0,0,1,1.455,2.911Z" transform="translate(68.244 85.806)"/><path class="av" d="M1.457,2.911A1.456,1.456,0,1,1,2.911,1.457,1.456,1.456,0,0,1,1.457,2.911Z" transform="translate(75.076 85.806)"/><path class="av" d="M0,1.457A1.455,1.455,0,0,1,1.455,0,1.439,1.439,0,0,1,2.871,1.26q-.832.815-1.7,1.593A1.436,1.436,0,0,1,0,1.457Z" transform="translate(81.91 85.806)"/><path class="av" d="M1.457,2.909A1.455,1.455,0,1,1,2.911,1.455,1.455,1.455,0,0,1,1.457,2.909Z" transform="translate(54.577 78.515)"/><path class="av" d="M1.455,2.909A1.455,1.455,0,1,1,2.909,1.455,1.455,1.455,0,0,1,1.455,2.909Z" transform="translate(61.411 78.515)"/><path class="av" d="M1.455,2.909A1.455,1.455,0,1,1,2.909,1.455,1.455,1.455,0,0,1,1.455,2.909Z" transform="translate(68.244 78.515)"/><path class="av" d="M1.457,2.909A1.455,1.455,0,1,1,2.911,1.455,1.456,1.456,0,0,1,1.457,2.909Z" transform="translate(75.076 78.515)"/><path class="av" d="M1.455,2.909A1.455,1.455,0,1,1,2.909,1.455,1.455,1.455,0,0,1,1.455,2.909Z" transform="translate(81.91 78.515)"/><path class="av" d="M0,1.455A1.455,1.455,0,0,1,1.455,0,1.426,1.426,0,0,1,2.634.649c-.5.742-1.025,1.468-1.563,2.183A1.437,1.437,0,0,1,0,1.455Z" transform="translate(88.742 78.515)"/><path class="av" d="M1.457,2.909A1.455,1.455,0,1,1,2.911,1.455,1.455,1.455,0,0,1,1.457,2.909Z" transform="translate(54.577 71.224)"/><path class="av" d="M1.455,2.909A1.455,1.455,0,1,1,2.909,1.455,1.455,1.455,0,0,1,1.455,2.909Z" transform="translate(61.411 71.224)"/><path class="av" d="M1.455,2.909A1.455,1.455,0,1,1,2.909,1.455,1.455,1.455,0,0,1,1.455,2.909Z" transform="translate(68.244 71.224)"/><path class="av" d="M1.457,2.909A1.455,1.455,0,1,1,2.911,1.455,1.456,1.456,0,0,1,1.457,2.909Z" transform="translate(75.076 71.224)"/><path class="av" d="M1.455,2.909A1.455,1.455,0,1,1,2.909,1.455,1.455,1.455,0,0,1,1.455,2.909Z" transform="translate(81.91 71.224)"/><path class="av" d="M1.455,2.909A1.455,1.455,0,1,1,2.911,1.455,1.455,1.455,0,0,1,1.455,2.909Z" transform="translate(88.742 71.224)"/><path class="av" d="M1.457,2.909A1.455,1.455,0,1,1,2.911,1.455,1.455,1.455,0,0,1,1.457,2.909Z" transform="translate(54.577 63.933)"/><path class="av" d="M1.455,2.909A1.455,1.455,0,1,1,2.909,1.455,1.455,1.455,0,0,1,1.455,2.909Z" transform="translate(61.411 63.933)"/><path class="av" d="M1.455,2.909A1.455,1.455,0,1,1,2.909,1.455,1.455,1.455,0,0,1,1.455,2.909Z" transform="translate(68.244 63.933)"/><path class="av" d="M1.457,2.909A1.455,1.455,0,1,1,2.911,1.455,1.456,1.456,0,0,1,1.457,2.909Z" transform="translate(75.076 63.933)"/><path class="av" d="M1.455,2.909A1.455,1.455,0,1,1,2.909,1.455,1.455,1.455,0,0,1,1.455,2.909Z" transform="translate(81.91 63.933)"/><path class="av" d="M1.455,2.909A1.455,1.455,0,1,1,2.911,1.455,1.455,1.455,0,0,1,1.455,2.909Z" transform="translate(88.742 63.933)"/><path class="av" d="M0,1.455A1.455,1.455,0,0,1,1.455,0,1.426,1.426,0,0,1,2.572.559Q2.254,1.7,1.882,2.823a1.373,1.373,0,0,1-.428.087A1.455,1.455,0,0,1,0,1.455Z" transform="translate(95.577 63.933)"/><path class="av" d="M1.457,2.909A1.455,1.455,0,1,1,2.911,1.455,1.455,1.455,0,0,1,1.457,2.909Z" transform="translate(54.577 56.643)"/><path class="av" d="M1.455,2.909A1.455,1.455,0,1,1,2.909,1.455,1.455,1.455,0,0,1,1.455,2.909Z" transform="translate(61.411 56.643)"/><path class="av" d="M1.455,2.909A1.455,1.455,0,1,1,2.909,1.455,1.455,1.455,0,0,1,1.455,2.909Z" transform="translate(68.244 56.643)"/><path class="av" d="M1.457,2.909A1.455,1.455,0,1,1,2.911,1.455,1.456,1.456,0,0,1,1.457,2.909Z" transform="translate(75.076 56.643)"/><path class="av" d="M1.455,2.909A1.455,1.455,0,1,1,2.909,1.455,1.455,1.455,0,0,1,1.455,2.909Z" transform="translate(81.91 56.643)"/><path class="av" d="M1.455,2.909A1.455,1.455,0,1,1,2.911,1.455,1.455,1.455,0,0,1,1.455,2.909Z" transform="translate(88.742 56.643)"/><path class="av" d="M1.455,2.909A1.455,1.455,0,1,1,2.909,1.455,1.455,1.455,0,0,1,1.455,2.909Z" transform="translate(95.577 56.643)"/><path class="av" d="M1.457,2.911A1.456,1.456,0,1,1,2.911,1.457,1.455,1.455,0,0,1,1.457,2.911Z" transform="translate(54.577 49.35)"/><path class="av" d="M1.455,2.911A1.456,1.456,0,1,1,2.909,1.457,1.455,1.455,0,0,1,1.455,2.911Z" transform="translate(61.411 49.35)"/><path class="av" d="M1.455,2.911A1.456,1.456,0,1,1,2.909,1.457,1.455,1.455,0,0,1,1.455,2.911Z" transform="translate(68.244 49.35)"/><path class="av" d="M1.457,2.911A1.456,1.456,0,1,1,2.911,1.457,1.456,1.456,0,0,1,1.457,2.911Z" transform="translate(75.076 49.35)"/><path class="av" d="M1.455,2.911A1.456,1.456,0,1,1,2.909,1.457,1.455,1.455,0,0,1,1.455,2.911Z" transform="translate(81.91 49.35)"/><path class="av" d="M1.455,2.911A1.456,1.456,0,1,1,2.911,1.457,1.455,1.455,0,0,1,1.455,2.911Z" transform="translate(88.742 49.35)"/><path class="av" d="M1.455,2.911A1.456,1.456,0,1,1,2.909,1.457,1.455,1.455,0,0,1,1.455,2.911Z" transform="translate(95.577 49.35)"/><path class="av" d="M1.455,2.909A1.455,1.455,0,1,1,2.909,1.455,1.455,1.455,0,0,1,1.455,2.909Z" transform="translate(0 42.032)"/><path class="av" d="M1.457,2.909A1.455,1.455,0,1,1,2.911,1.455,1.455,1.455,0,0,1,1.457,2.909Z" transform="translate(6.832 42.032)"/><path class="av" d="M1.455,2.909A1.455,1.455,0,1,1,2.909,1.455,1.455,1.455,0,0,1,1.455,2.909Z" transform="translate(13.666 42.032)"/><path class="av" d="M1.455,2.909A1.455,1.455,0,1,1,2.911,1.455,1.455,1.455,0,0,1,1.455,2.909Z" transform="translate(20.499 42.032)"/><path class="av" d="M1.455,2.909A1.455,1.455,0,1,1,2.909,1.455,1.455,1.455,0,0,1,1.455,2.909Z" transform="translate(27.333 42.032)"/><path class="av" d="M1.455,2.909A1.455,1.455,0,1,1,2.909,1.455,1.455,1.455,0,0,1,1.455,2.909Z" transform="translate(34.165 42.032)"/><path class="av" d="M1.455,2.909A1.455,1.455,0,1,1,2.911,1.455,1.455,1.455,0,0,1,1.455,2.909Z" transform="translate(40.997 42.032)"/><path class="av" d="M1.455,2.909A1.455,1.455,0,1,1,2.909,1.455,1.455,1.455,0,0,1,1.455,2.909Z" transform="translate(47.832 42.032)"/><path class="av" d="M2.572,1.457A1.455,1.455,0,0,1,1.118,2.911,1.428,1.428,0,0,1,0,2.351Q.318,1.209.69.087A1.432,1.432,0,0,1,1.118,0,1.456,1.456,0,0,1,2.572,1.457Z" transform="translate(0.337 34.739)"/><path class="av" d="M1.457,2.911A1.456,1.456,0,1,1,2.911,1.457,1.455,1.455,0,0,1,1.457,2.911Z" transform="translate(6.832 34.739)"/><path class="av" d="M1.455,2.911A1.456,1.456,0,1,1,2.909,1.457,1.455,1.455,0,0,1,1.455,2.911Z" transform="translate(13.666 34.739)"/><path class="av" d="M1.455,2.911A1.456,1.456,0,1,1,2.911,1.457,1.455,1.455,0,0,1,1.455,2.911Z" transform="translate(20.499 34.739)"/><path class="av" d="M1.455,2.911A1.456,1.456,0,1,1,2.909,1.457,1.455,1.455,0,0,1,1.455,2.911Z" transform="translate(27.333 34.739)"/><path class="av" d="M1.455,2.911A1.456,1.456,0,1,1,2.909,1.457,1.455,1.455,0,0,1,1.455,2.911Z" transform="translate(34.165 34.739)"/><path class="av" d="M1.455,2.911A1.456,1.456,0,1,1,2.911,1.457,1.455,1.455,0,0,1,1.455,2.911Z" transform="translate(40.997 34.739)"/><path class="av" d="M1.455,2.911A1.456,1.456,0,1,1,2.909,1.457,1.455,1.455,0,0,1,1.455,2.911Z" transform="translate(47.832 34.739)"/><path class="av" d="M1.457,2.909A1.455,1.455,0,1,1,2.911,1.455,1.455,1.455,0,0,1,1.457,2.909Z" transform="translate(6.832 27.448)"/><path class="av" d="M1.455,2.909A1.455,1.455,0,1,1,2.909,1.455,1.455,1.455,0,0,1,1.455,2.909Z" transform="translate(13.666 27.448)"/><path class="av" d="M1.455,2.909A1.455,1.455,0,1,1,2.911,1.455,1.455,1.455,0,0,1,1.455,2.909Z" transform="translate(20.499 27.448)"/><path class="av" d="M1.455,2.909A1.455,1.455,0,1,1,2.909,1.455,1.455,1.455,0,0,1,1.455,2.909Z" transform="translate(27.333 27.448)"/><path class="av" d="M1.455,2.909A1.455,1.455,0,1,1,2.909,1.455,1.455,1.455,0,0,1,1.455,2.909Z" transform="translate(34.165 27.448)"/><path class="av" d="M1.455,2.909A1.455,1.455,0,1,1,2.911,1.455,1.455,1.455,0,0,1,1.455,2.909Z" transform="translate(40.997 27.448)"/><path class="av" d="M1.455,2.909A1.455,1.455,0,1,1,2.909,1.455,1.455,1.455,0,0,1,1.455,2.909Z" transform="translate(47.832 27.448)"/><path class="av" d="M2.634,1.378A1.455,1.455,0,0,1,1.179,2.832,1.429,1.429,0,0,1,0,2.185C.5,1.441,1.025.715,1.565,0A1.437,1.437,0,0,1,2.634,1.378Z" transform="translate(7.11 20.235)"/><path class="av" d="M1.455,2.909A1.455,1.455,0,1,1,2.909,1.455,1.455,1.455,0,0,1,1.455,2.909Z" transform="translate(13.666 20.158)"/><path class="av" d="M1.455,2.909A1.455,1.455,0,1,1,2.911,1.455,1.455,1.455,0,0,1,1.455,2.909Z" transform="translate(20.499 20.158)"/><path class="av" d="M1.455,2.909A1.455,1.455,0,1,1,2.909,1.455,1.455,1.455,0,0,1,1.455,2.909Z" transform="translate(27.333 20.158)"/><path class="av" d="M1.455,2.909A1.455,1.455,0,1,1,2.909,1.455,1.455,1.455,0,0,1,1.455,2.909Z" transform="translate(34.165 20.158)"/><path class="av" d="M1.455,2.909A1.455,1.455,0,1,1,2.911,1.455,1.455,1.455,0,0,1,1.455,2.909Z" transform="translate(40.997 20.158)"/><path class="av" d="M1.455,2.909A1.455,1.455,0,1,1,2.909,1.455,1.455,1.455,0,0,1,1.455,2.909Z" transform="translate(47.832 20.158)"/><path class="av" d="M2.871,1.4A1.455,1.455,0,0,1,1.416,2.852,1.439,1.439,0,0,1,0,1.591Q.832.776,1.7,0A1.433,1.433,0,0,1,2.871,1.4Z" transform="translate(13.705 12.925)"/><path class="av" d="M1.455,2.909A1.455,1.455,0,1,1,2.911,1.455,1.455,1.455,0,0,1,1.455,2.909Z" transform="translate(20.499 12.867)"/><path class="av" d="M1.455,2.909A1.455,1.455,0,1,1,2.909,1.455,1.455,1.455,0,0,1,1.455,2.909Z" transform="translate(27.333 12.867)"/><path class="av" d="M1.455,2.909A1.455,1.455,0,1,1,2.909,1.455,1.455,1.455,0,0,1,1.455,2.909Z" transform="translate(34.165 12.867)"/><path class="av" d="M1.455,2.909A1.455,1.455,0,1,1,2.911,1.455,1.455,1.455,0,0,1,1.455,2.909Z" transform="translate(40.997 12.867)"/><path class="av" d="M1.455,2.909A1.455,1.455,0,1,1,2.909,1.455,1.455,1.455,0,0,1,1.455,2.909Z" transform="translate(47.832 12.867)"/><path class="av" d="M.6,1.416A1.446,1.446,0,0,1,0,1.279Q1.009.615,2.046,0A1.45,1.45,0,0,1,.6,1.416Z" transform="translate(21.354 7.069)"/><path class="av" d="M1.455,2.909A1.455,1.455,0,1,1,2.909,1.455,1.455,1.455,0,0,1,1.455,2.909Z" transform="translate(27.333 5.576)"/><path class="av" d="M1.455,2.909A1.455,1.455,0,1,1,2.909,1.455,1.455,1.455,0,0,1,1.455,2.909Z" transform="translate(34.165 5.576)"/><path class="av" d="M1.455,2.909A1.455,1.455,0,1,1,2.911,1.455,1.455,1.455,0,0,1,1.455,2.909Z" transform="translate(40.997 5.576)"/><path class="av" d="M1.455,2.909A1.455,1.455,0,1,1,2.909,1.455,1.455,1.455,0,0,1,1.455,2.909Z" transform="translate(47.832 5.576)"/><path class="av" d="M1.129.9A1.43,1.43,0,0,1,0,.324Q1.228.133,2.472,0A1.452,1.452,0,0,1,1.129.9Z" transform="translate(41.323 0.295)"/><path class="av" d="M1.395,1.195A1.432,1.432,0,0,1,0,.035C.449.023.9,0,1.351,0c.484,0,.96.023,1.439.037A1.436,1.436,0,0,1,1.395,1.195Z" transform="translate(47.891 0)"/><path class="av" d="M1.457,2.909A1.455,1.455,0,1,1,2.911,1.455,1.455,1.455,0,0,1,1.457,2.909Z" transform="translate(54.577 42.032)"/><path class="av" d="M1.455,2.909A1.455,1.455,0,1,1,2.909,1.455,1.455,1.455,0,0,1,1.455,2.909Z" transform="translate(61.411 42.032)"/><path class="av" d="M1.455,2.909A1.455,1.455,0,1,1,2.909,1.455,1.455,1.455,0,0,1,1.455,2.909Z" transform="translate(68.244 42.032)"/><path class="av" d="M1.457,2.909A1.455,1.455,0,1,1,2.911,1.455,1.456,1.456,0,0,1,1.457,2.909Z" transform="translate(75.076 42.032)"/><path class="av" d="M1.455,2.909A1.455,1.455,0,1,1,2.909,1.455,1.455,1.455,0,0,1,1.455,2.909Z" transform="translate(81.91 42.032)"/><path class="av" d="M1.455,2.909A1.455,1.455,0,1,1,2.911,1.455,1.455,1.455,0,0,1,1.455,2.909Z" transform="translate(88.742 42.032)"/><path class="av" d="M1.455,2.909A1.455,1.455,0,1,1,2.909,1.455,1.455,1.455,0,0,1,1.455,2.909Z" transform="translate(95.577 42.032)"/><path class="av" d="M1.457,2.911A1.456,1.456,0,1,1,2.911,1.457,1.455,1.455,0,0,1,1.457,2.911Z" transform="translate(54.577 34.739)"/><path class="av" d="M1.455,2.911A1.456,1.456,0,1,1,2.909,1.457,1.455,1.455,0,0,1,1.455,2.911Z" transform="translate(61.411 34.739)"/><path class="av" d="M1.455,2.911A1.456,1.456,0,1,1,2.909,1.457,1.455,1.455,0,0,1,1.455,2.911Z" transform="translate(68.244 34.739)"/><path class="av" d="M1.457,2.911A1.456,1.456,0,1,1,2.911,1.457,1.456,1.456,0,0,1,1.457,2.911Z" transform="translate(75.076 34.739)"/><path class="av" d="M1.455,2.911A1.456,1.456,0,1,1,2.909,1.457,1.455,1.455,0,0,1,1.455,2.911Z" transform="translate(81.91 34.739)"/><path class="av" d="M1.455,2.911A1.456,1.456,0,1,1,2.911,1.457,1.455,1.455,0,0,1,1.455,2.911Z" transform="translate(88.742 34.739)"/><path class="av" d="M1.455,2.911A1.456,1.456,0,0,1,1.455,0a1.431,1.431,0,0,1,.428.087q.373,1.121.69,2.264A1.428,1.428,0,0,1,1.455,2.911Z" transform="translate(95.577 34.739)"/><path class="av" d="M1.457,2.909A1.455,1.455,0,1,1,2.911,1.455,1.455,1.455,0,0,1,1.457,2.909Z" transform="translate(54.577 27.448)"/><path class="av" d="M1.455,2.909A1.455,1.455,0,1,1,2.909,1.455,1.455,1.455,0,0,1,1.455,2.909Z" transform="translate(61.411 27.448)"/><path class="av" d="M1.455,2.909A1.455,1.455,0,1,1,2.909,1.455,1.455,1.455,0,0,1,1.455,2.909Z" transform="translate(68.244 27.448)"/><path class="av" d="M1.457,2.909A1.455,1.455,0,1,1,2.911,1.455,1.456,1.456,0,0,1,1.457,2.909Z" transform="translate(75.076 27.448)"/><path class="av" d="M1.455,2.909A1.455,1.455,0,1,1,2.909,1.455,1.455,1.455,0,0,1,1.455,2.909Z" transform="translate(81.91 27.448)"/><path class="av" d="M1.455,2.909A1.455,1.455,0,1,1,2.911,1.455,1.455,1.455,0,0,1,1.455,2.909Z" transform="translate(88.742 27.448)"/><path class="av" d="M1.457,2.909A1.455,1.455,0,1,1,2.911,1.455,1.455,1.455,0,0,1,1.457,2.909Z" transform="translate(54.577 20.158)"/><path class="av" d="M1.455,2.909A1.455,1.455,0,1,1,2.909,1.455,1.455,1.455,0,0,1,1.455,2.909Z" transform="translate(61.411 20.158)"/><path class="av" d="M1.455,2.909A1.455,1.455,0,1,1,2.909,1.455,1.455,1.455,0,0,1,1.455,2.909Z" transform="translate(68.244 20.158)"/><path class="av" d="M1.457,2.909A1.455,1.455,0,1,1,2.911,1.455,1.456,1.456,0,0,1,1.457,2.909Z" transform="translate(75.076 20.158)"/><path class="av" d="M1.455,2.909A1.455,1.455,0,1,1,2.909,1.455,1.455,1.455,0,0,1,1.455,2.909Z" transform="translate(81.91 20.158)"/><path class="av" d="M1.455,2.832A1.455,1.455,0,0,1,0,1.378,1.438,1.438,0,0,1,1.071,0c.538.715,1.062,1.441,1.563,2.185A1.429,1.429,0,0,1,1.455,2.832Z" transform="translate(88.742 20.235)"/><path class="av" d="M1.457,2.909A1.455,1.455,0,1,1,2.911,1.455,1.455,1.455,0,0,1,1.457,2.909Z" transform="translate(54.577 12.867)"/><path class="av" d="M1.455,2.909A1.455,1.455,0,1,1,2.909,1.455,1.455,1.455,0,0,1,1.455,2.909Z" transform="translate(61.411 12.867)"/><path class="av" d="M1.455,2.909A1.455,1.455,0,1,1,2.909,1.455,1.455,1.455,0,0,1,1.455,2.909Z" transform="translate(68.244 12.867)"/><path class="av" d="M1.457,2.909A1.455,1.455,0,1,1,2.911,1.455,1.456,1.456,0,0,1,1.457,2.909Z" transform="translate(75.076 12.867)"/><path class="av" d="M1.455,2.852A1.455,1.455,0,0,1,0,1.4,1.433,1.433,0,0,1,1.171,0q.867.775,1.7,1.591A1.439,1.439,0,0,1,1.455,2.852Z" transform="translate(81.91 12.925)"/><path class="av" d="M1.457,2.909A1.455,1.455,0,1,1,2.911,1.455,1.455,1.455,0,0,1,1.457,2.909Z" transform="translate(54.577 5.576)"/><path class="av" d="M1.455,2.909A1.455,1.455,0,1,1,2.909,1.455,1.455,1.455,0,0,1,1.455,2.909Z" transform="translate(61.411 5.576)"/><path class="av" d="M1.455,2.909A1.455,1.455,0,1,1,2.909,1.455,1.455,1.455,0,0,1,1.455,2.909Z" transform="translate(68.244 5.576)"/><path class="av" d="M0,0Q1.04.616,2.048,1.279a1.446,1.446,0,0,1-.6.137A1.453,1.453,0,0,1,0,0Z" transform="translate(75.084 7.069)"/><path class="av" d="M1.343.9A1.452,1.452,0,0,1,0,0Q1.246.133,2.472.324A1.43,1.43,0,0,1,1.343.9Z" transform="translate(54.691 0.295)"/></g></g><g transform="translate(196.932 59.605)"><path class="aw" d="M2.845,2.844h0a9.711,9.711,0,0,0,0,13.736L198.428,212.164a9.715,9.715,0,0,0,13.736,0h0a9.715,9.715,0,0,0,0-13.736L16.579,2.844A9.713,9.713,0,0,0,2.845,2.844Z" transform="translate(0 0)"/><path class="ax" d="M2.4,2.4h0a8.18,8.18,0,0,0,0,11.568L51.449,63.017a8.18,8.18,0,0,0,11.568,0h0a8.18,8.18,0,0,0,0-11.568L13.964,2.4A8.18,8.18,0,0,0,2.4,2.4Z" transform="translate(334.764 537.981)"/><path class="ay" d="M2.4,2.4h0a8.18,8.18,0,0,0,0,11.568L91.161,102.73a8.18,8.18,0,0,0,11.568,0h0a8.18,8.18,0,0,0,0-11.568L13.964,2.4A8.18,8.18,0,0,0,2.4,2.4Z" transform="translate(366.039 520.862)"/><path class="az" d="M2.844,2.845h0a9.715,9.715,0,0,0,0,13.736L14.961,28.7a9.711,9.711,0,0,0,13.736,0h0a9.712,9.712,0,0,0,0-13.734L16.58,2.845A9.711,9.711,0,0,0,2.844,2.845Z" transform="translate(75.806 13.461)"/><path class="ba" d="M2.844,2.845h0a9.712,9.712,0,0,0,0,13.734L110.75,124.485a9.711,9.711,0,0,0,13.736,0h0a9.712,9.712,0,0,0,0-13.734L16.58,2.845A9.711,9.711,0,0,0,2.844,2.845Z" transform="translate(110.838 47.223)"/></g><g transform="translate(123.141 122.161)"><path class="av" d="M18.978,26.922A96.075,96.075,0,0,1,0,0L45.9,45.9A96.035,96.035,0,0,1,18.978,26.922Z" transform="translate(8.875 136.996)"/><path class="av" d="M78.428,86.374l-77.2-77.2Q.394,4.615,0,0L87.6,87.606Q82.994,87.21,78.428,86.374Z" transform="translate(0.033 104.135)"/><path class="av" d="M103.74,110.844,0,7.1Q.289,3.538.844,0l110,110Q107.3,110.552,103.74,110.844Z" transform="translate(0 80.929)"/><path class="av" d="M120.087,126.021,0,5.934Q.91,2.943,2.012,0L126.023,124.01Q123.081,125.116,120.087,126.021Z" transform="translate(3.834 61.916)"/><path class="av" d="M130.087,135.144,0,5.06Q1.358,2.5,2.886,0L135.144,132.258Q132.65,133.781,130.087,135.144Z" transform="translate(10.844 45.783)"/><path class="av" d="M135.125,139.447,0,4.32Q1.737,2.12,3.624,0L139.445,135.823Q137.326,137.707,135.125,139.447Z" transform="translate(20.333 31.994)"/><path class="av" d="M135.822,139.447,0,3.624Q2.121,1.74,4.322,0L139.447,135.125Q137.707,137.327,135.822,139.447Z" transform="translate(31.992 20.333)"/><path class="av" d="M132.256,135.144,0,2.888Q2.494,1.362,5.058,0L135.144,130.087Q133.783,132.65,132.256,135.144Z" transform="translate(45.783 10.844)"/><path class="av" d="M124.011,126.021,0,2.01Q2.939.9,5.934,0L126.021,120.087Q125.114,123.078,124.011,126.021Z" transform="translate(61.914 3.836)"/><path class="av" d="M110,110.842,0,.844Q3.538.292,7.1,0L110.842,103.742Q110.553,107.3,110,110.842Z" transform="translate(80.929 0)"/><path class="av" d="M87.6,87.6,0,0Q4.61.4,9.175,1.229l77.2,77.2Q87.21,82.992,87.6,87.6Z" transform="translate(104.135 0.033)"/><path class="av" d="M0,0A96.064,96.064,0,0,1,26.924,18.977,96.063,96.063,0,0,1,45.9,45.9Z" transform="translate(136.994 8.877)"/></g><g transform="translate(65 0)"><path class="bb" d="M166.105,332.209A166.1,166.1,0,1,1,332.21,166.1,166.105,166.105,0,0,1,166.105,332.209Zm0-321.608a155.5,155.5,0,1,0,155.5,155.5A155.5,155.5,0,0,0,166.105,10.6Z" transform="translate(3.969 415.274)"/><g transform="translate(53.673 464.977)"><path class="av" d="M1.586,68.458,68.457,1.588C69.9,1.033,71.35.5,72.818,0L0,72.818Q.749,70.615,1.586,68.458Z" transform="translate(6.104 6.104)"/><path class="av" d="M.605,92.54,92.54.6Q94.222.278,95.921,0L0,95.921Q.277,94.222.605,92.54Z" transform="translate(1.489 1.489)"/><path class="av" d="M.123,109.875,109.875.123q1.445-.078,2.9-.123L0,112.773Q.043,111.319.123,109.875Z" transform="translate(0 0)"/><path class="av" d="M0,123.528,123.528,0q1.3.081,2.588.187L.187,126.116Q.08,124.827,0,123.528Z" transform="translate(0.171 0.171)"/><path class="av" d="M.428,136.875c-.15-.778-.293-1.563-.428-2.347L134.528,0c.119.021.241.04.362.06l1.175,1.177Z" transform="translate(1.609 1.609)"/><path class="av" d="M140.474,1.387.618,141.242c-.212-.715-.42-1.434-.618-2.154L139.086,0Z" transform="translate(4.137 8.395)"/><path class="av" d="M143.984,1.387.78,144.591C.514,143.93.254,143.264,0,142.6L142.6,0Z" transform="translate(7.564 15.331)"/><path class="av" d="M146.718,1.387.921,147.185C.607,146.57.3,145.951,0,145.331L145.331,0Z" transform="translate(11.767 22.267)"/><path class="av" d="M148.757,1.387l-147.7,147.7C.7,148.514.347,147.946,0,147.37L147.369,0Z" transform="translate(16.664 29.206)"/><path class="av" d="M150.15,1.387,1.177,150.36q-.6-.792-1.177-1.6L148.763,0Z" transform="translate(22.208 36.142)"/><path class="av" d="M150.947,1.387,1.3,151.032c-.437-.489-.877-.975-1.3-1.47L149.56,0Z" transform="translate(28.346 43.078)"/><path class="av" d="M151.15,1.387,1.414,151.123Q.7,150.449,0,149.763L149.762,0Z" transform="translate(35.082 50.015)"/><path class="av" d="M150.778,1.389,1.538,150.628c-.514-.408-1.029-.819-1.538-1.237L149.391,0Z" transform="translate(42.39 56.951)"/><path class="av" d="M149.8,1.387,1.653,149.539c-.555-.37-1.1-.744-1.653-1.123L148.418,0Z" transform="translate(50.3 63.889)"/><path class="av" d="M148.225,1.387,1.778,147.834c-.6-.326-1.189-.659-1.778-.994L146.838,0Z" transform="translate(58.816 70.826)"/><path class="av" d="M145.992,1.387,1.921,145.458C1.277,145.179.636,144.9,0,144.6L144.6,0Z" transform="translate(67.987 77.762)"/><path class="av" d="M143.038,1.387,2.071,142.356q-1.04-.344-2.071-.705L141.651,0Z" transform="translate(77.877 84.698)"/><path class="av" d="M139.279,1.387,2.247,138.42q-1.127-.254-2.247-.53L137.892,0Z" transform="translate(88.573 91.636)"/><path class="av" d="M131.857,2.459l-129.4,129.4q-1.234-.145-2.458-.316L131.541,0Q131.712,1.225,131.857,2.459Z" transform="translate(100.216 100.216)"/><path class="av" d="M119.859,2.73,2.732,119.857q-1.37-.009-2.732-.044L119.815,0Q119.853,1.361,119.859,2.73Z" transform="translate(113.016 113.018)"/><path class="av" d="M104.684,3.106,3.106,104.684c-1.031.125-2.067.233-3.106.331L105.014,0Q104.869,1.561,104.684,3.106Z" transform="translate(127.353 127.353)"/><path class="av" d="M84.6,3.749,3.749,84.6q-1.861.517-3.749.973L85.575,0C85.268,1.258,84.947,2.509,84.6,3.749Z" transform="translate(144.009 144.009)"/><path class="av" d="M54.061,5.509,5.509,54.061Q2.795,55.5,0,56.793L56.793,0Q55.5,2.8,54.061,5.509Z" transform="translate(165.336 165.337)"/></g></g><g transform="translate(493.275 153.621)"><path class="av" d="M6.888,2.312Q3.414,1.867,0,1.239A4.355,4.355,0,0,1,6.888,2.312Z" transform="translate(104.287 258.258)"/><path class="av" d="M4.233,0A4.373,4.373,0,0,1,8.466,3.3c-1.407.046-2.815.077-4.233.077S1.407,3.345,0,3.3A4.377,4.377,0,0,1,4.233,0Z" transform="translate(123.692 258.258)"/><path class="av" d="M3.842,0A4.364,4.364,0,0,1,6.888,1.239Q3.472,1.863,0,2.312A4.363,4.363,0,0,1,3.842,0Z" transform="translate(144.674 258.258)"/><path class="av" d="M4.385,8.769A4.384,4.384,0,1,1,8.769,4.383,4.385,4.385,0,0,1,4.385,8.769Z" transform="translate(61.77 236.287)"/><path class="av" d="M4.383,8.769A4.384,4.384,0,1,1,8.769,4.383,4.385,4.385,0,0,1,4.383,8.769Z" transform="translate(82.361 236.287)"/><path class="av" d="M4.385,8.769A4.384,4.384,0,1,1,8.769,4.383,4.385,4.385,0,0,1,4.385,8.769Z" transform="translate(102.95 236.287)"/><path class="av" d="M4.383,8.769A4.384,4.384,0,1,1,8.769,4.383,4.385,4.385,0,0,1,4.383,8.769Z" transform="translate(123.541 236.287)"/><path class="av" d="M4.385,8.769A4.384,4.384,0,1,1,8.769,4.383,4.385,4.385,0,0,1,4.385,8.769Z" transform="translate(144.131 236.287)"/><path class="av" d="M4.383,8.769A4.384,4.384,0,1,1,8.769,4.383,4.384,4.384,0,0,1,4.383,8.769Z" transform="translate(164.722 236.287)"/><path class="av" d="M4.383,8.769A4.384,4.384,0,1,1,8.769,4.383,4.385,4.385,0,0,1,4.383,8.769Z" transform="translate(185.311 236.287)"/><ellipse class="av" cx="4.384" cy="4.384" rx="4.384" ry="4.384" transform="translate(41.181 214.315)"/><ellipse class="av" cx="4.384" cy="4.384" rx="4.384" ry="4.384" transform="translate(61.771 214.315)"/><ellipse class="av" cx="4.384" cy="4.384" rx="4.384" ry="4.384" transform="translate(82.361 214.315)"/><path class="av" d="M4.385,8.767A4.383,4.383,0,1,1,8.769,4.383,4.384,4.384,0,0,1,4.385,8.767Z" transform="translate(102.95 214.316)"/><ellipse class="av" cx="4.384" cy="4.384" rx="4.384" ry="4.384" transform="translate(123.541 214.315)"/><ellipse class="av" cx="4.384" cy="4.384" rx="4.384" ry="4.384" transform="translate(144.131 214.315)"/><ellipse class="av" cx="4.384" cy="4.384" rx="4.384" ry="4.384" transform="translate(164.721 214.315)"/><path class="av" d="M4.383,8.767A4.383,4.383,0,1,1,8.769,4.383,4.383,4.383,0,0,1,4.383,8.767Z" transform="translate(185.311 214.316)"/><path class="av" d="M4.385,8.767A4.383,4.383,0,1,1,8.769,4.383,4.384,4.384,0,0,1,4.385,8.767Z" transform="translate(205.9 214.316)"/><ellipse class="av" cx="4.384" cy="4.384" rx="4.384" ry="4.384" transform="translate(20.591 192.345)"/><ellipse class="av" cx="4.384" cy="4.384" rx="4.384" ry="4.384" transform="translate(41.181 192.345)"/><ellipse class="av" cx="4.384" cy="4.384" rx="4.384" ry="4.384" transform="translate(61.771 192.345)"/><ellipse class="av" cx="4.384" cy="4.384" rx="4.384" ry="4.384" transform="translate(82.361 192.345)"/><path class="av" d="M4.385,8.767A4.383,4.383,0,1,1,8.769,4.383,4.384,4.384,0,0,1,4.385,8.767Z" transform="translate(102.95 192.346)"/><ellipse class="av" cx="4.384" cy="4.384" rx="4.384" ry="4.384" transform="translate(123.541 192.345)"/><ellipse class="av" cx="4.384" cy="4.384" rx="4.384" ry="4.384" transform="translate(144.131 192.345)"/><ellipse class="av" cx="4.384" cy="4.384" rx="4.384" ry="4.384" transform="translate(164.721 192.345)"/><path class="av" d="M4.383,8.767A4.383,4.383,0,1,1,8.769,4.383,4.383,4.383,0,0,1,4.383,8.767Z" transform="translate(185.311 192.346)"/><path class="av" d="M4.385,8.767A4.383,4.383,0,1,1,8.769,4.383,4.384,4.384,0,0,1,4.385,8.767Z" transform="translate(205.9 192.346)"/><path class="av" d="M4.383,8.767A4.383,4.383,0,1,1,8.769,4.383,4.383,4.383,0,0,1,4.383,8.767Z" transform="translate(226.492 192.346)"/><path class="av" d="M5.512,4.385a4.38,4.38,0,0,1-2.6,4Q1.323,4.338,0,.166A4.367,4.367,0,0,1,1.129,0,4.385,4.385,0,0,1,5.512,4.385Z" transform="translate(3.256 170.373)"/><ellipse class="av" cx="4.384" cy="4.384" rx="4.384" ry="4.384" transform="translate(20.591 170.374)"/><ellipse class="av" cx="4.384" cy="4.384" rx="4.384" ry="4.384" transform="translate(41.181 170.374)"/><ellipse class="av" cx="4.384" cy="4.384" rx="4.384" ry="4.384" transform="translate(61.771 170.374)"/><ellipse class="av" cx="4.384" cy="4.384" rx="4.384" ry="4.384" transform="translate(82.361 170.374)"/><path class="av" d="M4.385,8.769A4.384,4.384,0,1,1,8.769,4.385,4.384,4.384,0,0,1,4.385,8.769Z" transform="translate(102.95 170.373)"/><ellipse class="av" cx="4.384" cy="4.384" rx="4.384" ry="4.384" transform="translate(123.541 170.374)"/><ellipse class="av" cx="4.384" cy="4.384" rx="4.384" ry="4.384" transform="translate(144.131 170.374)"/><ellipse class="av" cx="4.384" cy="4.384" rx="4.384" ry="4.384" transform="translate(164.721 170.374)"/><path class="av" d="M4.383,8.769A4.384,4.384,0,1,1,8.769,4.385,4.383,4.383,0,0,1,4.383,8.769Z" transform="translate(185.311 170.373)"/><path class="av" d="M4.385,8.769A4.384,4.384,0,1,1,8.769,4.385,4.384,4.384,0,0,1,4.385,8.769Z" transform="translate(205.9 170.373)"/><path class="av" d="M4.383,8.769A4.384,4.384,0,1,1,8.769,4.385,4.383,4.383,0,0,1,4.383,8.769Z" transform="translate(226.492 170.373)"/><path class="av" d="M0,4.385A4.385,4.385,0,0,1,4.385,0,4.363,4.363,0,0,1,5.512.166Q4.186,4.333,2.6,8.381A4.38,4.38,0,0,1,0,4.385Z" transform="translate(247.081 170.373)"/><path class="av" d="M4.385,8.769A4.384,4.384,0,1,1,8.769,4.385,4.384,4.384,0,0,1,4.385,8.769Z" transform="translate(0 148.402)"/><path class="av" d="M4.383,8.769A4.384,4.384,0,1,1,8.769,4.385,4.382,4.382,0,0,1,4.383,8.769Z" transform="translate(20.591 148.402)"/><path class="av" d="M4.385,8.769A4.384,4.384,0,1,1,8.769,4.385,4.384,4.384,0,0,1,4.385,8.769Z" transform="translate(41.18 148.402)"/><path class="av" d="M4.385,8.769A4.384,4.384,0,1,1,8.769,4.385,4.384,4.384,0,0,1,4.385,8.769Z" transform="translate(61.77 148.402)"/><path class="av" d="M4.383,8.769A4.384,4.384,0,1,1,8.769,4.385,4.383,4.383,0,0,1,4.383,8.769Z" transform="translate(82.361 148.402)"/><path class="av" d="M4.385,8.769A4.384,4.384,0,1,1,8.769,4.385,4.384,4.384,0,0,1,4.385,8.769Z" transform="translate(102.95 148.402)"/><path class="av" d="M4.383,8.769A4.384,4.384,0,1,1,8.769,4.385,4.383,4.383,0,0,1,4.383,8.769Z" transform="translate(123.541 148.402)"/><path class="av" d="M4.385,8.769A4.384,4.384,0,1,1,8.769,4.385,4.384,4.384,0,0,1,4.385,8.769Z" transform="translate(144.131 148.402)"/><path class="av" d="M4.383,8.769A4.384,4.384,0,1,1,8.769,4.385,4.382,4.382,0,0,1,4.383,8.769Z" transform="translate(164.722 148.402)"/><path class="av" d="M4.383,8.769A4.384,4.384,0,1,1,8.769,4.385,4.383,4.383,0,0,1,4.383,8.769Z" transform="translate(185.311 148.402)"/><path class="av" d="M4.385,8.769A4.384,4.384,0,1,1,8.769,4.385,4.384,4.384,0,0,1,4.385,8.769Z" transform="translate(205.9 148.402)"/><path class="av" d="M4.383,8.769A4.384,4.384,0,1,1,8.769,4.385,4.383,4.383,0,0,1,4.383,8.769Z" transform="translate(226.492 148.402)"/><path class="av" d="M4.385,8.769A4.384,4.384,0,1,1,8.769,4.385,4.384,4.384,0,0,1,4.385,8.769Z" transform="translate(247.081 148.402)"/><path class="av" d="M4.385,8.769A4.384,4.384,0,1,1,8.769,4.385,4.384,4.384,0,0,1,4.385,8.769Z" transform="translate(0 126.432)"/><ellipse class="av" cx="4.384" cy="4.384" rx="4.384" ry="4.384" transform="translate(20.591 126.432)"/><ellipse class="av" cx="4.384" cy="4.384" rx="4.384" ry="4.384" transform="translate(41.181 126.432)"/><ellipse class="av" cx="4.384" cy="4.384" rx="4.384" ry="4.384" transform="translate(61.771 126.432)"/><ellipse class="av" cx="4.384" cy="4.384" rx="4.384" ry="4.384" transform="translate(82.361 126.432)"/><path class="av" d="M4.385,8.769A4.384,4.384,0,1,1,8.769,4.385,4.384,4.384,0,0,1,4.385,8.769Z" transform="translate(102.95 126.432)"/><ellipse class="av" cx="4.384" cy="4.384" rx="4.384" ry="4.384" transform="translate(123.541 126.432)"/><ellipse class="av" cx="4.384" cy="4.384" rx="4.384" ry="4.384" transform="translate(144.131 126.432)"/><ellipse class="av" cx="4.384" cy="4.384" rx="4.384" ry="4.384" transform="translate(164.721 126.432)"/><path class="av" d="M4.383,8.769A4.384,4.384,0,1,1,8.769,4.385,4.383,4.383,0,0,1,4.383,8.769Z" transform="translate(185.311 126.432)"/><path class="av" d="M4.385,8.769A4.384,4.384,0,1,1,8.769,4.385,4.384,4.384,0,0,1,4.385,8.769Z" transform="translate(205.9 126.432)"/><path class="av" d="M4.383,8.769A4.384,4.384,0,1,1,8.769,4.385,4.383,4.383,0,0,1,4.383,8.769Z" transform="translate(226.492 126.432)"/><ellipse class="av" cx="4.384" cy="4.384" rx="4.384" ry="4.384" transform="translate(247.081 126.432)"/><path class="av" d="M4.385,8.769A4.384,4.384,0,1,1,8.769,4.385,4.384,4.384,0,0,1,4.385,8.769Z" transform="translate(0 104.461)"/><ellipse class="av" cx="4.384" cy="4.384" rx="4.384" ry="4.384" transform="translate(20.591 104.461)"/><ellipse class="av" cx="4.384" cy="4.384" rx="4.384" ry="4.384" transform="translate(41.181 104.461)"/><ellipse class="av" cx="4.384" cy="4.384" rx="4.384" ry="4.384" transform="translate(61.771 104.461)"/><ellipse class="av" cx="4.384" cy="4.384" rx="4.384" ry="4.384" transform="translate(82.361 104.461)"/><path class="av" d="M4.385,8.769A4.384,4.384,0,1,1,8.769,4.385,4.384,4.384,0,0,1,4.385,8.769Z" transform="translate(102.95 104.461)"/><ellipse class="av" cx="4.384" cy="4.384" rx="4.384" ry="4.384" transform="translate(123.541 104.461)"/><ellipse class="av" cx="4.384" cy="4.384" rx="4.384" ry="4.384" transform="translate(144.131 104.461)"/><ellipse class="av" cx="4.384" cy="4.384" rx="4.384" ry="4.384" transform="translate(164.721 104.461)"/><path class="av" d="M4.383,8.769A4.384,4.384,0,1,1,8.769,4.385,4.383,4.383,0,0,1,4.383,8.769Z" transform="translate(185.311 104.461)"/><path class="av" d="M4.385,8.769A4.384,4.384,0,1,1,8.769,4.385,4.384,4.384,0,0,1,4.385,8.769Z" transform="translate(205.9 104.461)"/><path class="av" d="M4.383,8.769A4.384,4.384,0,1,1,8.769,4.385,4.383,4.383,0,0,1,4.383,8.769Z" transform="translate(226.492 104.461)"/><ellipse class="av" cx="4.384" cy="4.384" rx="4.384" ry="4.384" transform="translate(247.081 104.461)"/><path class="av" d="M5.512,4A4.384,4.384,0,0,1,1.129,8.379,4.366,4.366,0,0,1,0,8.216Q1.329,4.045,2.915,0A4.378,4.378,0,0,1,5.512,4Z" transform="translate(3.256 82.879)"/><path class="av" d="M4.383,8.769A4.384,4.384,0,1,1,8.769,4.385,4.383,4.383,0,0,1,4.383,8.769Z" transform="translate(20.591 82.49)"/><path class="av" d="M4.385,8.769A4.384,4.384,0,1,1,8.769,4.385,4.385,4.385,0,0,1,4.385,8.769Z" transform="translate(41.18 82.49)"/><path class="av" d="M4.385,8.769A4.384,4.384,0,1,1,8.769,4.385,4.385,4.385,0,0,1,4.385,8.769Z" transform="translate(61.77 82.49)"/><path class="av" d="M4.383,8.769A4.384,4.384,0,1,1,8.769,4.385,4.384,4.384,0,0,1,4.383,8.769Z" transform="translate(82.361 82.49)"/><path class="av" d="M4.385,8.769A4.384,4.384,0,1,1,8.769,4.385,4.385,4.385,0,0,1,4.385,8.769Z" transform="translate(102.95 82.49)"/><path class="av" d="M4.383,8.769A4.384,4.384,0,1,1,8.769,4.385,4.384,4.384,0,0,1,4.383,8.769Z" transform="translate(123.541 82.49)"/><path class="av" d="M4.385,8.769A4.384,4.384,0,1,1,8.769,4.385,4.385,4.385,0,0,1,4.385,8.769Z" transform="translate(144.131 82.49)"/><path class="av" d="M4.383,8.769A4.384,4.384,0,1,1,8.769,4.385,4.383,4.383,0,0,1,4.383,8.769Z" transform="translate(164.722 82.49)"/><path class="av" d="M4.383,8.769A4.384,4.384,0,1,1,8.769,4.385,4.384,4.384,0,0,1,4.383,8.769Z" transform="translate(185.311 82.49)"/><path class="av" d="M4.385,8.769A4.384,4.384,0,1,1,8.769,4.385,4.385,4.385,0,0,1,4.385,8.769Z" transform="translate(205.9 82.49)"/><path class="av" d="M4.383,8.769A4.384,4.384,0,1,1,8.769,4.385,4.384,4.384,0,0,1,4.383,8.769Z" transform="translate(226.492 82.49)"/><path class="av" d="M0,4A4.378,4.378,0,0,1,2.6,0Q4.19,4.04,5.512,8.216a4.362,4.362,0,0,1-1.127.164A4.385,4.385,0,0,1,0,4Z" transform="translate(247.081 82.879)"/><ellipse class="av" cx="4.384" cy="4.384" rx="4.384" ry="4.384" transform="translate(20.591 60.52)"/><ellipse class="av" cx="4.384" cy="4.384" rx="4.384" ry="4.384" transform="translate(41.181 60.52)"/><ellipse class="av" cx="4.384" cy="4.384" rx="4.384" ry="4.384" transform="translate(61.771 60.52)"/><ellipse class="av" cx="4.384" cy="4.384" rx="4.384" ry="4.384" transform="translate(82.361 60.52)"/><path class="av" d="M4.385,8.769A4.384,4.384,0,1,1,8.769,4.385,4.385,4.385,0,0,1,4.385,8.769Z" transform="translate(102.95 60.519)"/><ellipse class="av" cx="4.384" cy="4.384" rx="4.384" ry="4.384" transform="translate(123.541 60.52)"/><ellipse class="av" cx="4.384" cy="4.384" rx="4.384" ry="4.384" transform="translate(144.131 60.52)"/><ellipse class="av" cx="4.384" cy="4.384" rx="4.384" ry="4.384" transform="translate(164.721 60.52)"/><path class="av" d="M4.383,8.769A4.384,4.384,0,1,1,8.769,4.385,4.384,4.384,0,0,1,4.383,8.769Z" transform="translate(185.311 60.519)"/><path class="av" d="M4.385,8.769A4.384,4.384,0,1,1,8.769,4.385,4.385,4.385,0,0,1,4.385,8.769Z" transform="translate(205.9 60.519)"/><path class="av" d="M4.383,8.769A4.384,4.384,0,1,1,8.769,4.385,4.384,4.384,0,0,1,4.383,8.769Z" transform="translate(226.492 60.519)"/><ellipse class="av" cx="4.384" cy="4.384" rx="4.384" ry="4.384" transform="translate(41.181 38.549)"/><ellipse class="av" cx="4.384" cy="4.384" rx="4.384" ry="4.384" transform="translate(61.771 38.549)"/><ellipse class="av" cx="4.384" cy="4.384" rx="4.384" ry="4.384" transform="translate(82.361 38.549)"/><path class="av" d="M4.385,8.769A4.384,4.384,0,1,1,8.769,4.385,4.385,4.385,0,0,1,4.385,8.769Z" transform="translate(102.95 38.549)"/><ellipse class="av" cx="4.384" cy="4.384" rx="4.384" ry="4.384" transform="translate(123.541 38.549)"/><ellipse class="av" cx="4.384" cy="4.384" rx="4.384" ry="4.384" transform="translate(144.131 38.549)"/><ellipse class="av" cx="4.384" cy="4.384" rx="4.384" ry="4.384" transform="translate(164.721 38.549)"/><path class="av" d="M4.383,8.769A4.384,4.384,0,1,1,8.769,4.385,4.384,4.384,0,0,1,4.383,8.769Z" transform="translate(185.311 38.549)"/><path class="av" d="M4.385,8.769A4.384,4.384,0,1,1,8.769,4.385,4.385,4.385,0,0,1,4.385,8.769Z" transform="translate(205.9 38.549)"/><ellipse class="av" cx="4.384" cy="4.384" rx="4.384" ry="4.384" transform="translate(61.771 16.578)"/><ellipse class="av" cx="4.384" cy="4.384" rx="4.384" ry="4.384" transform="translate(82.361 16.578)"/><path class="av" d="M4.385,8.769A4.384,4.384,0,1,1,8.769,4.385,4.385,4.385,0,0,1,4.385,8.769Z" transform="translate(102.95 16.578)"/><ellipse class="av" cx="4.384" cy="4.384" rx="4.384" ry="4.384" transform="translate(123.541 16.578)"/><ellipse class="av" cx="4.384" cy="4.384" rx="4.384" ry="4.384" transform="translate(144.131 16.578)"/><ellipse class="av" cx="4.384" cy="4.384" rx="4.384" ry="4.384" transform="translate(164.721 16.578)"/><path class="av" d="M4.383,8.769A4.384,4.384,0,1,1,8.769,4.385,4.384,4.384,0,0,1,4.383,8.769Z" transform="translate(185.311 16.578)"/><path class="av" d="M3.048,2.312A4.367,4.367,0,0,1,0,1.071Q3.416.45,6.888,0A4.364,4.364,0,0,1,3.048,2.312Z" transform="translate(104.287 1.064)"/><path class="av" d="M4.233,3.376A4.376,4.376,0,0,1,0,.075C1.407.031,2.817,0,4.233,0S7.06.031,8.466.075A4.373,4.373,0,0,1,4.233,3.376Z" transform="translate(123.692 0)"/><path class="av" d="M0,0Q3.474.445,6.888,1.071A4.365,4.365,0,0,1,3.842,2.312,4.367,4.367,0,0,1,0,0Z" transform="translate(144.674 1.064)"/></g><g transform="translate(23.919)"><circle class="bc" cx="264.647" cy="264.647" r="264.647" transform="translate(419.993 0) rotate(45)"/><circle class="bd" cx="261.527" cy="261.527" r="261.527" transform="translate(369.855 48.011) rotate(45)"/></g><g transform="translate(548.869 408.556)"><ellipse class="be" cx="71.53" cy="71.53" rx="71.53" ry="71.53" transform="translate(14.071 0)"/><ellipse class="bf" cx="71.53" cy="71.53" rx="71.53" ry="71.53" transform="translate(0 25.798)"/></g><g transform="translate(546.378 212.825)"><ellipse class="bg" cx="48.3" cy="48.3" rx="48.3" ry="48.3" transform="translate(95.05 0) rotate(67.858)"/><ellipse class="bh" cx="41.31" cy="41.31" rx="41.31" ry="41.31" transform="translate(75.931 23.937) rotate(66.784)"/></g></g></svg>