<svg xmlns="http://www.w3.org/2000/svg" width="250" height="149" viewBox="0 0 250 149"><defs><style>.a{fill:#272525;}.b{fill:#dfdfdf;}.c{fill:none;}</style></defs><g transform="translate(-182.866 -286.513)"><g transform="translate(222.866 350.067)"><g transform="translate(0 0.141)"><path class="a" d="M237.037,350.208h4.6v.14c-.925,0-.887.2-.887,1.154v8.23c0,1.061.151,1.31,1.076,1.31v.141h-5.755v-.141c.887,0,.962-.249.962-1.31v-9.1l-4.886,10.694h-.171l-6.114-9.385v5.113c0,2.011.7,3.991,2.887,3.991v.141h-5.887v-.141c2.02,0,2.831-1.948,2.831-3.991V351.7c-.736-1.075-1.34-1.325-1.869-1.356v-.14h5.378l4.567,7.171Z" transform="translate(-222.866 -350.208)"/></g><g transform="translate(25.187 0.141)"><path class="a" d="M249.9,350.208v.124c-.793,0-1.226.016-1.226,1.387v7.7c0,1.481.433,1.621,1.226,1.621v.141h-6.226v-.141c.792,0,1.226-.14,1.226-1.621v-7.7c0-1.371-.415-1.387-1.226-1.387v-.124Z" transform="translate(-243.675 -350.208)"/></g><g transform="translate(38.071)"><path class="a" d="M266.17,357.441l.189,3.149a12.186,12.186,0,0,1-4.415.733c-4.038,0-7.623-2.105-7.623-5.628s3.585-5.628,7.623-5.628a9.959,9.959,0,0,1,4.415.717l-.189,3.149h-.15c-.566-3.227-2.7-3.725-4.077-3.725-2.094,0-2.981,1.216-2.981,5.487,0,4.287.943,5.488,2.981,5.488,1.283,0,3.434-.64,4.077-3.742Z" transform="translate(-254.32 -350.067)"/></g><g transform="translate(56.54 0.141)"><path class="a" d="M283.711,361.042v.141h-3.755c-1.34,0-1.755-.7-2.208-3.6-.244-1.56-2.509-1.466-2.509-1.466h-.887v3.3c0,1.528.076,1.621.868,1.621v.141h-5.642v-.141c.811,0,.98-.031.98-1.621v-7.7c0-.966-.15-1.387-.98-1.387v-.124h5.358c3.756,0,7.133.374,7.133,2.977,0,2.339-2.6,2.822-4.415,2.822,2.17,0,3.264.39,4.189,3.2A2.615,2.615,0,0,0,283.711,361.042Zm-6.075-7.857c0-2.977-.491-2.837-2.7-2.837h-.585v5.627h.585C277.391,355.975,277.636,356.007,277.636,353.185Z" transform="translate(-269.579 -350.208)"/></g><g transform="translate(76.405)"><path class="a" d="M299.766,355.773c0,3.1-2.735,5.55-6.887,5.55s-6.888-2.447-6.888-5.55c0-3.087,2.737-5.706,6.888-5.706S299.766,352.686,299.766,355.773Zm-4.585,0c0-4.271-.076-5.565-2.3-5.565-2.245,0-2.34,1.294-2.34,5.565,0,4.287.094,5.41,2.34,5.41C295.105,361.183,295.181,360.06,295.181,355.773Z" transform="translate(-285.991 -350.067)"/></g><g transform="translate(95.403 0.141)"><path class="a" d="M322.688,350.208v.124c-.754,0-1.905.483-3.283,3.227l-3.3,7.624h-.679c-1.755-3.384-2.887-5.566-3.641-6.984l-3.02,6.984h-.679c-4.754-9.183-5-9.588-5-9.588-.641-1.247-.907-1.231-1.4-1.263v-.124h5.887v.124c-1.208,0-.246,1.808-.246,1.808l2.849,5.348,1.511-3.477c-1.151-2.213-1.265-2.416-1.265-2.416-.641-1.247-.905-1.231-1.4-1.263v-.124h5.886v.124c-1.207,0-.245,1.808-.245,1.808l2.83,5.363,1.7-3.944c.472-1.106.057-3.227-1.868-3.227v-.124Z" transform="translate(-301.687 -350.208)"/></g><g transform="translate(120.532 0.141)"><path class="a" d="M329.3,350.208h.094c4.774,9.042,5.1,9.556,5.1,9.556.679,1.247,1.32,1.262,1.7,1.294v.125h-6.6v-.125c1.509,0,.378-1.824.378-1.824l-.6-1.076h-3.7a2.189,2.189,0,0,0,2.226,2.9v.125h-5.435v-.125c.566-.032,1.586-.156,3.038-2.9Zm-1.905,4.3-1.68,3.508h3.567Z" transform="translate(-322.448 -350.208)"/></g><g transform="translate(138.228 0.141)"><path class="a" d="M351.636,350.208v.124c-.812,0-2.019.483-3.491,3.227l-3.718,7.624h-.547c-5.057-9.183-5.321-9.588-5.321-9.588-.679-1.247-.962-1.231-1.491-1.263v-.124h6.284v.124c-1.3,0-.265,1.808-.265,1.808l2.926,5.379,1.944-3.96a2.17,2.17,0,0,0-2.038-3.227v-.124Z" transform="translate(-337.068 -350.208)"/></g><g transform="translate(158.98 0.141)"><path class="a" d="M365.233,358.127v3.056h-11.02v-.141c.793,0,1.1-.935,1.1-1.995v-6.688c0-.966-.264-2.027-1.1-2.027v-.124h10.775v3.2h-.169c0-3.039-5.151-3.055-5.151-3.055h-.679v5.222h1.528a2.139,2.139,0,0,0,2.227-1.839h.169v3.819h-.169a2.158,2.158,0,0,0-2.227-1.84h-1.528v5.332h.679s5.4.172,5.4-2.915Z" transform="translate(-354.213 -350.208)"/></g></g><g transform="translate(265.002 367.124)"><g transform="translate(0 0.062)"><path d="M260.976,367.186h1.277v4.329h-1.277v-1.8h-2.023v1.8h-1.276v-4.329h1.276v1.733h2.023Z" transform="translate(-257.678 -367.186)"/></g><g transform="translate(9.59 0.05)"><path d="M269.422,371.515l-.29-.728h-1.881l-.292.728H265.6l1.822-4.341h1.552l1.814,4.341Zm-1.851-1.529h1.238l-.619-1.542Z" transform="translate(-265.601 -367.174)"/></g><g transform="translate(19.792 0.062)"><path d="M274.03,371.515v-4.329h1.276v4.329Z" transform="translate(-274.03 -367.186)"/></g><g transform="translate(26.576 0.062)"><path d="M280.911,369.831v1.684h-1.276v-4.329H281.7a2.291,2.291,0,0,1,1.417.388,1.15,1.15,0,0,1,.508.937,1.2,1.2,0,0,1-.276.735,1.544,1.544,0,0,1-.9.505l1.284,1.764H282.24l-1.18-1.684Zm0-1.844v1.043h.792a.693.693,0,0,0,.459-.142.467.467,0,0,0,.168-.373.479.479,0,0,0-.172-.38.677.677,0,0,0-.455-.148Z" transform="translate(-279.635 -367.186)"/></g><g transform="translate(42.466)"><path d="M294.651,367.957a.677.677,0,0,0-.392.105.34.34,0,0,0-.152.3.394.394,0,0,0,.142.318.992.992,0,0,0,.369.184c.151.043.321.085.507.124s.372.086.557.141a2.749,2.749,0,0,1,.5.207.967.967,0,0,1,.511.888,1.139,1.139,0,0,1-.541.94,2.372,2.372,0,0,1-1.426.392,2.572,2.572,0,0,1-1.425-.352,1.12,1.12,0,0,1-.541-1h1.358c.034.346.248.518.641.518a.694.694,0,0,0,.433-.12.37.37,0,0,0,.156-.305.374.374,0,0,0-.142-.3,1.04,1.04,0,0,0-.369-.185c-.151-.046-.321-.087-.507-.127s-.373-.087-.557-.144a3.015,3.015,0,0,1-.5-.207.962.962,0,0,1-.369-.345.982.982,0,0,1-.142-.534,1.115,1.115,0,0,1,.545-.968,2.453,2.453,0,0,1,1.392-.364,2.609,2.609,0,0,1,1.369.318,1.132,1.132,0,0,1,.545,1h-1.388a.529.529,0,0,0-.183-.361A.594.594,0,0,0,294.651,367.957Z" transform="translate(-292.763 -367.124)"/></g><g transform="translate(51.302 0.05)"><path d="M303.884,371.515l-.292-.728h-1.88l-.292.728h-1.358l1.822-4.341h1.552l1.814,4.341Zm-1.851-1.529h1.238l-.618-1.542Z" transform="translate(-300.063 -367.174)"/></g><g transform="translate(61.504 0.062)"><path d="M308.492,367.186h1.276v3.527h1.59v.8h-2.866Z" transform="translate(-308.492 -367.186)"/></g><g transform="translate(69.161)"><path d="M315.6,370.929a2.008,2.008,0,0,1,0-3.179,3.217,3.217,0,0,1,3.814,0,2.019,2.019,0,0,1,0,3.179,3.2,3.2,0,0,1-3.81,0Zm2.911-.684a1.28,1.28,0,0,0,0-1.813,1.663,1.663,0,0,0-2.015,0,1.277,1.277,0,0,0,0,1.813,1.671,1.671,0,0,0,2.015,0Z" transform="translate(-314.818 -367.124)"/></g><g transform="translate(79.736 0.05)"><path d="M326.967,367.174h1.276v4.341h-1.276l-2.135-2.732v2.732h-1.277v-4.341h1.277l2.135,2.731Z" transform="translate(-323.555 -367.174)"/></g></g><g transform="translate(289.98 332.513)"><path class="b" d="M283.315,333.135a11.345,11.345,0,0,1,6.8-.2,13.116,13.116,0,0,1,3.1,1.322c.891.506,1.651,1,2.376,1.392.436.23.856.446,1.266.632s.806.311,1.21.461a12.4,12.4,0,0,0,2.606.488,12.827,12.827,0,0,0,5.283-.736c.08.14-.081.465.231.423,1.235-.228,1.417-.033,1.617.249.048.066-.169.177-.351.268s-.345.14-.149.146c-.888.43-2.542.9-1.483.786a3.422,3.422,0,0,0,1.025-.245,3.049,3.049,0,0,1,1.036-.271c.456.041-.044.565.414.605a13.516,13.516,0,0,0,1.293-.7c.428-.073.015.57.334.372a8.3,8.3,0,0,0,3.13-2.653c.08.041.207.018.276.054s.092.122-.125.442a14.381,14.381,0,0,1-9.2,4.815,16.669,16.669,0,0,1-5.622-.135,14.076,14.076,0,0,1-2.726-.821,15.368,15.368,0,0,1-2.36-1.218,26.147,26.147,0,0,0-3.568-2.064,7.658,7.658,0,0,0-3.373-.517,7.05,7.05,0,0,0-3.178.977,5.845,5.845,0,0,0-2.158,2.214c-.426.787-.592.1-.453-.675-.039.253-.3.154-.328.416-.247-.068-.52-.74.2-1.707a7.032,7.032,0,0,0-.543.7c-.242.208-.247-.109-.408-.188.173-.256.369-.5.294-.542l-.31-.172a7.419,7.419,0,0,0-.73,1.077c.154-.282.339-.55.257-.589l-.327-.151a8.441,8.441,0,0,1,1.667-1.8l-.2-.165a6.448,6.448,0,0,0-1.715,1.85c.119-.33.05-.368-.113-.45a15.127,15.127,0,0,1,2.461-2.362,9.529,9.529,0,0,0-.96.686,2.88,2.88,0,0,1,1.392-1.178A17.521,17.521,0,0,1,283.315,333.135Z" transform="translate(-278.315 -332.513)"/></g><g transform="translate(289.98 379.979)"><path class="b" d="M283.315,380.6a11.352,11.352,0,0,1,6.8-.2,13.158,13.158,0,0,1,3.1,1.322c.891.506,1.651,1,2.376,1.392.436.23.856.446,1.266.632s.806.311,1.21.461a12.333,12.333,0,0,0,2.606.488,12.827,12.827,0,0,0,5.283-.735c.08.139-.081.465.231.422,1.235-.228,1.417-.033,1.617.249.048.066-.169.177-.351.269-.191.077-.345.139-.149.145-.888.431-2.542.9-1.483.786a3.414,3.414,0,0,0,1.025-.244,3.032,3.032,0,0,1,1.036-.272c.456.042-.044.565.414.6a13.509,13.509,0,0,0,1.293-.7c.428-.072.015.571.334.372a8.292,8.292,0,0,0,3.13-2.653c.08.041.207.019.276.054s.092.123-.125.442a14.387,14.387,0,0,1-9.2,4.816,16.669,16.669,0,0,1-5.622-.136,14.076,14.076,0,0,1-2.726-.821,15.279,15.279,0,0,1-2.36-1.218,26.253,26.253,0,0,0-3.568-2.064,7.657,7.657,0,0,0-3.373-.516,7.025,7.025,0,0,0-3.178.977,5.831,5.831,0,0,0-2.158,2.214c-.426.786-.592.1-.453-.675-.039.253-.3.154-.328.415-.247-.068-.52-.74.2-1.706a6.809,6.809,0,0,0-.543.7c-.242.208-.247-.11-.408-.189.173-.256.369-.5.294-.542l-.31-.172a7.472,7.472,0,0,0-.73,1.077c.154-.282.339-.55.257-.589l-.327-.15a8.469,8.469,0,0,1,1.667-1.8l-.2-.165a6.438,6.438,0,0,0-1.715,1.851c.119-.33.05-.369-.113-.451a15.212,15.212,0,0,1,2.461-2.362,9.855,9.855,0,0,0-.96.686,2.88,2.88,0,0,1,1.392-1.178A17.689,17.689,0,0,1,283.315,380.6Z" transform="translate(-278.315 -379.979)"/></g><rect class="c" width="250" height="149" transform="translate(182.866 286.513)"/></g></svg>