<svg id="Group_5" data-name="Group 5" xmlns="http://www.w3.org/2000/svg" width="39.665" height="37.949" viewBox="0 0 39.665 37.949">
  <g id="Group_1" data-name="Group 1" transform="translate(0 19.98)">
    <path id="Path_2" data-name="Path 2" d="M356.549,256.32s5.308-1.189,7.992,1.165a16.833,16.833,0,0,1,2.427,8.2v.074c.122,2.267.024,4.081.024,4.081h-7.244s1.3-6.006-.4-10.223A6.155,6.155,0,0,0,356.549,256.32Z" transform="translate(-349.403 -251.871)" fill="#002e7f"/>
    <path id="Path_3" data-name="Path 3" d="M330.409,248.836v-7.71s9.25-2.13,15.138,5.332c1.462,1.852,2.206,4.645,2.427,8.2v.074a12.181,12.181,0,0,0-7.624-6.141A18.271,18.271,0,0,0,330.409,248.836Z" transform="translate(-330.409 -240.845)" fill="#0064b0"/>
  </g>
  <g id="Group_2" data-name="Group 2" transform="translate(22.039 0)">
    <path id="Path_4" data-name="Path 4" d="M421.506,181.278s-5.307,1.189-7.992-1.164a16.834,16.834,0,0,1-2.427-8.2v-.074c-.123-2.268-.025-4.082-.025-4.082h7.244s-1.3,6.006.4,10.223A6.154,6.154,0,0,0,421.506,181.278Z" transform="translate(-411.026 -167.758)" fill="#002e7f"/>
    <path id="Path_5" data-name="Path 5" d="M428.817,188.585v7.71s-9.25,2.13-15.138-5.332c-1.461-1.852-2.206-4.645-2.427-8.2v-.074a12.18,12.18,0,0,0,7.624,6.141A18.268,18.268,0,0,0,428.817,188.585Z" transform="translate(-411.19 -178.607)" fill="#0064b0"/>
  </g>
  <g id="Group_3" data-name="Group 3" transform="translate(21.348 20.727)">
    <path id="Path_6" data-name="Path 6" d="M438.44,243.583V251.2s-5.826-1.837-10.006-.82c-.306.074-.6.685-.878.783-1.41.5-1.912,1.875-2.635,3.236,0,0-1.189-5.307,1.164-7.992a16.758,16.758,0,0,1,8.2-2.77h.074c.331-.024.638-.037.944-.049a1.8,1.8,0,0,1,.257-.012Z" transform="translate(-420.213 -243.577)" fill="#0063b0"/>
    <path id="Path_7" data-name="Path 7" d="M423.6,243.577l-.012.012a13.744,13.744,0,0,0-6.852,7.318c-.086.233-.159.466-.233.7-.735,2.525-.772,5.087-.135,9.193h-7.71s-.012-.061-.025-.2a19.875,19.875,0,0,1,1.152-9.4l.074-.184a11.515,11.515,0,0,1,.8-1.544,10.9,10.9,0,0,1,1.128-1.569,11.137,11.137,0,0,1,2.3-2.01,14.135,14.135,0,0,1,2.268-1.214c.024-.012.049-.012.074-.024A20.444,20.444,0,0,1,423.6,243.577Z" transform="translate(-408.499 -243.577)" fill="#009bdb"/>
  </g>
  <g id="Group_4" data-name="Group 4" transform="translate(0.09 0)">
    <path id="Path_8" data-name="Path 8" d="M330.738,201.98v-7.618s5.826,1.837,10.006.82c.306-.074.6-.685.879-.783,1.409-.5,1.912-1.875,2.635-3.236,0,0,1.189,5.307-1.165,7.992a16.757,16.757,0,0,1-8.2,2.77h-.074c-.331.024-.637.037-.944.049a1.806,1.806,0,0,1-.258.012Z" transform="translate(-330.738 -184.765)" fill="#0063b0"/>
    <path id="Path_9" data-name="Path 9" d="M342.172,184.98l.012-.012a13.746,13.746,0,0,0,6.852-7.318c.086-.233.159-.466.233-.7.735-2.525.772-5.087.135-9.193h7.71s.012.061.025.2a19.871,19.871,0,0,1-1.152,9.4l-.074.184a11.512,11.512,0,0,1-.8,1.544,10.922,10.922,0,0,1-1.128,1.569,11.139,11.139,0,0,1-2.3,2.01,14.135,14.135,0,0,1-2.267,1.214c-.025.012-.049.012-.074.024A20.446,20.446,0,0,1,342.172,184.98Z" transform="translate(-339.046 -167.758)" fill="#009bdb"/>
  </g>
</svg>
