<svg xmlns="http://www.w3.org/2000/svg" width="251.678" height="150" viewBox="0 0 251.678 150"><defs><style>.a{fill:#8b8b8b;}.b{fill:none;}</style></defs><g transform="translate(-198.851 -559.519)"><g transform="translate(283.211 648.616)"><g transform="translate(0 0.532)"><path d="M270.057,639.5a3.509,3.509,0,0,1-2.3-1.439,3.227,3.227,0,0,1-.522-2.641,3.311,3.311,0,0,1,1.5-2.223,3.533,3.533,0,0,1,2.629-.488,3.742,3.742,0,0,1,1.789.825,3.038,3.038,0,0,1,.986,1.625c-.362-.059-.724-.119-1.086-.181a2.184,2.184,0,0,0-1.832-1.488,2.566,2.566,0,0,0-1.961.371,2.616,2.616,0,0,0-1.1,1.753,2.569,2.569,0,0,0,.356,2.048,2.541,2.541,0,0,0,1.706,1.073,2.571,2.571,0,0,0,1.884-.281,2.449,2.449,0,0,0,1.054-1.49q-1.429-.24-2.854-.505l.129-.694q1.894.354,3.8.659c-.038.233-.075.466-.113.7a3.2,3.2,0,0,1-1.47,1.961A3.584,3.584,0,0,1,270.057,639.5Z" transform="translate(-267.153 -632.638)"/></g><g transform="translate(12.57 2.358)"><path d="M280.625,640.846q-.21-.764-.415-1.532-1.563-.146-3.124-.323c-.239.472-.479.945-.721,1.415l-.949-.113q1.7-3.211,3.294-6.456.491.052.983.1.892,3.5,1.9,6.99Zm-3.2-2.527q1.292.144,2.587.268-.482-1.808-.934-3.617Q278.266,636.65,277.426,638.319Z" transform="translate(-275.415 -633.838)"/></g><g transform="translate(25.23 3.083)"><path d="M284.778,638.334l-.106,2.8q-.468-.018-.936-.038l.3-6.781q1.107.048,2.215.081a2.556,2.556,0,0,1,1.748.6,1.8,1.8,0,0,1,.587,1.375,2.009,2.009,0,0,1-.472,1.341,2.089,2.089,0,0,1-1.374.647q.929,1.445,1.891,2.877c-.391,0-.782-.012-1.173-.02q-.906-1.42-1.78-2.85Zm.123-3.27q-.048,1.283-.1,2.565.673.025,1.348.046a1.59,1.59,0,0,0,1.127-.31,1.212,1.212,0,0,0,.385-.937c.017-.855-.462-1.292-1.438-1.319C285.785,635.1,285.343,635.081,284.9,635.064Z" transform="translate(-283.736 -634.314)"/></g><g transform="translate(36.655 3.088)"><path d="M293.4,634.323a3.7,3.7,0,0,1,2.663.788,3.337,3.337,0,0,1,1.123,2.442,3.121,3.121,0,0,1-.831,2.529,3.846,3.846,0,0,1-2.67,1.022q-1.125.048-2.25.079-.094-3.391-.19-6.784Q292.324,634.367,293.4,634.323Zm-1.053,6.147q.655-.023,1.308-.05a2.732,2.732,0,0,0,2.008-.8,2.648,2.648,0,0,0,.586-2.005,2.721,2.721,0,0,0-.8-1.926,2.682,2.682,0,0,0-2.016-.609c-.421.018-.844.034-1.266.049Q292.258,637.8,292.348,640.47Z" transform="translate(-291.245 -634.317)"/></g><g transform="translate(48.543 1.958)"><path d="M302.655,633.575l.09.7q-1.356.174-2.716.326.128,1.148.256,2.3,1.228-.137,2.457-.292l.087.689q-1.232.157-2.468.294l.262,2.355q1.406-.155,2.809-.336l.091.7q-1.876.24-3.754.438-.356-3.376-.711-6.751Q300.859,633.808,302.655,633.575Z" transform="translate(-299.058 -633.575)"/></g><g transform="translate(58.499)"><path d="M310.046,632.468l.882-.18q.687,3.323,1.375,6.646-.459.1-.92.189-2.385-2.269-4.651-4.6.468,2.652.939,5.305-.463.082-.927.16-.571-3.344-1.143-6.69.443-.075.886-.154,2.253,2.337,4.621,4.609Q310.577,635.108,310.046,632.468Z" transform="translate(-305.602 -632.288)"/></g></g><g transform="translate(299.743 661.219)"><g transform="translate(0 0.177)"><path d="M278.019,646.17c.049-.336.1-.674.145-1.01q.251-.158.706-.437c.3-.186.536-.33.7-.437s.359-.24.581-.4a3.965,3.965,0,0,0,.505-.427,1.607,1.607,0,0,0,.493-.855c.052-.452-.123-.7-.529-.75a.579.579,0,0,0-.487.145.9.9,0,0,0-.246.563q-.673-.087-1.345-.182a1.844,1.844,0,0,1,.764-1.365,2.206,2.206,0,0,1,1.529-.3,1.942,1.942,0,0,1,1.356.679,1.73,1.73,0,0,1,.379,1.3,1.844,1.844,0,0,1-.348.939c-.116.149-.216.277-.3.38a2.65,2.65,0,0,1-.4.374c-.184.146-.321.253-.406.318s-.245.177-.475.332-.377.257-.44.3q1.089.135,2.177.247l-.114,1.111Q280.138,646.471,278.019,646.17Z" transform="translate(-278.019 -640.688)"/></g><g transform="translate(9.385 0.96)"><path d="M285.562,641.377a2.772,2.772,0,0,1,2.124.079,1.735,1.735,0,0,1,.7.636,2.964,2.964,0,0,1,.365.919,4.9,4.9,0,0,1,.105,1.153,4.847,4.847,0,0,1-.145,1.15,2.853,2.853,0,0,1-.412.9,1.736,1.736,0,0,1-.756.6,2.594,2.594,0,0,1-1.124.18,2.567,2.567,0,0,1-1.106-.263,1.742,1.742,0,0,1-.709-.656,2.785,2.785,0,0,1-.344-.931,4.854,4.854,0,0,1-.058-1.156,4.957,4.957,0,0,1,.19-1.144,2.948,2.948,0,0,1,.435-.889A1.728,1.728,0,0,1,285.562,641.377Zm1.432,1.219a.891.891,0,0,0-.409-.107.869.869,0,0,0-.417.076.726.726,0,0,0-.278.218,1.1,1.1,0,0,0-.167.354,2.417,2.417,0,0,0-.094.429c-.018.138-.03.3-.04.5s-.011.356-.006.5a2.48,2.48,0,0,0,.055.437,1.121,1.121,0,0,0,.138.368.728.728,0,0,0,.268.24,1.005,1.005,0,0,0,.847.032.742.742,0,0,0,.285-.221,1.111,1.111,0,0,0,.166-.356,2.579,2.579,0,0,0,.088-.43c.014-.14.026-.3.03-.5s0-.359,0-.5a2.665,2.665,0,0,0-.061-.435,1.169,1.169,0,0,0-.141-.365A.741.741,0,0,0,286.994,642.6Z" transform="translate(-284.187 -641.202)"/></g><g transform="translate(18.827 1.023)"><path d="M291.58,647l-.164-4.421q-.493.018-.987.032c-.012-.424-.024-.85-.035-1.275q1.2-.034,2.4-.094l.288,5.692C292.584,646.962,292.082,646.983,291.58,647Z" transform="translate(-290.393 -641.244)"/></g><g transform="translate(26.821)"><path d="M295.655,642.422a1.476,1.476,0,0,1,.417-1.182,2.252,2.252,0,0,1,1.447-.642,2.225,2.225,0,0,1,1.556.281,1.492,1.492,0,0,1,.685,1.053,1.337,1.337,0,0,1-.589,1.345,1.506,1.506,0,0,1,1.115,1.313,1.6,1.6,0,0,1-.458,1.421,2.854,2.854,0,0,1-3.25.391,1.6,1.6,0,0,1-.79-1.266,1.512,1.512,0,0,1,.768-1.543A1.336,1.336,0,0,1,295.655,642.422Zm3.191,2.282a.768.768,0,0,0-.283-.53.814.814,0,0,0-.63-.141.931.931,0,0,0-.6.283.72.72,0,0,0-.173.589.773.773,0,0,0,.3.552.875.875,0,0,0,.663.148.762.762,0,0,0,.73-.9Zm-.409-2.4a.652.652,0,0,0-.254-.47.7.7,0,0,0-.52-.122.736.736,0,0,0-.484.243.662.662,0,0,0-.141.522.649.649,0,0,0,.263.478.749.749,0,0,0,1-.125A.654.654,0,0,0,298.436,642.305Z" transform="translate(-295.647 -640.571)"/></g></g><g transform="translate(237.106 601.8)"><g transform="translate(0 0.858)"><path class="a" d="M259.879,608.114a6.692,6.692,0,0,1-.3-.815c-.126-.377-.25-.732-.374-1.085-.189-.539-.377-1.074-.577-1.7a3.188,3.188,0,0,0-1.949-2.355,7.931,7.931,0,0,0-2.541.049,22.619,22.619,0,0,0-9.365,4.469,18.584,18.584,0,0,0-4.674,5.654,11.686,11.686,0,0,0-1.493,5.97,8.71,8.71,0,0,0,2.367,6.057l.03.03a5.914,5.914,0,0,0,1.871,1.251l.087.015c.52,0,.873.131.943.336.277.819-1.722,3.463-2.9,5.05a22.319,22.319,0,0,0-1.932,2.863,19.7,19.7,0,0,0-2.206,8.644c-.158,3.84.723,6.912,2.545,9.123.061.087.135.175.216.272a3.03,3.03,0,0,1,.456.671l.078.117a6.317,6.317,0,0,0,4.376,2.136,6.059,6.059,0,0,0,1.092-.068,8.15,8.15,0,0,0,2.74-.988l.068-.053c.246-.265.443-.373.578-.362.323.108.575-.143.758-.329.078-.078.181-.184.23-.19h0l.05-.006.046-.03c.358-.23.708-.412,1.059-.6s.7-.361,1.012-.563a8.722,8.722,0,0,0,1.441-.811c.227-.146.461-.3.7-.437a10.71,10.71,0,0,0,1.821-1.108,21.644,21.644,0,0,0,3.113-3.273,9.6,9.6,0,0,0,1.526-2.594,1.94,1.94,0,0,1,.61-.63l.263-.161-.117-.373a6.228,6.228,0,0,0-1.351-2.434c-.149-.254-.333-.526-.6-.545-.28-.012-.494.265-.72.613a10.529,10.529,0,0,1-2.669,2.36l-1.36.691c-.7.356-1.412.723-2.122,1.1-.875.561-1.811,1.082-2.714,1.588-.729.408-1.453.815-2.122,1.237a19.618,19.618,0,0,1-3.722,1.418,2.539,2.539,0,0,1-1.811-.18c-.453-.271-.885-1.925-.867-2.693.131-6.042,7.349-16.7,10.387-19.67a6.711,6.711,0,0,0,1.272-1.861,5.873,5.873,0,0,1,1.2-2.034l.143-.151-.032-.242-.05-.268c-.256-.694-.586-.99-1.167-1.021a4.825,4.825,0,0,0-2.533.806,17.522,17.522,0,0,1-4.464,1.576c-2.535.787-2.839.333-2.841.332s-.091-.592,1.66-2.415c3.034-3.165,7.81-6.145,8.44-5.666l.138.225.211-.07a8.644,8.644,0,0,1,2.389-.473c1.318-.1,2.477-1,3.394-2.7a4.152,4.152,0,0,0,.449-3.236C260,608.413,259.94,608.259,259.879,608.114Z" transform="translate(-236.851 -602.082)"/></g><g transform="translate(24.299 5.438)"><path class="a" d="M300.9,612.08a.9.9,0,0,1,.059-.111.935.935,0,0,0,.163-.539,2.627,2.627,0,0,1,.338-.84c.113-.186.225-.365.335-.539.079-.125.158-.25.233-.371l-.131.548c-.03.155-.056.31-.081.469a6.691,6.691,0,0,1-.181.885,7.107,7.107,0,0,0-.073,3.25,2.143,2.143,0,0,0,1.375,1.672,4.155,4.155,0,0,0,.441.161,2.664,2.664,0,0,1,.549.224.536.536,0,0,0,.7-.006.991.991,0,0,1,.339-.173,1.061,1.061,0,0,0,.774-.358.578.578,0,0,0,.143-.1l.081-.078v-.015a1.078,1.078,0,0,0,.09-.073l.132-.128a.9.9,0,0,0,.429-.481c.038-.065.093-.172.093-.177a.866.866,0,0,0,.377-.657l.011-.116-.062-.093c-.053-.079-.248-.323-.467-.318a.587.587,0,0,0-.441.3,3.459,3.459,0,0,1-.631.558l-.076.088a.4.4,0,0,1-.064.07,1.2,1.2,0,0,0-.1.108c-.032,0-.076-.006-.108-.009a1.02,1.02,0,0,0-.18-.012.6.6,0,0,0-.079-.111c.041-.284.056-.565.07-.838.009-.158.017-.318.03-.476s.035-.347.053-.523a10.342,10.342,0,0,0,.087-1.69c-.02-.426-.058-.852-.094-1.267-.027-.326-.056-.647-.076-.907l.026-.289-.024-.067c-.23-.631-.6-1.356-1.442-1.354H303.5c-.161,0-.323.02-.491.037s-.339.035-.561.043a1.7,1.7,0,0,0-1.079.808,11.989,11.989,0,0,1-.948,1.386,16.72,16.72,0,0,1-.949,1.48l-.04.058a50.259,50.259,0,0,0-2.742,5.512v.006a4.95,4.95,0,0,1-1.523,1.882,3.086,3.086,0,0,1,.175-.724,20.144,20.144,0,0,1,1.359-3.078,26.521,26.521,0,0,0,1.458-3.212c.143-.494.21-.549.269-.6.151-.123.271-.256.443-.822a3.157,3.157,0,0,0-.143-2.848c-.148-.19-.3-.365-.441-.537a5.625,5.625,0,0,1-.85-1.193l-.067-.09a1.954,1.954,0,0,0-1.162-.549,6.058,6.058,0,0,0-1.339-.143c-.676-.093-1,.146-1.26.913-.441.844-.79,1.7-1.158,2.6l-.1.246a2.886,2.886,0,0,1-.175.417,2.4,2.4,0,0,0-.23.627,11.471,11.471,0,0,0-.8,2.739c-.055.316-.125.715-.234,1.269a7.92,7.92,0,0,0-.342,1.468c-.052.079-.1.158-.142.234a16.591,16.591,0,0,1-1.575,2.024c-.151.2-.3.38-.452.565-.163.2-.327.4-.479.6l-.137.158c-.374.362-.738.735-1.1,1.1-.475.485-.963.991-1.455,1.449a12.434,12.434,0,0,1-3.359,2.383,14.553,14.553,0,0,1-1.861.525h-.035c-.642.035-1.418-.682-2.046-1.257l-.117-.1a6.788,6.788,0,0,1-.329-.691,6.157,6.157,0,0,0-.39-.8,2.187,2.187,0,0,1-.19-.8,7.812,7.812,0,0,0-.085-1.124l-.017-.284-.158.024.023-.227.269-.043.227-.09-.011-.4-.094-.084a.338.338,0,0,0-.038-.03.692.692,0,0,0,.312-.522l.058-.133a.692.692,0,0,0,.3-.54,1,1,0,0,1,.105-.388c.027-.069.055-.135.079-.208.173.271.326.57.475.863l.137.26a1.147,1.147,0,0,0,.053.126.169.169,0,0,1,.014.12l-.024.132a.8.8,0,0,0,.2.481l.079.049a1.152,1.152,0,0,1,.251.174,1.094,1.094,0,0,0,.709.326h.008a.506.506,0,0,0,.423.178.671.671,0,0,1,.123.011,1.8,1.8,0,0,0,1.065-.314,2.09,2.09,0,0,0,1.045-1.063l.116-.231a4.817,4.817,0,0,0,.408-.962,6.376,6.376,0,0,1,.415-.918c.044-.084.087-.169.131-.252a7.175,7.175,0,0,0,.812-2.294,5.259,5.259,0,0,0,.015-2.084l-.032-.116a1.162,1.162,0,0,0-.283-.542,2.639,2.639,0,0,1-.586-.852c-.058-.11-.116-.221-.175-.324a1.372,1.372,0,0,0-.473-.609,8.849,8.849,0,0,0-1.861-.5c-.469-.1-.911-.186-1.143-.259l-.039-.064a.777.777,0,0,0-.262-.3.537.537,0,0,0-.335-.119.406.406,0,0,1-.129-.024c-.321-.424-.823-.146-1.029-.027a2.253,2.253,0,0,1-.291.2c-.067.041-.135.084-.231.148a14.037,14.037,0,0,0-2.374,2.469,17.044,17.044,0,0,0-1.881,2.86,19.186,19.186,0,0,0-1.357,3.078c-.027.082-.058.161-.087.24a2.708,2.708,0,0,0-.236,1.141l.052,1.118c.145-.333.291-.668.437-1l.009-.023c-.107.431-.184.855-.246,1.278a1.767,1.767,0,0,1-.54.507,3.7,3.7,0,0,0-.744.417,5.182,5.182,0,0,1-.5.309c-.511.216-.9-.163-1.391-.718a3.206,3.206,0,0,0-.453-.455l-.072-.144a11.378,11.378,0,0,1-1.21-3.516,1.8,1.8,0,0,0-.1-.2l-.024-.1a.589.589,0,0,0-.425-.4l-.091-.018a.757.757,0,0,0-.513.017l-.056.012a.52.52,0,0,0-.225-.125,4.373,4.373,0,0,0-1.517-.05c-.464.227-.618.333-.514.9a5.069,5.069,0,0,1,.084.616l.032.126a11.443,11.443,0,0,1,.406,1.346c-.111.568-.186.642-.289.746a2.264,2.264,0,0,0-.566,1.141,5.871,5.871,0,0,0-.431,1.371,6.848,6.848,0,0,1-.638,1.744q-.329.666-.656,1.331a29.469,29.469,0,0,1-1.509,2.967c-.1.18-.2.358-.3.536v0l-.014-.015a.4.4,0,0,1,.041-.122l.111-.236-.151-.116-.044-.11a.458.458,0,0,1-.049-.108c-.011-.03-.024-.064-.04-.1a2.924,2.924,0,0,0-.192-.85c-.018-.1-.055-.16-.064-.148l-.078-.714c-.155.236-.312.47-.467.706l-.046.123c-.014.09-.026.18-.038.268q-.032-.123-.068-.237c-.061-.3-.105-.615-.145-.93l.076.183.5.055.059-.228a1.837,1.837,0,0,0,.073-.959,4.706,4.706,0,0,1-.167-1.188c-.055-.54-.113-1.1-.215-1.613l-.046-.443a6.8,6.8,0,0,0-.409-2c-.011-.07-.027-.151-.046-.24a3.521,3.521,0,0,1-.073-.423l-.05-.284a3.9,3.9,0,0,0-.473-1.525.616.616,0,0,1-.052-.491.99.99,0,0,0,.368-.073l.254-.062-.056-.286a1.7,1.7,0,0,0-.526-.895,2.146,2.146,0,0,1-.262-.307l-.088-.087c-.091-.053-.186-.1-.28-.155a2.283,2.283,0,0,1-.764-.558l-.11-.129a.691.691,0,0,0-.51-.142c-.059.015-.1.023-.12.027a1.411,1.411,0,0,0-.187-.193,1.212,1.212,0,0,1-.225-.186l-.07-.073a.634.634,0,0,0-.846.061l-.055.082a1.343,1.343,0,0,0-.113.426c0,.036-.009.076-.023.176a2.855,2.855,0,0,0,.014.385c.008.062.015.138.026.329a5.409,5.409,0,0,0-.052,1.257c0,.128.009.254.011.353a24.769,24.769,0,0,1-.272,2.617c-.113.876-.184,1.742-.259,2.658-.053.651-.108,1.313-.176,1.995-.03.343-.049.669-.068.991-.023.376-.044.743-.081,1.114-.046.463-.062.943-.079,1.41-.017.484-.033.942-.081,1.4,0,.119,0,.236-.009.358a4.621,4.621,0,0,0,.015.851,3.568,3.568,0,0,0,1.165,2.154,6.514,6.514,0,0,0,.656.358,7.185,7.185,0,0,1,1.365.811,1.266,1.266,0,0,0,.8.654,1.176,1.176,0,0,0,.394.024,1.557,1.557,0,0,0,.813-.354l.138-.061c.265-.114.493-.215.624-.257a2.114,2.114,0,0,0,.595-.09,1.062,1.062,0,0,0,.686-.571,4.828,4.828,0,0,0,1.117-2.252,5.982,5.982,0,0,1,.609-1.41c.023-.07.049-.138.073-.207a1.652,1.652,0,0,0,.146-.951c0-.023.008-.055.011-.088.008-.052.012-.1.015-.143a6.561,6.561,0,0,1,.511-1.436,4.439,4.439,0,0,0,.761-1.664c.027-.047.052-.1.076-.148a.685.685,0,0,1,.123-.2l.059-.088c.268-.612.46-1.2.647-1.774.116-.359.231-.712.365-1.067s.2-.6.248-.786a3.56,3.56,0,0,1,.192-.548c.132.183.251.335.368.482a10.23,10.23,0,0,1,.7.987l.062.07c.033.026.131.1.256.187.2.138.654.469.7.516l.061.073a6.6,6.6,0,0,0,.694.4v.072l.207.03a1.83,1.83,0,0,1,.184.073c.776.318,1.547.563,1.989.219a9.217,9.217,0,0,0,1.374-.679l0,.021a8.219,8.219,0,0,0,.484,2.311,2.707,2.707,0,0,0,.841,1.137,6.092,6.092,0,0,1,.6.54,4.98,4.98,0,0,0,2.451,1.461,20.409,20.409,0,0,0,3.712.2,3.239,3.239,0,0,0,.651-.084,8.117,8.117,0,0,0,1.824-.644l.411-.208a5.7,5.7,0,0,0,1.663-.951,9.753,9.753,0,0,1,.9-.659c.094-.088.189-.163.283-.237s.211-.169.3-.251a4.8,4.8,0,0,0,.508-.473c.07-.073.143-.148.253-.254A15.494,15.494,0,0,0,288,621.741a8.247,8.247,0,0,1,.858-.992,3.9,3.9,0,0,0,.555-.752l.169-.3-.2-.09.021-.027a1.083,1.083,0,0,0,.263-.522l.079-.453c.07-.093.143-.19.221-.309a4.441,4.441,0,0,1,.289-.5c-.094,1.088-.164,2.185-.24,3.458a17.878,17.878,0,0,0,.085,2.88c.212,1.31.694,2.039,1.47,2.226.172.157.327.195.466.119a3.227,3.227,0,0,0,.654.062,1.834,1.834,0,0,0,1.563-.966.868.868,0,0,1,.088-.081.632.632,0,0,0,.221-.268,28.975,28.975,0,0,0,1.8-3.346c.064-.167.137-.333.208-.5a8.161,8.161,0,0,0,.313-.793,18.643,18.643,0,0,1,.984-2.235c.192-.388.385-.777.568-1.179.141-.31.292-.6.44-.893.216-.424.441-.864.634-1.345A17.927,17.927,0,0,1,300.9,612.08Zm-24.624,8.313h0v0Zm0-.079Zm5.506-7.466a7.922,7.922,0,0,1-.443,1.1c-.122.262-.259.557-.411.978a1.836,1.836,0,0,1-.659.844c-.423.113-.692.17-.87-.018a1.166,1.166,0,0,0-.456-.341l-.113-.059c-.03-.015-.067-.038-.076-.067s-.023-.1.09-.336a4.508,4.508,0,0,1,.262-.49l.068-.119c.12-.175.236-.356.353-.539a6.681,6.681,0,0,1,1.045-1.356c.507-.495,1.205-.781,1.375-.638C282,611.864,282.049,612.141,281.78,612.848Z" transform="translate(-252.821 -605.092)"/></g><g transform="translate(70.553)"><path class="a" d="M383.387,637.7l.423-.811-.539.174-.041-.043-.167.125a4.659,4.659,0,0,1-.5.318c-.606.365-1.085.642-1.61.9-1.506.709-2.722,1.246-3.935,1.736-.227.079-.452.16-.677.24-6.736,2.446-8.411,2.583-8.677,2.2-.023-.033,0-.14.047-.242.215-.364,1.657-1.938,2.719-3.083.8-.86,1.487-1.6,1.718-1.887a25.921,25.921,0,0,1,3.2-3.095c.087-.087.178-.166.271-.245a2.526,2.526,0,0,0,.712-.822,11.756,11.756,0,0,1,1.079-.878l.163-.125a1.134,1.134,0,0,0,.669-.531,2.672,2.672,0,0,0,.543-1.547,2.191,2.191,0,0,0-.251-1.3.655.655,0,0,0-.911-.145,1.682,1.682,0,0,0-.8.426l-.059.052c-.151.084-.3.169-.446.254a10.154,10.154,0,0,1-1.389.709l-.062.033a5.683,5.683,0,0,0-.8.686,3.757,3.757,0,0,1-.825.61,50.241,50.241,0,0,1-6.313,2.364c-4.059,1.284-5.394,1.258-5.538,1.061,0-.052.035-.593,2.684-2.5a7.018,7.018,0,0,0,.624-.449,4.154,4.154,0,0,1,.438-.313c.265-.211.546-.4.82-.58a6.649,6.649,0,0,0,1.161-.888l.415-.339c.495-.4,1.006-.812,1.362-1.167a6.342,6.342,0,0,0,.791-.613,4.279,4.279,0,0,1,.522-.408l.055-.044a3.034,3.034,0,0,0,.921-1.628,3.179,3.179,0,0,0-.16-2.594c0-.02,0-.043,0-.067a2.123,2.123,0,0,0-.034-.313,4.613,4.613,0,0,0-.233-.694l-.254-.382a5.935,5.935,0,0,1-.975-1.669l-.009-.079-.043-.062c-.055-.081-.117-.18-.178-.277s-.12-.189-.173-.266l-.1-.154-.169.052a3.436,3.436,0,0,0-.866.4,10.309,10.309,0,0,0-1.62,1.2,7.7,7.7,0,0,0-1.651,1.573,11.624,11.624,0,0,1-.98,1.038l-.082.113a5.322,5.322,0,0,1-.92,1.161,5.857,5.857,0,0,0-.554.642,16.791,16.791,0,0,1-1.185,1.652,13.581,13.581,0,0,0-.846,1.176l-.009,0a.51.51,0,0,0-.164.044,14.735,14.735,0,0,0-1.774,1.126,16.068,16.068,0,0,1-1.607,1.042c-.161.081-.327.143-.495.207a4.485,4.485,0,0,0-.5.213c-.45.114-.843.2-1.229.281l-.082.018a5.916,5.916,0,0,1-.806.154l-.254.04a3.808,3.808,0,0,1-1.012-.067.234.234,0,0,1-.164-.149,6.758,6.758,0,0,1,.014-1.3,1.909,1.909,0,0,1,.438-.855c.411-.38.843-.811,1.207-1.2l.053-.049a.663.663,0,0,0,.216-.313,3.086,3.086,0,0,0,.078-1.824c-.061-.135-.123-.269-.176-.379a1.358,1.358,0,0,0-1.149-.872l-.113-.023-.09.079c-.5.443-.986.844-1.465,1.245l-.184.154a10.959,10.959,0,0,1-1.181.829,3.644,3.644,0,0,0-.607.379,3.217,3.217,0,0,1-.951.595,15,15,0,0,0-1.636.75,6.345,6.345,0,0,1,.747-.875,1.006,1.006,0,0,1,.263-.218l.146-.108c.195-.143.415-.306.59-.464.149-.114.3-.23.443-.344a12.973,12.973,0,0,1,1.267-.911,8.869,8.869,0,0,0,.863-.5,8.252,8.252,0,0,1,1.546-.867c.225-.106.45-.212.669-.323l.082-.072a6.508,6.508,0,0,1,1.415-.37,1.185,1.185,0,0,0,1.044-1.146c0-.088,0-.164,0-.24s0-.132,0-.275a3.034,3.034,0,0,0-.376-.946c-.056-.1-.114-.213-.164-.32a.649.649,0,0,0-.371-.326.553.553,0,0,1-.2-.167,1.1,1.1,0,0,0-.342-.281.811.811,0,0,0-.472-.464l-.149-.075a.818.818,0,0,1-.205-.167,4.286,4.286,0,0,0-.429-.237,2.077,2.077,0,0,1-.508-.313l-.253-.107a5.378,5.378,0,0,0-1-.19,1.553,1.553,0,0,0-.616-.04,9.344,9.344,0,0,0-2.552,1.053,30.039,30.039,0,0,0-3.174,2.291.654.654,0,0,0-.217.169,9.651,9.651,0,0,0-1.654,1.438c-.2-.263-.437-.533-.727-.533s-.495.263-.744.593a6.4,6.4,0,0,1-.587.7c-.555.543-1.083,1.1-1.61,1.66a39.678,39.678,0,0,1-2.937,2.911,15.554,15.554,0,0,0-1.458,1.96,5.162,5.162,0,0,1-.752.991,8.865,8.865,0,0,0-.952,1.013c-.335.335-.426.476-.418.653-.046.043-.114.107-.221.2a1.174,1.174,0,0,1-.25.172c-.036.021-.072.041-.1.062a2.887,2.887,0,0,0-.426.134,2.273,2.273,0,0,1-1.07.166l-.193-.312a5.271,5.271,0,0,1-.843-1.864l-.035-.1a.663.663,0,0,1-.087-.224l.2.044-.157-.279a.949.949,0,0,0-.012-.662,1.08,1.08,0,0,0-.163-.643,9.449,9.449,0,0,1,.094-2.043,1.848,1.848,0,0,1,.065-.3,1.573,1.573,0,0,0,.072-.761l-.009-.05a.076.076,0,0,0,.009-.021l.333-1.316a2.821,2.821,0,0,0,.3-1.158,1.9,1.9,0,0,1,.11-.446c.018-.058.038-.116.055-.175a.682.682,0,0,0,.24-.5c.035-.119.078-.23.12-.338a2.8,2.8,0,0,0,.173-.565,7.4,7.4,0,0,0,.622-1.188,11.617,11.617,0,0,1,.586-1.225.758.758,0,0,1,.335-.393l.09-.068a1.82,1.82,0,0,0,.335-.592.9.9,0,0,1,.359-.485l.056-.046a6.6,6.6,0,0,0,1.7-1.674,3.582,3.582,0,0,1,.8-.615,2.54,2.54,0,0,0,1.175-.873,3.464,3.464,0,0,1,1.182-1.149,6.008,6.008,0,0,0,1.085-1.249,4.482,4.482,0,0,1,.38-.6l.1-.146c.348-.38.639-.767.91-1.128a7.818,7.818,0,0,1,1.044-1.053,3.068,3.068,0,0,0,.638-.851.487.487,0,0,0,.1-.242,2.722,2.722,0,0,0,.744-1.324c.181-.4.348-.742.511-1.079a5.118,5.118,0,0,0,.449-1.453l.078-.385v-.04a1.225,1.225,0,0,0-.128-.609l-.043-.058a4.217,4.217,0,0,1-.495-.63,3.958,3.958,0,0,0-.561-.692,2.215,2.215,0,0,0-2.381-.546,14.786,14.786,0,0,1-1.614.522c-.082.032-.169.064-.257.1a3.713,3.713,0,0,0-.564.242,19.165,19.165,0,0,1-1.762.892,10.38,10.38,0,0,0-1.771,1.416c-.54.639-1.165,1.322-1.89,2.077-.052.078-.1.152-.142.225a3.053,3.053,0,0,1-.4.549c-.283.434-.621.863-.971,1.312a6.817,6.817,0,0,1-.616.936,3.306,3.306,0,0,0-.248.351,2.383,2.383,0,0,1-.19.274,8.028,8.028,0,0,0-1.066,1.925c-.306.685-.724,1.62-1,1.62-.056,0-.265-.061-.595-.838l-.033-.081-.07-.046c-.078-.05-.161-.107-.248-.167a6.056,6.056,0,0,0-.564-.362l-.078-.046a1.074,1.074,0,0,0-.428-.161c-.079,0-.161,0-.243-.008a1.906,1.906,0,0,0-.785.064,9.322,9.322,0,0,0-4.4,1.845,14.743,14.743,0,0,0-2.482,2.339l.017-.1c-.216.161-.432.324-.65.485l0,.049c-.114.148-.224.266-.354.409-.469.528-.87.968-1.316,1.4-.919.855-2.034,1.878-3.35,2.973l-.578.447c-5.888,4.6-7.477,5.3-7.837,5.03-.032-.024-.038-.135-.02-.248.111-.418,1.088-2.4,1.809-3.843.542-1.086,1.013-2.023,1.159-2.377a28.252,28.252,0,0,1,2.261-4.018c.059-.109.128-.215.195-.321a2.749,2.749,0,0,0,.467-1.022,12.776,12.776,0,0,1,.808-1.2l.123-.17a1.25,1.25,0,0,0,.5-.73,2.71,2.71,0,0,0,.1-1.651,2.059,2.059,0,0,0-.6-1.152c-.354-.189-.567-.152-.924.17a1.823,1.823,0,0,0-.653.669l-.046.072c-.123.131-.242.26-.362.391a10.967,10.967,0,0,1-1.15,1.141l-.05.053a6.1,6.1,0,0,0-.592.922,4.055,4.055,0,0,1-.633.86,55.217,55.217,0,0,1-5.465,4.368c-3.579,2.585-4.873,3.013-5.07,2.872-.015-.05-.125-.577,1.92-3.283.195-.23.345-.444.481-.636a4.738,4.738,0,0,1,.339-.447c.2-.291.421-.563.637-.829a7.29,7.29,0,0,0,.879-1.232l.315-.472c.367-.543.747-1.1.992-1.558a7.149,7.149,0,0,0,.6-.85,4.832,4.832,0,0,1,.391-.563l.041-.059a3.163,3.163,0,0,0,.441-1.856,3.038,3.038,0,0,0-.869-2.413l-.021-.062a2.222,2.222,0,0,0-.12-.286,4.143,4.143,0,0,0-.425-.592l-.347-.271a5.394,5.394,0,0,1-1.4-1.257l-.03-.072-.059-.046c-.07-.055-.154-.123-.236-.193s-.178-.146-.254-.205l-.145-.111-.148.107a3.516,3.516,0,0,0-.672.61l-.053.061a11.514,11.514,0,0,0-1.231,1.687,8.376,8.376,0,0,0-1.155,2.045,12.364,12.364,0,0,1-.662,1.319l-.049.134a5.678,5.678,0,0,1-.569,1.413,6.434,6.434,0,0,0-.359.8,18.056,18.056,0,0,1-.692,1.972,11.316,11.316,0,0,0-.694,2.2c-.058.883-.093.948-.2,1.165a4.433,4.433,0,0,0-.274.625c-.266.647.373,2.066,1.622,4.463.19.365.339.653.406.809a5.793,5.793,0,0,0,2.574,1.986l.056.012.056-.017a18.242,18.242,0,0,0,3.37-1.482c.145-.078.292-.157.42-.221-.256.455-.767,1.258-1.436,2.319-.353.561-.706,1.121-1.057,1.684-.426.645-1.459,2.542-2.232,4a3.977,3.977,0,0,1-1.242,1.173c-1.248.618-2.191.984-3.282,1.41l-.324.128a20.071,20.071,0,0,1-5.339,1.75l-.317.078c-.406.1-.864.213-1.276.356a1.773,1.773,0,0,0-1.07,1.671,6.1,6.1,0,0,0,2.287,3.814,5.8,5.8,0,0,0,3.541,1.374,3.827,3.827,0,0,0,.993-.128h.25a5.172,5.172,0,0,0,2.473-.406,12.492,12.492,0,0,0,2.845-2.048,4.958,4.958,0,0,1,.809-.86,5.992,5.992,0,0,0,.63-.627,4.993,4.993,0,0,0,1.281-1.7,17.052,17.052,0,0,1,1.158-1.737l.078-.12a29.563,29.563,0,0,0,1.8-3.017,1.7,1.7,0,0,1,.841-1.021.816.816,0,0,0,.26-.21c.038-.039.082-.085.108-.114.105-.068.879-.4,1.564-.683a24.549,24.549,0,0,0,3.1-1.4l.056-.064a3.288,3.288,0,0,1,.636-.672,6.406,6.406,0,0,0,1.083-1.243,7.643,7.643,0,0,1,.753-.91c.525-.49.773-.748,1.056-1.045.2-.211.424-.441.767-.776a4.193,4.193,0,0,0,.925-1.029l.148-.175a5.1,5.1,0,0,1,.717-.74c.351-.316.63-.606.93-.913l.257-.272a4.218,4.218,0,0,1,.642-.841c.052-.047.123-.105.2-.167a11.629,11.629,0,0,0-.463,1.763,1.459,1.459,0,0,0-.094.435c-.008.062-.014.128-.026.192l-.009.039.008.145a1.616,1.616,0,0,1-.006.389,3.79,3.79,0,0,0,.035,2.071,4.152,4.152,0,0,0,1.543,2.583,6.844,6.844,0,0,0,1.78,1.038,1.64,1.64,0,0,0,1.561-.169,1.149,1.149,0,0,1,.492-.2l.117-.03a2.748,2.748,0,0,0,2.119-1.768,2.777,2.777,0,0,1,.644-.911,3.654,3.654,0,0,0-.059.575,13.363,13.363,0,0,0-.091,1.529,4.381,4.381,0,0,0-.012.548,1.871,1.871,0,0,1-.059.66,1.322,1.322,0,0,0,.046.983l.046.075v.009a.854.854,0,0,0,.009.085,5.413,5.413,0,0,0,.172,1.541c.032.157.065.31.1.5a7.123,7.123,0,0,0,1.162,2.526c.434.919.625,1.07,1.106,1.363.128.078.28.17.472.306a3.1,3.1,0,0,0,1.3.545l.091.018.079-.058a1.2,1.2,0,0,0,.228-.23l.021-.026a8.04,8.04,0,0,0,.98-.341c.243-.1.493-.195.8-.291.1-.052.218-.1.332-.151a4.306,4.306,0,0,0,.9-.487,5.345,5.345,0,0,0,1.243-.816c.266-.224.545-.5.831-.78a7.365,7.365,0,0,0,.978-1.243,1.127,1.127,0,0,1,.37-.417c.256-.2.484-.411.732-.639.1-.088.2-.176.294-.265v0l.027-.008.109-.029.055-.116c.055-.111.1-.21.142-.3.219-.476.309-.674,1.3-1.512l.808-.624-.126-.24-.055-.1a1.177,1.177,0,0,0,.25-.324,4.354,4.354,0,0,1,1.211-1.013,8.064,8.064,0,0,0,1.044-.752.494.494,0,0,0,.4.014c.257-.107.361-.409.453-.676.071-.207.146-.421.257-.461l.064-.035a1.873,1.873,0,0,0,.367-.349,4.012,4.012,0,0,0,1.459,3.97,4.291,4.291,0,0,1,.587.536,2.772,2.772,0,0,0,2.125.785c.088-.009.173-.014.259-.017a1.85,1.85,0,0,0,1.088-.306l.026.008.072-.029a3.932,3.932,0,0,1,.662-.2,4.813,4.813,0,0,1,1-.3,3.431,3.431,0,0,0,.849,1.115,1,1,0,0,1,.151.178,3.6,3.6,0,0,0,1.094,1.041c.119.084.237.167.355.259.186.061.371.123.557.186a4.374,4.374,0,0,1,.457.055,2.947,2.947,0,0,0,.759.05,3.29,3.29,0,0,1,.736.07c.166.029.338.058.534.076a2.858,2.858,0,0,0,1.207-.219c.155-.079.324-.152.5-.227a6.348,6.348,0,0,0,.889-.444.463.463,0,0,1,.2-.05,1.788,1.788,0,0,0,.949-.49.641.641,0,0,1,.222-.126l.114-.05c.093-.046.18-.1.266-.154a22.992,22.992,0,0,0,.555,3.805c.082.412.146.735.167.908a6.39,6.39,0,0,0,1.9,2.759l.05.03.056,0a16.858,16.858,0,0,0,3.563-.3c.157-.027.316-.053.455-.073-.361.351-1.056.951-1.966,1.744q-.719.63-1.435,1.26c-.452.379-1.523,1.42-3.149,3.093a3.531,3.531,0,0,1-1.476.709c-1.316.173-2.287.21-3.41.256l-.389.017a19.05,19.05,0,0,1-5.494-.108l-.33-.032c-.4-.04-.864-.085-1.289-.087a1.6,1.6,0,0,0-1.442,1.245,6.669,6.669,0,0,0,1.187,4.423,5.674,5.674,0,0,0,3.965,2.713l.228.081a8.567,8.567,0,0,0,1.585.446,2.533,2.533,0,0,0,.858-.006,11.126,11.126,0,0,0,3.206-1.015,4.391,4.391,0,0,1,.983-.554,5.3,5.3,0,0,0,.753-.391,4.427,4.427,0,0,0,1.643-1.206,15.348,15.348,0,0,1,1.54-1.281l.07-.059a27.517,27.517,0,0,0,2.5-2.325,1.512,1.512,0,0,1,1.057-.7.748.748,0,0,0,.3-.114l.132-.075c.117-.03.933-.087,1.652-.132a22.782,22.782,0,0,0,3.274-.312l.07-.044a3,3,0,0,1,.773-.434,5.692,5.692,0,0,0,1.345-.831,6.576,6.576,0,0,1,.945-.619c.625-.3.927-.464,1.272-.654.243-.135.511-.281.916-.488a3.725,3.725,0,0,0,1.141-.677l.187-.12a4.553,4.553,0,0,1,.866-.469c.411-.186.75-.367,1.109-.561l.32-.18a3.821,3.821,0,0,1,.826-.593c.11-.052.278-.108.467-.172a2.787,2.787,0,0,0,1.243-.615,7.606,7.606,0,0,1,1.45-.774l.1-.047a.751.751,0,0,0,.4-1.015C383.27,637.9,383.259,637.868,383.387,637.7Zm-59.328-15.487a4.627,4.627,0,0,0-.272,1.149c-.064.173-.114.336-.164.5s-.1.326-.178.542a.563.563,0,0,1-.037.085,1.156,1.156,0,0,0-.064.148,4.5,4.5,0,0,1-.919.9c-.181.148-.368.3-.555.441-.39.307-.791.624-1.123.931l-.138.1a2.8,2.8,0,0,1-.641.4,4.178,4.178,0,0,1,.394-2.7c.12-.164.234-.323.347-.478.221-.309.434-.6.654-.877a2.594,2.594,0,0,0,.2-.242,2.263,2.263,0,0,1,.158-.195l.017-.02c.179-.227.339-.452.494-.671a5.826,5.826,0,0,1,1.146-1.3c1.086-1.226,1.491-1.246,1.552-1.242.012,0,.009,0,.009,0C325.017,619.8,324.96,620.577,324.059,622.216Zm16.294-13.223a1.721,1.721,0,0,1-.324.616,29.241,29.241,0,0,0-2.037,2.3,13.737,13.737,0,0,1-1.339,1.178c-.142.113-.282.225-.418.339a11.209,11.209,0,0,0-1.076,1.053l-.44.473a3.03,3.03,0,0,1-1.016.517,10.414,10.414,0,0,1,1.016-2.121c.19-.338.374-.663.531-.969a8.724,8.724,0,0,1,1.144-1.836,14.437,14.437,0,0,0,.955-1.4,4.773,4.773,0,0,1,.662-.961,2.02,2.02,0,0,0,.409-.948c.035-.117.081-.207.414-.316a3.308,3.308,0,0,0,1.03-.854,1.773,1.773,0,0,0,.712-1.051.773.773,0,0,1,.131-.178c.037-.041.072-.084.1-.126.091-.068.186-.137.283-.207a3.79,3.79,0,0,0,.922-.828.39.39,0,0,1,.146-.072.419.419,0,0,0,.126-.056c.218-.058.284-.03.3-.017s.055.053.085.242a5.183,5.183,0,0,1-.164.846,11.326,11.326,0,0,1-1.779,3.614A1.883,1.883,0,0,0,340.353,608.993Zm-53.8,30.358a5.622,5.622,0,0,1,.925-.216l.187-.041c1.027-.224,2.09-.452,3.174-.773a8.975,8.975,0,0,1,2.958-.91h.068c0,.253-.619,1.009-1.826,2.255l-.029.035a4,4,0,0,1-4.262,1.824,1.935,1.935,0,0,1-1.523-1.193A1.1,1.1,0,0,1,286.556,639.351Zm60.924,9.71a1.02,1.02,0,0,1,.56-.832,5.556,5.556,0,0,1,.93.1l.167.021c1.033.129,2.1.268,3.215.323a13.563,13.563,0,0,1,2.634.026,2.5,2.5,0,0,1,.456.113c-.065.243-.844.761-2.305,1.552l-.035.024a3.737,3.737,0,0,1-4.49.324A2.151,2.151,0,0,1,347.479,649.061Zm-16.918-15.169,0,.1-.043-.087Z" transform="translate(-283.222 -601.518)"/></g></g><rect class="b" width="251.678" height="150" transform="translate(198.851 559.519)"/></g></svg>