<svg xmlns="http://www.w3.org/2000/svg" width="250" height="150" viewBox="0 0 250 150"><defs><style>.a{fill:none;}.b{fill:#cfa5a5;}.c{fill:#fff;}.d{fill:#272525;}</style></defs><g transform="translate(-695 -5972)"><rect class="a" width="250" height="150" rx="3" transform="translate(695 5972)"/><g transform="translate(109.663 5695.474)"><g transform="translate(625.337 334.946)"><path class="b" d="M660.313,335.307c15.486-1.6,34.225,1.744,49.852.34,18.758-1.939,38.992-1.284,57.671-.68-.041,1.271-1.659,3.127-.124,3.815,6.164,2.107,6.082,4.652,6,7.195-.041,1.272-4.669-.151-3.155,1.171-4.669-.151-12.476.233-7.844,1.654,1.515,1.323,7.782.252,9.275,2.209s-1.679,3.765-.185,5.722l6.229.2c1.513,1.324-1.68,3.766-.124,3.817,4.628,1.423,10.876.988,17.1,1.19-.041,1.271,1.478,2.593-1.656,3.129-54.519-.491-110.636.239-165.051-3.433-6.205-.835-1.452-3.228,3.278-4.984-1.576.586-1.514-1.322-3.094-.736.062-1.907,3.278-4.985,9.527-5.42l-4.671-.15c-1.537-.686.062-1.907.1-3.178,1.558.05,3.113.1,3.134-.537l.082-2.543-6.226-.2c1.555.049,3.112.1,3.133-.535l.082-2.546c3.134-.533,7.761.89,10.9.353l.062-1.905c-3.094-.738-7.783-.252-10.9-.353,1.58-.586,1.6-1.221,1.642-2.493,4.689-.485,9.3,1.575,14.026-.183l-4.668-.15C647.923,333,655.621,335.792,660.313,335.307Z" transform="translate(-625.337 -334.353)"/></g><g transform="translate(654.218 342.564)"><g transform="translate(0 0.039)"><path class="c" d="M653.379,341.788h5.572a4.978,4.978,0,0,1,3.318,1.025,3.255,3.255,0,0,1,1.211,2.6q0,2.3-2.679,3.091a3.361,3.361,0,0,1,2.176,1.172,3.4,3.4,0,0,1,.817,2.254,3.2,3.2,0,0,1-1.22,2.609,5.088,5.088,0,0,1-3.307.995h-5.888Zm2.776,2.127v3.565h2.5a2.182,2.182,0,0,0,1.468-.463,1.629,1.629,0,0,0,.542-1.309,1.66,1.66,0,0,0-.542-1.319,2.154,2.154,0,0,0-1.468-.473Zm0,9.491h2.8a2.154,2.154,0,0,0,1.487-.5,2,2,0,0,0-.01-2.787,2.16,2.16,0,0,0-1.5-.512h-2.777Z" transform="translate(-653.379 -341.788)"/></g><g transform="translate(17.917)"><path class="c" d="M680.837,355.533l-.886-2.58H674.6l-.887,2.58h-2.933l4.863-13.783h3.289l4.844,13.783Zm-5.513-4.707h3.918l-1.968-5.729Z" transform="translate(-670.776 -341.75)"/></g><g transform="translate(39.004 0.039)"><path class="c" d="M694.027,355.532H691.25V341.788h2.777v6.143l4.962-6.143h3.622l-5.965,6.891,5.965,6.853h-3.6l-4.982-6.1Z" transform="translate(-691.25 -341.788)"/></g><g transform="translate(58.437)"><path class="c" d="M718.054,341.75v2.127H712.9v3.6h4.568v2.126H712.9v3.8h5.159v2.127h-7.935V341.75Z" transform="translate(-710.119 -341.75)"/></g><g transform="translate(75.37 0.039)"><path class="c" d="M729.337,350.058v5.474H726.56V341.788h5.061a5.218,5.218,0,0,1,3.672,1.192,3.848,3.848,0,0,1,1.289,2.943,4.128,4.128,0,0,1-.788,2.421,4.057,4.057,0,0,1-2.48,1.537l3.5,5.651H733.53l-3.289-5.474Zm0-6.143v4.017h2.284a2.181,2.181,0,0,0,1.594-.542,2.227,2.227,0,0,0,0-2.933,2.185,2.185,0,0,0-1.594-.542Z" transform="translate(-726.56 -341.788)"/></g><g transform="translate(93.129 0.039)"><path class="c" d="M751.228,355.532h-2.777v-4.725l-4.647-9.019h3.111l2.933,6.478,2.914-6.478h3.111l-4.646,9.019Z" transform="translate(-743.804 -341.788)"/></g></g><g transform="translate(681.747 383.292)"><g transform="translate(0 0.236)"><path d="M681.526,382.28a.442.442,0,0,0-.294.1.334.334,0,0,0-.115.274.4.4,0,0,0,.107.289.7.7,0,0,0,.277.168c.114.039.241.077.381.112s.279.078.418.129a1.873,1.873,0,0,1,.378.187.833.833,0,0,1,.277.316,1.054,1.054,0,0,1,.107.491,1.1,1.1,0,0,1-.407.855,1.568,1.568,0,0,1-1.071.356,1.679,1.679,0,0,1-1.069-.32,1.084,1.084,0,0,1-.407-.907h1.02a.445.445,0,0,0,.482.471.464.464,0,0,0,.325-.109.366.366,0,0,0,.117-.278.379.379,0,0,0-.106-.275.741.741,0,0,0-.278-.168c-.113-.041-.241-.079-.381-.115a3.684,3.684,0,0,1-.417-.131,2.023,2.023,0,0,1-.378-.188.8.8,0,0,1-.278-.313,1.053,1.053,0,0,1-.106-.485,1.074,1.074,0,0,1,.409-.88,1.61,1.61,0,0,1,1.045-.331,1.7,1.7,0,0,1,1.029.288,1.1,1.1,0,0,1,.409.91h-1.042a.529.529,0,0,0-.138-.328A.4.4,0,0,0,681.526,382.28Z" transform="translate(-680.109 -381.524)"/></g><g transform="translate(5.465 0.291)"><path d="M685.415,385.512v-3.934h.957v3.934Z" transform="translate(-685.415 -381.578)"/></g><g transform="translate(9.018 0.28)"><path d="M691.425,381.567h.959v3.946h-.959l-1.6-2.483v2.483h-.958v-3.946h.958l1.6,2.483Z" transform="translate(-688.865 -381.567)"/></g><g transform="translate(14.902 0.236)"><path d="M695.164,384.979a2.071,2.071,0,0,1,0-2.887,1.979,1.979,0,0,1,1.432-.569,2.022,2.022,0,0,1,1.166.347,1.809,1.809,0,0,1,.712.964H697.33a.753.753,0,0,0-.717-.432,1,1,0,0,0-.777.308,1.34,1.34,0,0,0,0,1.648,1,1,0,0,0,.777.308.751.751,0,0,0,.717-.432h1.143a1.805,1.805,0,0,1-.712.964,2.022,2.022,0,0,1-1.166.348A1.978,1.978,0,0,1,695.164,384.979Z" transform="translate(-694.578 -381.524)"/></g><g transform="translate(21.168 0.28)"><path d="M703.043,381.567v.729H701.62v.846h1.255v.729H701.62v.914h1.423v.728h-2.381v-3.946Z" transform="translate(-700.662 -381.567)"/></g><g transform="translate(29.35 0.135)"><path d="M708.617,385.461v-.712c.1-.09.243-.213.426-.371s.325-.279.425-.367.219-.2.354-.331a2.821,2.821,0,0,0,.3-.339,1.141,1.141,0,0,0,.264-.633q0-.476-.42-.476a.389.389,0,0,0-.319.142.636.636,0,0,0-.117.412h-.925a1.286,1.286,0,0,1,.389-1.017,1.482,1.482,0,0,1,1.023-.345,1.32,1.32,0,0,1,.987.36,1.207,1.207,0,0,1,.352.872,1.335,1.335,0,0,1-.168.679c-.067.111-.125.207-.174.285a1.928,1.928,0,0,1-.24.292c-.112.116-.195.2-.247.252s-.148.142-.288.269-.229.209-.266.247h1.457v.779Z" transform="translate(-708.607 -381.426)"/></g><g transform="translate(34.349 0.163)"><path d="M714.3,381.6a1.872,1.872,0,0,1,1.475,0,1.179,1.179,0,0,1,.489.432,2,2,0,0,1,.264.636,3.87,3.87,0,0,1,0,1.608,2,2,0,0,1-.264.636,1.179,1.179,0,0,1-.489.432,1.872,1.872,0,0,1-1.475,0,1.188,1.188,0,0,1-.49-.432,2.049,2.049,0,0,1-.264-.636,3.914,3.914,0,0,1,0-1.608,2.048,2.048,0,0,1,.264-.636A1.189,1.189,0,0,1,714.3,381.6Zm1.021.81a.66.66,0,0,0-.566,0,.518.518,0,0,0-.185.16.806.806,0,0,0-.1.252,1.761,1.761,0,0,0-.05.3c-.007.1-.011.213-.011.347s0,.25.011.348a1.762,1.762,0,0,0,.05.3.789.789,0,0,0,.1.251.511.511,0,0,0,.185.161.66.66,0,0,0,.566,0,.506.506,0,0,0,.184-.161.762.762,0,0,0,.1-.251,1.856,1.856,0,0,0,.05-.3c.008-.1.011-.213.011-.348s0-.249-.011-.347a1.855,1.855,0,0,0-.05-.3.777.777,0,0,0-.1-.252A.514.514,0,0,0,715.319,382.414Z" transform="translate(-713.461 -381.453)"/></g><g transform="translate(39.662 0.247)"><path d="M719.3,385.514v-3.089h-.679v-.89h1.67v3.979Z" transform="translate(-718.619 -381.535)"/></g><g transform="translate(43.921)"><path d="M722.85,382.417a1.028,1.028,0,0,1,.371-.791,1.519,1.519,0,0,1,1.047-.331,1.5,1.5,0,0,1,1.045.334,1.034,1.034,0,0,1,.367.793.942.942,0,0,1-.521.874,1.043,1.043,0,0,1,.623,1.014,1.146,1.146,0,0,1-.431.938,1.837,1.837,0,0,1-2.161,0,1.148,1.148,0,0,1-.435-.936,1.044,1.044,0,0,1,.622-1.014A.947.947,0,0,1,722.85,382.417Zm1.968,1.837a.553.553,0,0,0-.143-.392.539.539,0,0,0-.409-.151.61.61,0,0,0-.426.146.509.509,0,0,0-.16.4.553.553,0,0,0,.154.406.565.565,0,0,0,.425.157.529.529,0,0,0,.415-.159A.583.583,0,0,0,724.818,384.254Zm-.068-1.7a.464.464,0,0,0-.131-.348.475.475,0,0,0-.345-.129.493.493,0,0,0-.35.129.457.457,0,0,0-.138.35.463.463,0,0,0,.14.353.483.483,0,0,0,.342.132.474.474,0,0,0,.343-.135A.468.468,0,0,0,724.75,382.557Z" transform="translate(-722.755 -381.295)"/></g></g><g transform="translate(669.493 314.526)"><g transform="translate(0 7.373)"><path d="M670.407,322.129l.849-.444,1.822,3.487-.85.444-.755-1.446-1.346.7.755,1.446-.849.444-1.822-3.487.85-.444.729,1.4,1.345-.7Z" transform="translate(-668.211 -321.685)"/></g><g transform="translate(5.991 5.259)"><path d="M675.293,323.544a2.076,2.076,0,0,1-1.106-2.668,1.985,1.985,0,0,1,1.107-1.075,1.965,1.965,0,0,1,1.538-.022,2.084,2.084,0,0,1,1.105,2.67,2.078,2.078,0,0,1-2.644,1.1Zm1.782-1.412a1.341,1.341,0,0,0-.632-1.522,1.083,1.083,0,0,0-1.4.58,1.341,1.341,0,0,0,.632,1.522,1.083,1.083,0,0,0,1.4-.58Z" transform="translate(-674.028 -319.632)"/></g><g transform="translate(11.627 2.498)"><path d="M683.76,316.951l1.152,3.762-.917.28-.65-2.122-.224,2.389-.681.208-1.523-1.855.65,2.123-.917.28-1.151-3.761,1.049-.322,1.878,2.263.283-2.924Z" transform="translate(-679.5 -316.951)"/></g><g transform="translate(18.658 1.319)"><path d="M688.658,315.807l.151.712-1.392.3.176.828,1.228-.262.152.713-1.229.262.19.894,1.392-.3.151.713-2.329.5-.823-3.859Z" transform="translate(-686.327 -315.807)"/></g><g transform="translate(23.79 0.269)"><path d="M695.731,314.787l.482,3.905-.951.117-.272-2.2-.634,2.314-.707.088-1.179-2.091.273,2.2-.952.117-.482-3.9,1.09-.135,1.456,2.553.786-2.83Z" transform="translate(-691.31 -314.787)"/></g><g transform="translate(30.826)"><path d="M701.01,318.459l-.24-.655-1.411.044-.2.668-1.02.031,1.243-3.986,1.165-.036,1.485,3.9Zm-1.433-1.346.929-.029L700,315.7Z" transform="translate(-698.142 -314.526)"/></g><g transform="translate(36.859 0.005)"><path d="M705.584,314.6a2.224,2.224,0,0,1,1.517.624,1.969,1.969,0,0,1-.145,2.835,2.211,2.211,0,0,1-1.574.469L704,318.46l.2-3.929Zm-.59,3.179.425.022a1.125,1.125,0,0,0,.88-.292,1.455,1.455,0,0,0,.093-1.8,1.122,1.122,0,0,0-.846-.38l-.424-.022Z" transform="translate(-704 -314.531)"/></g><g transform="translate(42.669 0.436)"><path d="M712.511,315.256l-.094.722-1.412-.183-.108.84,1.245.161-.095.723-1.244-.162-.118.906,1.412.183-.094.722-2.363-.307.509-3.913Z" transform="translate(-709.641 -314.949)"/></g><g transform="translate(51.012 2.277)"><path d="M718.016,319.787a2.07,2.07,0,0,1,.737-2.79,1.98,1.98,0,0,1,1.53-.184,2.027,2.027,0,0,1,1.038.634,1.807,1.807,0,0,1,.441,1.113l-1.1-.291a.755.755,0,0,0-.584-.6,1,1,0,0,0-.829.1,1.338,1.338,0,0,0-.421,1.593,1,1,0,0,0,.671.5.755.755,0,0,0,.8-.234l1.105.292a1.817,1.817,0,0,1-.934.75,2.027,2.027,0,0,1-1.216.038A1.981,1.981,0,0,1,718.016,319.787Z" transform="translate(-717.741 -316.736)"/></g><g transform="translate(56.178 4.005)"><path d="M725.459,322.636l.016-.7-1.329-.476-.43.549-.96-.344,2.618-3.253,1.1.393-.048,4.174Zm-.839-1.777.875.313.035-1.476Z" transform="translate(-722.758 -318.415)"/></g><g transform="translate(61.832 5.815)"><path d="M729.118,324.15l-.871-.4,1.631-3.58.872.4-.716,1.571,1.9-1.031,1.142.52-2.291,1.117.658,2.463-1.122-.512-.483-2.13Z" transform="translate(-728.247 -320.172)"/></g><g transform="translate(66.976 8.415)"><path d="M737.237,323.85l-.353.638-1.245-.69-.41.741,1.1.608-.353.639-1.1-.609-.443.8,1.245.69-.352.638-2.085-1.155,1.911-3.451Z" transform="translate(-733.242 -322.697)"/></g></g><g transform="translate(699.86 374.448)"><rect class="d" width="12.213" height="1.401"/></g></g></g></svg>