<svg xmlns="http://www.w3.org/2000/svg" width="250" height="150" viewBox="0 0 250 150"><defs><style>.a{fill:none;}.b{fill:#dfdfdf;}.c{fill:#efc5cd;}</style></defs><g transform="translate(-135 -5972)"><rect class="a" width="250" height="150" transform="translate(135 5972)"/><g transform="translate(175 6014.502)"><g transform="translate(15.51 17.045)"><path class="b" d="M785.456,77.186c-.079-.24-.151-.478-.237-.713l-.317-.693a21.286,21.286,0,0,0-.876-2.214,16.059,16.059,0,0,0-1.319-2.148A9.074,9.074,0,0,0,780.231,69a18.514,18.514,0,0,0-3.436-1.57,25.584,25.584,0,0,0-3.4-.85,43.32,43.32,0,0,0-6.411-.612c-2.062-.061-3.963-.028-5.813-.016s-3.643.069-5.357.177c-6.807.272-13.545.3-20.069.46q-5.205.116-10.191.412l-.567-.389a8.092,8.092,0,0,0-2.371.6c-.535.041-1.072.08-1.6.127a7.562,7.562,0,0,0-4.023.4c-1.223-.192-.431-.337-1.13-.512-1.849.135-3.857.169-5.909.135a14.225,14.225,0,0,0-3.383-.28l-.048.159a76.593,76.593,0,0,1-15.579-2.212c-3.373,1.234-7.609.258-11.507.809-2.3.2-4.82.553-7.213.849-1.2.155-2.328.25-3.557.39-1.2.157-2.343.372-3.4.6a10.08,10.08,0,0,0-3.482,1.659,11.581,11.581,0,0,0-2.514,2.585A20.227,20.227,0,0,0,656,81.385c-.028.148-.068.292-.092.44.012.236.033.466.056.7a14.42,14.42,0,0,0,.868,5.108,6.284,6.284,0,0,0,1.354,2.1c.182.2.369.386.555.576,1.271,2.005,3.06,4.16,3.06,5.079,3.671,2.807,8.706,2.8,13.333,2.673l21.1-.592a8.439,8.439,0,0,1,1.881.38l.111-.436,8.256-.23c5.778.59,13.9.34,20.81.352,1.49-.021,2.451-.835,3.941-.858l2.112.449a41.059,41.059,0,0,1,4.482-.065,54.977,54.977,0,0,0,11.105.533c4.21-.1,8.5-.221,11.884-.141a36.129,36.129,0,0,0,7.006-.574,39.2,39.2,0,0,0,7.619-2.15,13.067,13.067,0,0,0,1.8-.77c.312-.147.634-.368.961-.564a8.279,8.279,0,0,0,.966-.67,15.874,15.874,0,0,0,3.482-3.657,18.414,18.414,0,0,0,2.421-4.856,16.355,16.355,0,0,0,.764-5.553A9.341,9.341,0,0,0,785.456,77.186Z" transform="translate(-655.912 -65.024)"/><g transform="translate(68.895 34.279)"><path class="c" d="M708.364,90.768c-.321,0-.651-.007-.955-.016C707.8,90.767,708.112,90.771,708.364,90.768Z" transform="translate(-707.409 -90.752)"/></g><g transform="translate(69.414 33.441)"><path class="b" d="M707.793,90.123c-.059.232,2.642.83.444.854,1.237.015,2.34.041,1.29.464,2.378-.036.165-.642,1.736-.986C709.973,90.857,708.948,90.234,707.793,90.123Z" transform="translate(-707.792 -90.123)"/></g><g transform="translate(75.252 33.667)"><path class="b" d="M715.411,90.506c-1.19.019-2.246-.478-3.255-.016A9.343,9.343,0,0,0,715.411,90.506Z" transform="translate(-712.156 -90.293)"/></g><g transform="translate(74.697 34.833)"><path class="b" d="M712.77,91.793l.628-.138-1.654-.487Z" transform="translate(-711.745 -91.168)"/></g><g transform="translate(79.038 34.804)"><path class="b" d="M718.294,91.146c.45.08.8.185.882.349l-4.194.193,3.782.262C721.05,91.514,719.933,91.322,718.294,91.146Z" transform="translate(-714.982 -91.146)"/></g><g transform="translate(77.474 34.199)"><path class="b" d="M713.817,90.966a23.413,23.413,0,0,0,3.477.187,5.584,5.584,0,0,1-2.222-.461Z" transform="translate(-713.817 -90.692)"/></g><g transform="translate(80.961 34.66)"><path class="c" d="M717.814,91.182a11.988,11.988,0,0,0-1.387-.144Z" transform="translate(-716.427 -91.038)"/></g><g transform="translate(86.267 35.161)"><path class="b" d="M720.466,92.066l.6-.009.161-.642C720.006,91.561,720.5,91.936,720.466,92.066Z" transform="translate(-720.394 -91.414)"/></g><g transform="translate(90.993 36.253)"><path class="b" d="M723.918,92.234c1.748.1.5.377.432.634,1.09.366,3.286-.113,4.194-.191A20.1,20.1,0,0,0,723.918,92.234Z" transform="translate(-723.918 -92.234)"/></g><g transform="translate(93.014 37.578)"><path class="b" d="M729,93.228l-3.567.053C726.14,93.974,727.493,93.315,729,93.228Z" transform="translate(-725.431 -93.228)"/></g><g transform="translate(100.417 36.621)"><path class="b" d="M730.966,92.513l1.984.538c.329-.073.065-.256.727-.4A12.161,12.161,0,0,0,730.966,92.513Z" transform="translate(-730.966 -92.51)"/></g></g><g transform="translate(38.269 60.666)"><g transform="translate(0 0.067)"><path d="M673.764,108.555v1.853h-.941v-4.653h1.713a1.767,1.767,0,0,1,1.243.4,1.305,1.305,0,0,1,.437,1,1.4,1.4,0,0,1-.268.819,1.372,1.372,0,0,1-.839.52l1.187,1.913h-1.114l-1.114-1.853Zm0-2.08v1.36h.773a.735.735,0,0,0,.54-.184.753.753,0,0,0,0-.993.735.735,0,0,0-.54-.184Z" transform="translate(-672.823 -105.756)"/></g><g transform="translate(8.592 0.053)"><path d="M681.958,105.746v.719h-1.747v1.22h1.547v.719h-1.547v1.287h1.747v.719h-2.686v-4.666Z" transform="translate(-679.272 -105.746)"/></g><g transform="translate(16.404)"><path d="M686.742,106.459a.7.7,0,0,0-.457.144.483.483,0,0,0-.176.4.57.57,0,0,0,.129.4.824.824,0,0,0,.344.22,4.534,4.534,0,0,0,.466.137c.169.04.338.089.506.147a2.416,2.416,0,0,1,.468.213.924.924,0,0,1,.342.37,1.233,1.233,0,0,1,.13.589,1.286,1.286,0,0,1-.457.987,1.743,1.743,0,0,1-1.214.413,1.959,1.959,0,0,1-1.223-.357,1.189,1.189,0,0,1-.466-1h1a.613.613,0,0,0,.7.612.728.728,0,0,0,.506-.167.562.562,0,0,0,.188-.442.5.5,0,0,0-.248-.437,1.829,1.829,0,0,0-.6-.24c-.233-.053-.466-.117-.7-.193a1.313,1.313,0,0,1-.6-.4,1.1,1.1,0,0,1-.248-.749,1.246,1.246,0,0,1,.461-1.014,1.8,1.8,0,0,1,1.182-.38,1.89,1.89,0,0,1,1.165.33,1.272,1.272,0,0,1,.48,1h-1.027a.626.626,0,0,0-.2-.422A.645.645,0,0,0,686.742,106.459Z" transform="translate(-685.135 -105.706)"/></g><g transform="translate(24.657 0.067)"><path d="M691.329,106.475v-.719h3.447v.719h-1.26v3.933h-.933v-3.933Z" transform="translate(-691.329 -105.756)"/></g><g transform="translate(32.736 0.053)"><path d="M700.8,110.412l-.3-.873h-1.812l-.3.873h-.993l1.647-4.666h1.112l1.64,4.666Zm-1.865-1.593h1.326l-.666-1.94Z" transform="translate(-697.393 -105.746)"/></g><g transform="translate(42.041 0.067)"><path d="M704.377,108.622v-2.866h.941v2.866a1,1,0,0,0,.243.727.937.937,0,0,0,.7.245.951.951,0,0,0,.7-.245,1,1,0,0,0,.245-.727v-2.866h.934v2.866a1.694,1.694,0,0,1-.553,1.356,1.991,1.991,0,0,1-1.347.477,1.926,1.926,0,0,1-1.327-.473A1.727,1.727,0,0,1,704.377,108.622Z" transform="translate(-704.377 -105.756)"/></g><g transform="translate(51.048 0.067)"><path d="M712.076,108.555v1.853h-.939v-4.653h1.713a1.761,1.761,0,0,1,1.242.4,1.3,1.3,0,0,1,.438,1,1.4,1.4,0,0,1-.268.819,1.375,1.375,0,0,1-.839.52l1.186,1.913H713.5l-1.114-1.853Zm0-2.08v1.36h.774a.738.738,0,0,0,.54-.184.753.753,0,0,0,0-.993.738.738,0,0,0-.54-.184Z" transform="translate(-711.137 -105.756)"/></g><g transform="translate(59.286 0.053)"><path d="M720.727,110.412l-.3-.873h-1.812l-.3.873h-.994l1.647-4.666h1.114l1.64,4.666Zm-1.867-1.593h1.326l-.666-1.94Z" transform="translate(-717.32 -105.746)"/></g><g transform="translate(68.606 0.053)"><path d="M727.361,105.746h.939v4.666h-.939l-2.106-3.226v3.226h-.939v-4.666h.939l2.106,3.226Z" transform="translate(-724.315 -105.746)"/></g><g transform="translate(77.585 0.067)"><path d="M731.054,106.475v-.719H734.5v.719h-1.26v3.933h-.933v-3.933Z" transform="translate(-731.054 -105.756)"/></g></g><g transform="translate(0 3.486)"><path d="M663.819,63.61c.357-.429.714-.929,1.073-1.43a6.66,6.66,0,0,1,3.788-2.717,2.017,2.017,0,0,1,1.431.286,2.876,2.876,0,0,0,2.073.285c.858-.143,1.43,0,1.644.5,0,.285-.143.786-.071.929a1.968,1.968,0,0,1-.358,1.574c-.143.071-.072.215-.072.358-.071,1.643.358.213-.357,1.859-.357.786-.429,1.5-.715,2.144-3.431,8.651.144,4.362,3,.573a5.7,5.7,0,0,1,1.431-2.073c1-1.431,2.216-2.718,3.216-4.218a26.427,26.427,0,0,1,5.72-5.577c.786-.5,1.5-1.287,2.217-1.144a3.6,3.6,0,0,1,1.931.787,4.912,4.912,0,0,1,1.215,1.5c.143.072.213.144.285.144,1,.215,1,1.215,1,2.145a2.99,2.99,0,0,0-.213.572,23.85,23.85,0,0,0-2.145,5.934c-.143,1-.286,2.073-.358,3-.143.93-.215,2-.428,3.075a4.825,4.825,0,0,1-.93,2.787c0,.072-.072.144,0,.286.5.429-.215.93-.429,1.43-.072.215-.214.5-.072.715a2.66,2.66,0,0,1-.5,2.43,2.547,2.547,0,0,0-.072.43c-.214.642-.357,1.215-.5,1.787.072,0,.072-.072.357-.215-.213,1-1.428,1.86-1.071,2.789.5,0,.429.5.286,1.143a25.585,25.585,0,0,1-1.145,4.29c.072.072,0,.143.072.215.357.714-.5,1.716-.286,2.645.072.573-.357,1.287,0,2a2.408,2.408,0,0,1-.787,1.43c-.143.286-.5.5-.785.786-.43,1-.5,1.073-1.431,1.145a6.855,6.855,0,0,0-.858.144c-.5.071-.858.071-1.073-.288-.071-.143-.285-.213-.572-.285-.929-.215-1.216-1.073-.786-2a56.517,56.517,0,0,0,1.358-7.292,17.8,17.8,0,0,0,.5-1.859c.286-.858.5-1.859.93-2.861,0,.286-.144.644-.144,1,.214-.143.214-.143.286-.143a10.189,10.189,0,0,0,.429-1.574c.214-1.287.858-2.646.716-3.861a.215.215,0,0,1,0-.285c.714-.715.071-1.431.643-2.145.213-.215.141-.5.213-.644a3.327,3.327,0,0,1,.644-2.36v-.357l-.072-.072c-.5,1.073-.929,2.145-1.358,3.218h-.215c1.073-6.291,1.359-7.077-3.5-.286-.072-.072-.144-.143-.144-.214a.314.314,0,0,0-.215.072,2.3,2.3,0,0,1-.213.644,3.21,3.21,0,0,1-1.644,1.859.528.528,0,0,0-.358.429,2.249,2.249,0,0,0-.644.858c-.786,2.216-5.433,8.794-6.792,11.009a11.374,11.374,0,0,1-2.43,2.5c0-.429-.072-.715.143-1h-.143c-.286.5-.643.929-1,1.428,0-.071-.072-.071-.144-.143a2.517,2.517,0,0,1-1.931,1.5,5.644,5.644,0,0,1-3.717.216,5.914,5.914,0,0,1-2.217-.787c-.5-.357-.572-.286-.071-1.144a36.89,36.89,0,0,1,2.145-3.288,4.481,4.481,0,0,0,1.144-3.074c1.572-7.937,6.005-18.017.143-8.866a21.976,21.976,0,0,1-2.432,3.5C656.169,86.7,650.521,94,649.663,99.287a5.62,5.62,0,0,1-.5,1.572c-.429.644-.786.715-1.143.43-.215-.072-.286-.072-.357-.144-.358-.858-1.073-1-2-1.143a3.977,3.977,0,0,1-1.359-.645c-.071-.071,0-.428.072-.572a26.233,26.233,0,0,0,2.5-7.077,20.554,20.554,0,0,1,.572-2.717c.216-1.073,2-5.291,2.288-6.363l.859-3.432c.572-2.216,1.071-4.433,1.715-6.648a8.4,8.4,0,0,0,.286-1.43,16.666,16.666,0,0,1,1.287-5.006c.215-.5.286-1.073.572-1.644a14.175,14.175,0,0,1,.572-1.572c.215-.5.5-.715.858-.572.357.357.858.644,1.216,1,.215.285.143.715.215,1.143a31.006,31.006,0,0,1-1,4.29c-1.644,7.936,4.5-1.143,5.363-2.43C662.318,65.4,663.176,64.54,663.819,63.61Zm-3.933,28.527c.072-.143.144-.286.358-.644v-.357a1.616,1.616,0,0,1-.43.5,1.073,1.073,0,0,1-.071.5Zm9.8-13.942a19.814,19.814,0,0,0,1.073-1.787,6.963,6.963,0,0,1,2.073-2.861,2.012,2.012,0,0,0,.429-1.073,24.058,24.058,0,0,0-4.076,6.221A1.679,1.679,0,0,0,669.682,78.2Zm7.007-9.652a.882.882,0,0,1,.285-.572c1.073-1.073,1.431-2.36,2.288-3.576a25.411,25.411,0,0,0-3.645,5.078A1.781,1.781,0,0,0,676.689,68.544Z" transform="translate(-644.271 -54.942)"/></g><g transform="translate(43.581 18.194)"><path d="M681.013,76.124a11.455,11.455,0,0,1-1.358-4.5,5.194,5.194,0,0,1,.786-3.5.708.708,0,0,1,.5-.358,14.023,14.023,0,0,1,2.146-1.43,3.154,3.154,0,0,1,2.288-.357c.572,0,2.144,1.43,2.5,1.715a9.9,9.9,0,0,0,1.358,1.074,5.16,5.16,0,0,1,1.431,2.144,10.023,10.023,0,0,0,.644,1.574,17.867,17.867,0,0,1,.428,2.073,12.421,12.421,0,0,0,.216,1.716c.071.072.071.072.071.215-.215-1.145.072.5,0,.714a13.663,13.663,0,0,1-.071,2.432c-.216.429.213.93.786.93,3.5-.215,4.86.285,8.293-.286.358-.144.715-.357,1.144-.573.143-.071.357-.215.5-.285a.684.684,0,0,1,0,.644c-.216.357.5.5.213.786-2.144,2.288-8.722,2.216-11.3,2.216h-.215c-.214,0-.429.072-.429.216s-.072.215-.143.357a18.243,18.243,0,0,1-1.359,3.575,9.131,9.131,0,0,1-1.359,2.145,4.149,4.149,0,0,1-1,1.215c-.144.072-.286.215-.5.357a.829.829,0,0,0-.429.429,4.188,4.188,0,0,1-2,1.359,1.859,1.859,0,0,0-.714.285,6.787,6.787,0,0,1-2.931.072,3.96,3.96,0,0,1-2.861-2.288c-.215-.573-.429-1.287-.644-1.931a17.967,17.967,0,0,1-.071-3.932,11.386,11.386,0,0,1,1.215-3.932,16.121,16.121,0,0,1,2.646-4.22c.213-.071.213-.213.285-.428A.264.264,0,0,0,681.013,76.124Zm8.508-2.859a22.006,22.006,0,0,0-.5-2.288,3.437,3.437,0,0,0-1-1.716,3.587,3.587,0,0,0-.929-.858,8.391,8.391,0,0,0-1.288-.929c-.857-.715-2.43.786-2.931,1.287-1.931,2.717-.071,6.434,1.716,8.365,2.074,4.076,5.862,2.645,5.006-2.145A2.8,2.8,0,0,0,689.521,73.265Zm-6.363,13.942a6.23,6.23,0,0,0-.071,1.145c-.144.143,0,.213.071.357a1.539,1.539,0,0,0,.786.857c.072,0,.072,0,.144-.071s.215-.143.285-.215a15.71,15.71,0,0,0,2.789-4.575,11.029,11.029,0,0,0,.716-1.716c-1.646-.714-2.43-.071-3.362,1.145A9.887,9.887,0,0,0,683.158,87.206Z" transform="translate(-676.86 -65.906)"/></g><g transform="translate(63.645 19.674)"><path d="M717.208,79.975c-.429.572-.859,1.215-1.287,1.787a13.823,13.823,0,0,0-1.288,2.216c0,.072,0,.216-.071.216a24.329,24.329,0,0,1-1.43,2c-.787.858-1.5,1.644-2.288,2.43a14.18,14.18,0,0,1-2.432,1.788,18.389,18.389,0,0,1-3.645,1.644,31.123,31.123,0,0,0-3.647,0c-1,.215-3.146-.714-4.076-1.073a13.305,13.305,0,0,1-2.787-1.572,6.348,6.348,0,0,1-2.289-4.647,15.6,15.6,0,0,1,0-3.647,11.338,11.338,0,0,1,.43-2.145c.213-.5.356-1,.572-1.5a25.74,25.74,0,0,1,2.072-4.218c.216-.285.358-.572.573-.857a9.5,9.5,0,0,1,1.859-2.217c.858-.714,1.644-1.5,2.574-2.145a2.521,2.521,0,0,1,1.5-.5,2.077,2.077,0,0,0,.644-.144,2.877,2.877,0,0,1,1.644-.357c.071.072.071.072.071,0a3.543,3.543,0,0,1,2.36.715c.072,0,.144.071.214.071a.267.267,0,0,0,.216-.071c.213-.144.357-.215.572-.072a.8.8,0,0,1,.285.786,1.049,1.049,0,0,0,.072.93c.072.072,0,.215.072.285-.144.215-.286.43-.429.644a8.25,8.25,0,0,0,.285,1.287,9.475,9.475,0,0,1,.215,2,5.485,5.485,0,0,1-.071,1.073,19.861,19.861,0,0,1-1.216,3.647,1.237,1.237,0,0,1-.929.857c-.143,0-.286.072-.429.072a.6.6,0,0,1-.429-.144,4.754,4.754,0,0,0-1.287-.785c-.072-.072-.143-.072-.215-.144a.635.635,0,0,1-.286-.715c.072-.357.144-.714.216-1a39.693,39.693,0,0,1,1.358-4.146,1.27,1.27,0,0,1,.071-.429,2.9,2.9,0,0,1-.285.215,14.746,14.746,0,0,1-1.716,2.43,15.272,15.272,0,0,0-1.5,2.574c-.572,1.216-1.143,2.36-1.716,3.575a18.648,18.648,0,0,0-1.287,3.5,5.375,5.375,0,0,0-.213,1.143,2.767,2.767,0,0,0,.213,1.5c.216.429.429.93.643,1.43a6.136,6.136,0,0,0,.572.858c.358.429,2.146-.286,2.646-.357a16.087,16.087,0,0,0,6.291-2.861,45.706,45.706,0,0,0,4-3.431l1.073-1.287c.643-.858,2.646-2.288,3.29-3.218.356-.5,1.5-1.144,1.859-1.644.215-.285,0,1,.357.786A11.21,11.21,0,0,1,717.208,79.975Z" transform="translate(-691.863 -67.015)"/></g><g transform="translate(84.518)"><path d="M722.891,95.008a13.452,13.452,0,0,0,1.215,2,1.355,1.355,0,0,0,1.215.858,3.534,3.534,0,0,0,2.289-.216c.714-.213,3.288-2.288,4.074-2.645.286-.143,3.218-3.288,3.575-3.5a25.865,25.865,0,0,0,2.931-4.218c.715-1.143,1.287-2.43,2-3.575.143-.286.285-.572.429-.93.071-.357.143-.572.215-.858.357,1,1.286.216,1,.93a2.778,2.778,0,0,0-.215.93,13.2,13.2,0,0,1-1.358,2.645,14.32,14.32,0,0,1-1.216,2.861v.143c-.429.858-1.073,1.787-1.5,2.717-.5.572-3.86,4.29-4.431,4.79a3.777,3.777,0,0,1-1.216.714c-1.073.573-3.861,2.861-4.934,3.147a11.936,11.936,0,0,1-2.216.357,4.039,4.039,0,0,1-3.074-1.143c-.357-.43-.787-.93-1.144-1.43-.786-1.359-1.787-2.861-2.5-4.434-.644-.786-.858-1.43-1.5-.5-.143.215-.143.644-.286.858a11.581,11.581,0,0,0-.714,1.287,5.953,5.953,0,0,1-.643,1.358c-.286.286-.5.429-.858.357a1.385,1.385,0,0,0-1.073.358c-1.5.644-2.073.644-3.146-.286a5.443,5.443,0,0,1-2.144-3.932.771.771,0,0,1-.072-.429,13.327,13.327,0,0,0-.072-3.36,28.48,28.48,0,0,1,.072-4.29,16.333,16.333,0,0,0,.213-1.859,27.422,27.422,0,0,1,1.144-5.862c.358-1.144.714-2.36,1.144-3.432.642-2,1.5-4,2.36-6,.5-.859.785-1.788,1.286-2.574a76.939,76.939,0,0,1,4.218-7.578,27.326,27.326,0,0,1,3.29-4.076c.5-.428,1-.929,1.572-1.358a3.077,3.077,0,0,1,1.788-.5c.071,0,.214.215.357.286a6,6,0,0,0,1.931,1.857,13.759,13.759,0,0,1,3.29,3.647,4.206,4.206,0,0,1,.714,2.36v.644a.916.916,0,0,1-.714.644,1.838,1.838,0,0,0-.5-.286c-.143-.213-.43-.357-.573-.572-.714-.572-1.286-.5-2.073.286-.644.572-1.287,1.359-2,2a2.376,2.376,0,0,1-.428.714c-.715,1.143-1.5,2.145-2.217,3.146a1.479,1.479,0,0,1-.214.5,12.363,12.363,0,0,1-1.073,2.217c-.5,1-1.071,2-1.572,3.146-.286.5-.5.93-.786,1.5-.573,1.358-1.287,2.789-1.86,4.218a36.612,36.612,0,0,0-2,5.291c-.072.429-.215.714-.286,1.073a25.337,25.337,0,0,1-.643,2.717c-.285,2.288.358,2.216.858,1.43,1.073-1.644,1.859-3.575,3.074-5.219a33.406,33.406,0,0,1,4.076-4.862,5.613,5.613,0,0,1,4.647-1.359.969.969,0,0,1,.858.644,1.8,1.8,0,0,0,.286.5,4.282,4.282,0,0,1,.786,2.646,16.84,16.84,0,0,1-.786,5.219c-.072.285-.072.429-.143.715A9.946,9.946,0,0,1,726.251,90c-.429.358-.715.786-1.073,1.073a3.861,3.861,0,0,1-1.644,1.287,4.94,4.94,0,0,0-.93.357c-.214,0-.214.286-.429.357A4.354,4.354,0,0,0,722.891,95.008ZM707.8,88.36v1.5A2.615,2.615,0,0,0,707.8,88.36Zm13.013-4.433a9.092,9.092,0,0,1-.858,1.859c-.286.714-.715,1.215-.93,1.859-.786,1.145,1.43.429,1.859,0a13.009,13.009,0,0,0,3.861-5.5c1.145-3.719-.214-3.362-2-1.073A10.582,10.582,0,0,0,720.818,83.927Z" transform="translate(-707.458 -52.326)"/></g><g transform="translate(113.278 17.323)"><path d="M737.573,86.135c-1.215.644-2.789.572-3.575.786a8.829,8.829,0,0,1-2.789-.644c-1.787-1.073-1.859-1.572-2.217-3.932a5.326,5.326,0,0,1,.358-3c.357-1.644,4.218-7.578,4.862-9.08a16.151,16.151,0,0,1,1.286-2.43,1.793,1.793,0,0,1,.931-.858c.5-.215,1-.215,1.358-.572,1.073-.572.285-1.073,1-1.144a1.8,1.8,0,0,1,1.573.787c.286.071.286.429.572.714.215.143.143.429.143.715-.428,1.787-2,5.147-2.43,6.863A15.483,15.483,0,0,0,738,77.269a7.749,7.749,0,0,1-.643,2.073c-.144.572-.5,1.644-.144,1.931.286.357.43,1.574.858,1.43,1.716-.929,4-1,4.934-2.144.573-.787.93-.429,1.5-1.144a4.984,4.984,0,0,0,.858-1.287c.429-.929.5-.644.858-1.43a15.6,15.6,0,0,1,1.644-2.574,5.4,5.4,0,0,1,.93-1.644c.714-.215.643-.143.929-.072,1.073-.071.143,0,.786.357.144.286,0,.573.216.715-.5,1.359-.573,2.789-1.216,4.362-.215.5-.071,0-.5.642a3.308,3.308,0,0,1-.5,1.645c-.286.644-.214,1.428-.643,2-.573,2.43-.858,3.717-.858,4-.215.93,2.288,1.574,4.79.786,1.644-.714,4.575-3.5,5.934-5.718.5-.859.93-1.716,1.716-2.861.714-1.287,1.287.858,1,1.358a4.722,4.722,0,0,0-.429.859c-.572.428-1.215,2.715-1.715,3.146-.144.143-.072.357-.43.5a29.959,29.959,0,0,1-4.218,4.362c-.642.143-.714.357-1.358.642a4.258,4.258,0,0,1-1.287.93,1.829,1.829,0,0,0-.786.5.873.873,0,0,0-.93.215c-1.359.786-7.149,1.073-7.578-1.359-.357-2.216-.714-3.431-.071-5.862v-.286A27.216,27.216,0,0,1,737.573,86.135Z" transform="translate(-728.895 -65.258)"/></g><g transform="translate(135.853 15.361)"><path d="M771.477,81.29c.072,1.787.644,1.143,3.29.714a6.086,6.086,0,0,0,3.431-1.788c.644-.642,1.431.144,1.788.5a7.86,7.86,0,0,1-1.073,1.857,13.949,13.949,0,0,1-6.792,2.074c-1.788.428-1.931,1.358-2.573,2.787l-.286.572a8.6,8.6,0,0,1-1.073,2.146c-.144.141-.286.357-.429.428l-.715.858a4.6,4.6,0,0,1-1.215,1.43l-.5.573-.715.644a1,1,0,0,1-.643,0,3.7,3.7,0,0,0-.716-.429,1.969,1.969,0,0,1-.072-.644c-.143-.644-.357-1.215-1-1.287a3.142,3.142,0,0,1-.715-.644,2.226,2.226,0,0,0-.857-.787,1.891,1.891,0,0,1-.215-2.5,2.812,2.812,0,0,1,1.071-1.287,5.865,5.865,0,0,1,1.431-.858,15.776,15.776,0,0,1,2.574-1,2.758,2.758,0,0,0,1.144-1.574,49.981,49.981,0,0,0,1.286-6.506v-2.43a.922.922,0,0,0-.071-.43c-.072-.357-.43-.5-.643-.213a.5.5,0,0,0-.286.357,16.221,16.221,0,0,0-1.359,2.43c-1.073,2.074-2.073,4.29-3.144,6.291-.787,1.5-1.5,2.861-2.146,4.433-1.073,2.574-3.5,5.148-4.431,7.937a2.635,2.635,0,0,1-.787,1.287c-.357.143-.5.714-.5,1.143a5.1,5.1,0,0,1-.215,1.5,3.14,3.14,0,0,1-.429.715,6.7,6.7,0,0,0-.787,1.215,18.463,18.463,0,0,0-1.43,5.505,15.5,15.5,0,0,1-.286,2.573,1.56,1.56,0,0,1-.857,1.359,1.919,1.919,0,0,0-.858,1.073c-.072.072-.286.357-.357.357-.216,0-.288.5-.43.715h-.071c-1.143.215-1.859-.644-2.288-2a17.24,17.24,0,0,1-.644-4.289,60.436,60.436,0,0,1,.5-10.153c.143-1.359.428-2.789.643-4.076a47.622,47.622,0,0,1,1.358-6.506q1.179-4.719,2.574-9.223c.214-.715.5-1.358.714-2.217.858-2.144,1.574-4.431,2.432-6.648a33.6,33.6,0,0,1,1.43-3.36.779.779,0,0,1,1.073,0l1.716,1.073.071.072a8.8,8.8,0,0,1,1.931,5,9.852,9.852,0,0,1-.213,3.5c-.43,1.716-.931,3.576-1.575,5.363-.428,1.143-.857,2.573-1.286,3.86-1.145,4,1.143,3.5,1.644,2.288.214-.572,1.287-2,1.5-2.715l2.358-4.863a7.932,7.932,0,0,1,1.288-2.288c.5-.572,1-1.287,1.572-1.859a2.55,2.55,0,0,1,1.573-.786H768.4c.644-.143,1.215.429,1.787.93a1.932,1.932,0,0,1,.715,1.358,16.238,16.238,0,0,1,.215,1.716l.286,2.073Zm-8.365,5.648a1.6,1.6,0,0,0-.714,1.572c.071.358.285.644.5.644.143-.143.357-.143.5-.285a2.686,2.686,0,0,0,.929-.859c.786-1.071,1.073-2.216.858-1.787C764.4,86.581,763.756,86.437,763.112,86.938Z" transform="translate(-745.838 -63.702)"/></g></g></g></svg>