<svg xmlns="http://www.w3.org/2000/svg" width="250" height="149" viewBox="0 0 250 149"><defs><style>.a{fill:#dfdfdf;}.b{fill:#efc5cd;}.c{fill:#272525;}.d{fill:none;}</style></defs><g transform="translate(-14.391 -301.573)"><g transform="translate(109.941 315.573)"><path class="a" d="M140.6,340.505a19.13,19.13,0,0,0-1.329-7.319,19.637,19.637,0,0,0-3.791-6.008,4.659,4.659,0,0,0-1-3.781,20.77,20.77,0,0,0-6.069-5.38,9.713,9.713,0,0,0-6.974-1.341,6.834,6.834,0,0,0-2.215-1,4.546,4.546,0,0,0-1.9-.012c-.712.148-1.418.329-2.128.5l-1.5.288c-.078,0-.163,0-.239-.005-1.195-.012-2.416-.044-3.618,0-.606.025-1.181.06-1.8.143a17.223,17.223,0,0,0-2.109.465c.035.009.085.016.136.023-.308.028-.615.06-.917.1a18.177,18.177,0,0,0-4.481,1.181c-3.116,1.589-6.517,3.583-8.028,5.856-.9,1.527-1.764,2.817-2.5,4.1-.032.039-.064.078-.1.117a4.51,4.51,0,0,0-.532.562l-.023.021,0,0A3.549,3.549,0,0,0,89,329.8a5.248,5.248,0,0,1,.513-.767l.163.124c-.157.3-.3.619-.44.93-1.165,1.562-2.05,3.876-2.775,4.382.521.976.87-.576,1.308-1.884-.214.691-.369,1.472-.557,2.255-.134.8-.272,1.608-.4,2.391-.011.09-.025.175-.035.263-.042-.677-.247-1.19.267-1.859-.175-.43-.389-.334-.67.12-.224,1.536-.785,4.44-.182,4.618a4.05,4.05,0,0,1-.364.859l.52.762c-.042.113-.071.226-.1.341a3.443,3.443,0,0,0,.2-.3c.205,1.98.442,4.122,1.387,5.4a3.939,3.939,0,0,0,.5.232c-.117.6-.38-.189-.711-.3.369,1.343.834,2.3,1.428,2.5-.21-.726-.449-1.435-.615-2.163a.794.794,0,0,0,.452.035c.555.6,1.034,1.066,1.029,1.324.216.93.366,1.774.505,2.58l-.005-.005.005.012c.115.666.224,1.308.341,1.928-.058-.012-.117-.026-.171-.042-.4-.863-1.069-2.034-1.205-2.533a14.04,14.04,0,0,0,.224,1.757l.566.331a.563.563,0,0,1,.057.467.363.363,0,0,0-.037.049.421.421,0,0,1-.156.117c.023.03.049.055.074.085a1.15,1.15,0,0,0-.046.21l.193-.041c.166.191.334.38.5.569.058.007.08-.034.1-.074a4.75,4.75,0,0,0,1,3.079c.021,0,.06.012.085.012a11.027,11.027,0,0,0,1.481,2.3,3.583,3.583,0,0,0,1.479.688c.046.039.08.071.129.111a2.19,2.19,0,0,0,1.045.1.848.848,0,0,0,.479-.049,8.835,8.835,0,0,0-1.34-2.642c.072.062.134.133.207.191l-.085-.154-.129-.049a12.429,12.429,0,0,1-1.246-2.331,15.571,15.571,0,0,0,.106-1.584c.051-.93,1.292.072,1.672.239a8.743,8.743,0,0,0-.737-2.9,19.234,19.234,0,0,0,2.6,2.853l-.346.3c.935.65.684,1.32,1.849,1.932l.035.021v-.005c.078-.665-.435-1.092-.825-1.654a18.989,18.989,0,0,0,9.755,4.106l5.557.643a19.382,19.382,0,0,0,2.727.1,11.736,11.736,0,0,1-2.86,1.036,5.752,5.752,0,0,0,.937,2.934c.689.926,2.017,1.711,4.512,1.72a11.1,11.1,0,0,0,2.255-.3,16.013,16.013,0,0,0,3.68-.21c.292-.253.619-.505.97-.758.339-.281.7-.566,1.083-.848.776-.541,1.564-1.172,2.347-1.8.293-.232.573-.47.852-.709.178-.048.353-.1.536-.148.288-.419.774-.937,1.232-1.474l.009-.011c.481-.479.926-.944,1.283-1.35a19.913,19.913,0,0,0,5.889-8.176c.288-.772.523-1.562.762-2.344.212-.786.336-1.592.486-2.386a23.792,23.792,0,0,0,.23-2.4C140.615,341.652,140.594,341.249,140.6,340.505ZM90.726,353.883l.074-.016c.012.092.019.182.027.274C90.8,354.067,90.762,353.971,90.726,353.883Z" transform="translate(-85.82 -315.573)"/><g transform="translate(25.086 49.573)"><path class="b" d="M101.547,344.765c-.431,0-1.1-.157-.887-.447l-.647.292,1.93.279c-.325-.357-.919-.64-.847-1.1l-.829-.164A3.449,3.449,0,0,1,101.547,344.765Z" transform="translate(-100.013 -343.62)"/></g><g transform="translate(25.954 49.238)"><path class="b" d="M101.513,344.127c.369-.331-.15-.534-.824-.7-.748.205,1.05-.065.458.534C101.326,343.986,101.458,344.007,101.513,344.127Z" transform="translate(-100.504 -343.431)"/></g><g transform="translate(26.165 49.693)"><path class="b" d="M101.056,343.768a2.484,2.484,0,0,1-.431-.08c0,.016.007.028,0,.044l.4.078A.521.521,0,0,0,101.056,343.768Z" transform="translate(-100.624 -343.688)"/></g><g transform="translate(21.961 49.475)"><path class="b" d="M98.245,343.565c.021.108.1.224.309.361C98.581,343.825,98.425,343.7,98.245,343.565Z" transform="translate(-98.245 -343.565)"/></g><g transform="translate(21.323 48.212)"><path class="b" d="M97.884,342.85c.505.288.772.5.587.8l-.424-.129c-.111.177.21.392.475.59C98.443,343.7,99.333,343.435,97.884,342.85Z" transform="translate(-97.884 -342.85)"/></g><g transform="translate(23.636 47.77)"><path class="b" d="M99.5,342.6l-.308.083,1.891.979C101,342.879,100.169,343.337,99.5,342.6Z" transform="translate(-99.193 -342.6)"/></g><g transform="translate(2.135 36.071)"><path class="b" d="M87.161,336.326l.072-.164-.205-.18C87.065,336.087,87.1,336.191,87.161,336.326Z" transform="translate(-87.028 -335.981)"/></g><g transform="translate(1.6 33.982)"><path class="b" d="M86.725,334.8a14.87,14.87,0,0,0,.221,1.806,3.915,3.915,0,0,1,.315.283C86.879,335.78,87.425,335.976,86.725,334.8Z" transform="translate(-86.725 -334.799)"/></g><g transform="translate(2.34 35.968)"><path class="b" d="M87.144,336.206a3.984,3.984,0,0,1,.9,1.688,4.707,4.707,0,0,0,1.2,2.1,35.665,35.665,0,0,0-1.965-4.069Z" transform="translate(-87.144 -335.923)"/></g></g><g transform="translate(54.391 371.28)"><g transform="translate(0 5.074)"><path class="c" d="M54.391,389.1v-39.14h9.534V389.1Z" transform="translate(-54.391 -349.962)"/></g><g transform="translate(15.053 12.768)"><path class="c" d="M67.229,381.8q-4.321-4.348-4.321-11.6t4.321-11.57a15.126,15.126,0,0,1,11.179-4.321,16.229,16.229,0,0,1,9.647,2.816,13.393,13.393,0,0,1,5.241,8.058H82.981A4.534,4.534,0,0,0,78.6,362.4a5.109,5.109,0,0,0-4.516,2.147,11.577,11.577,0,0,0,0,11.319,4.909,4.909,0,0,0,4.32,2.146A5.361,5.361,0,0,0,81.2,377.4a5.179,5.179,0,0,0,1.783-2.176H93.3A13.832,13.832,0,0,1,88,383.2a15.726,15.726,0,0,1-9.59,2.955A15.071,15.071,0,0,1,67.229,381.8Z" transform="translate(-62.908 -354.315)"/></g><g transform="translate(48.006 12.768)"><path class="c" d="M86.264,381.748a15.129,15.129,0,0,1-4.712-11.6q0-7.193,4.684-11.513a17.684,17.684,0,0,1,23.166,0q4.656,4.321,4.656,11.513a15.276,15.276,0,0,1-4.627,11.6,16.092,16.092,0,0,1-11.542,4.4A16.376,16.376,0,0,1,86.264,381.748Zm16.2-5.744a8.133,8.133,0,0,0,1.895-5.8,7.885,7.885,0,0,0-1.951-5.771,6.285,6.285,0,0,0-4.627-1.98,6.2,6.2,0,0,0-4.6,1.98A9.549,9.549,0,0,0,93.233,376a6.32,6.32,0,0,0,4.656,2.008A6.062,6.062,0,0,0,102.461,376Z" transform="translate(-81.552 -354.315)"/></g><g transform="translate(86.086 12.768)"><path class="c" d="M112.632,354.651v4.571q2.953-4.9,9.422-4.906a11.293,11.293,0,0,1,8.671,3.569q3.314,3.571,3.316,9.7v18.177h-9.477V368.868a6.428,6.428,0,0,0-1.589-4.656,6.644,6.644,0,0,0-8.754,0,6.42,6.42,0,0,0-1.589,4.656v16.893H103.1V354.651Z" transform="translate(-103.097 -354.315)"/></g><g transform="translate(123.722)"><path class="c" d="M133.925,356.681a5.722,5.722,0,1,1,1.617-3.987A5.374,5.374,0,0,1,133.925,356.681Zm-8.7,34.625V360.195h9.535v31.111Z" transform="translate(-124.391 -347.091)"/></g><g transform="translate(139.612 12.768)"><path class="c" d="M137.7,381.8q-4.321-4.348-4.321-11.6t4.321-11.57a15.126,15.126,0,0,1,11.179-4.321,16.229,16.229,0,0,1,9.647,2.816,13.393,13.393,0,0,1,5.241,8.058H153.454a4.536,4.536,0,0,0-4.376-2.789,5.114,5.114,0,0,0-4.518,2.147,11.577,11.577,0,0,0,0,11.319,4.915,4.915,0,0,0,4.321,2.146,5.361,5.361,0,0,0,2.789-.612,5.18,5.18,0,0,0,1.783-2.176h10.315a13.832,13.832,0,0,1-5.3,7.973,15.726,15.726,0,0,1-9.59,2.955A15.071,15.071,0,0,1,137.7,381.8Z" transform="translate(-133.381 -354.315)"/></g></g><g transform="translate(85.541 429.158)"><g transform="translate(0 0.111)"><path class="c" d="M80.987,379.9v7.924h-1.93v-4.47l-1.84,4.47H75.783l-1.84-4.47v4.47H72.015V379.9h2.211l2.28,5.461,2.268-5.461Z" transform="translate(-72.015 -379.9)"/></g><g transform="translate(15.833 0.09)"><path class="c" d="M85.77,379.888v1.465H82.9v1.706h2.527v1.467H82.9v1.838H85.77v1.469h-4.8v-7.945Z" transform="translate(-80.973 -379.888)"/></g><g transform="translate(27.458 0.09)"><path class="c" d="M92.707,379.888h1.93v7.945h-1.93l-3.227-5v5H87.55v-7.945h1.93l3.227,5Z" transform="translate(-87.55 -379.888)"/></g><g transform="translate(41.238)"><path class="c" d="M98.2,381.359a.9.9,0,0,0-.594.193.679.679,0,0,0-.232.553.8.8,0,0,0,.214.581,1.411,1.411,0,0,0,.56.338c.228.08.484.156.767.226s.562.157.841.26a3.628,3.628,0,0,1,.76.378,1.651,1.651,0,0,1,.56.638,2.127,2.127,0,0,1,.214.986,2.21,2.21,0,0,1-.818,1.721,3.157,3.157,0,0,1-2.156.716,3.381,3.381,0,0,1-2.155-.643,2.185,2.185,0,0,1-.818-1.828H97.4a.9.9,0,0,0,.97.949.921.921,0,0,0,.654-.221.726.726,0,0,0,.239-.559.749.749,0,0,0-.216-.553,1.467,1.467,0,0,0-.559-.338,7.418,7.418,0,0,0-.767-.232,8.267,8.267,0,0,1-.841-.265,4.193,4.193,0,0,1-.762-.378,1.619,1.619,0,0,1-.559-.633,2.08,2.08,0,0,1-.214-.976,2.161,2.161,0,0,1,.824-1.773,3.244,3.244,0,0,1,2.105-.665,3.407,3.407,0,0,1,2.07.58,2.211,2.211,0,0,1,.825,1.835h-2.1a1.055,1.055,0,0,0-.276-.659A.8.8,0,0,0,98.2,381.359Z" transform="translate(-95.347 -379.837)"/></g><g transform="translate(53.098 0.111)"><path class="c" d="M111.628,379.9H113.7l-2.211,7.924h-2.213l-1.387-5.023-1.377,5.023H104.3l-2.246-7.924h2.066l1.377,5.7,1.41-5.7h2.19l1.354,5.61Z" transform="translate(-102.057 -379.9)"/></g><g transform="translate(70.842 0.09)"><path class="c" d="M116.891,379.888v1.465h-2.867v1.706h2.529v1.467h-2.529v1.838h2.867v1.469h-4.8v-7.945Z" transform="translate(-112.096 -379.888)"/></g><g transform="translate(81.72 0.09)"><path class="c" d="M124.029,387.833l-.44-1.333h-2.844l-.44,1.333h-2.054L121,379.888h2.347l2.743,7.945Zm-2.8-2.8H123.1l-.937-2.821Z" transform="translate(-118.251 -379.888)"/></g><g transform="translate(95.682 0.111)"><path class="c" d="M128.078,384.743v3.081H126.15V379.9h3.125a3.04,3.04,0,0,1,2.146.711,2.261,2.261,0,0,1,.767,1.716,2.474,2.474,0,0,1-.417,1.343,2.293,2.293,0,0,1-1.366.926l1.941,3.227h-2.257l-1.783-3.081Zm0-3.374v1.905h1.2a.883.883,0,0,0,.949-.942.967.967,0,0,0-.26-.695.91.91,0,0,0-.689-.269Z" transform="translate(-126.15 -379.9)"/></g></g><rect class="d" width="250" height="149" transform="translate(14.391 301.573)"/></g></svg>