<svg xmlns="http://www.w3.org/2000/svg" width="125.744" height="63.434" viewBox="0 0 125.744 63.434">
  <g id="logowhite" transform="translate(-0.256 -1.811)">
    <path id="Path_22530" data-name="Path 22530" d="M6.112-22.624,11.648-5.6l5.536-17.024H23.04L15.168,0H8.1L.256-22.624ZM24.64-22.88a2.671,2.671,0,0,1,.9-2.064A3.381,3.381,0,0,1,27.9-25.76a3.381,3.381,0,0,1,2.368.816,2.671,2.671,0,0,1,.9,2.064,2.636,2.636,0,0,1-.9,2.032,3.381,3.381,0,0,1-2.368.816,3.381,3.381,0,0,1-2.368-.816A2.636,2.636,0,0,1,24.64-22.88Zm5.984,5.024V0H25.152V-17.856ZM51.36-9.408a7.548,7.548,0,0,1-.16,1.472H38.816a4.139,4.139,0,0,0,1.024,2.9,3.3,3.3,0,0,0,2.368.88,3.236,3.236,0,0,0,2.016-.608A2.839,2.839,0,0,0,45.28-6.336h5.792A7.568,7.568,0,0,1,49.536-2.96,8.187,8.187,0,0,1,46.528-.624a9.524,9.524,0,0,1-4.064.848,9.6,9.6,0,0,1-4.656-1.1,7.888,7.888,0,0,1-3.184-3.184,9.879,9.879,0,0,1-1.152-4.864,9.969,9.969,0,0,1,1.136-4.88,7.785,7.785,0,0,1,3.184-3.168,9.689,9.689,0,0,1,4.672-1.1,9.686,9.686,0,0,1,4.672,1.088,7.686,7.686,0,0,1,3.12,3.056A9.1,9.1,0,0,1,51.36-9.408Zm-5.536-.832a3.29,3.29,0,0,0-.944-2.64,3.475,3.475,0,0,0-2.416-.88,3.583,3.583,0,0,0-2.5.9,3.751,3.751,0,0,0-1.12,2.624Zm34.5-7.616L75.744,0H69.632L66.4-11.968,63.136,0H57.024L52.448-17.856H57.92L60.288-4.992l3.328-12.864H69.44l3.424,12.9,2.368-12.9ZM59.25,22.32V31H53.265V6.255H62.96q4.41,0,6.72,2.188a7.736,7.736,0,0,1,2.31,5.9,8.125,8.125,0,0,1-1.032,4.112A7.159,7.159,0,0,1,67.9,21.287,10.789,10.789,0,0,1,62.96,22.32ZM62.3,17.525q3.6,0,3.6-3.185,0-3.255-3.6-3.255H59.25v6.44ZM80.915,5.1V31H74.93V5.1Zm23.555,6.37V31H98.45V27.465a6.489,6.489,0,0,1-2.5,2.73A7.273,7.273,0,0,1,92.08,31.21a6.76,6.76,0,0,1-5.338-2.24,8.985,8.985,0,0,1-1.977-6.16V11.47h5.95V22.075a4.357,4.357,0,0,0,1.033,3.1,3.629,3.629,0,0,0,2.783,1.1A3.685,3.685,0,0,0,97.4,25.12a4.722,4.722,0,0,0,1.05-3.29V11.47Zm11.235-.245a8.961,8.961,0,0,1,5.933,1.855,8.06,8.06,0,0,1,2.782,4.9h-5.6a3.1,3.1,0,0,0-1.1-1.872,3.348,3.348,0,0,0-2.153-.682,2.353,2.353,0,0,0-1.54.438A1.527,1.527,0,0,0,113.5,17.1a1.458,1.458,0,0,0,.963,1.365,15.348,15.348,0,0,0,3.028.91,30.064,30.064,0,0,1,3.675,1.067,6.063,6.063,0,0,1,2.485,1.767,4.884,4.884,0,0,1,1.05,3.29,5.046,5.046,0,0,1-.91,2.975,5.992,5.992,0,0,1-2.625,2.03,10.258,10.258,0,0,1-4.06.735,10.455,10.455,0,0,1-6.335-1.75,7.384,7.384,0,0,1-2.9-5.005h5.775a2.6,2.6,0,0,0,1.067,1.925,4.019,4.019,0,0,0,2.4.665,2.232,2.232,0,0,0,1.54-.472,1.592,1.592,0,0,0,.525-1.243,1.494,1.494,0,0,0-.963-1.452,17.7,17.7,0,0,0-3.132-.927,25.049,25.049,0,0,1-3.57-.98,5.894,5.894,0,0,1-2.415-1.7,4.729,4.729,0,0,1-1.015-3.2,5.226,5.226,0,0,1,2-4.252A8.693,8.693,0,0,1,115.705,11.225Z" transform="translate(0 34)" fill="#fff"/>
    <path id="Path_1" data-name="Path 1" d="M409.088,306.573" transform="translate(-304.402 -261.35)" fill="#fff"/>
    <g id="Group_5" data-name="Group 5" transform="translate(86.335 1.811)">
      <g id="Group_1" data-name="Group 1" transform="translate(0 19.98)">
        <path id="Path_2" data-name="Path 2" d="M356.549,256.32s5.308-1.189,7.992,1.165a16.833,16.833,0,0,1,2.427,8.2v.074c.122,2.267.024,4.081.024,4.081h-7.244s1.3-6.006-.4-10.223A6.155,6.155,0,0,0,356.549,256.32Z" transform="translate(-349.403 -251.871)" fill="#fff"/>
        <path id="Path_3" data-name="Path 3" d="M330.409,248.836v-7.71s9.25-2.13,15.138,5.332c1.462,1.852,2.206,4.645,2.427,8.2v.074a12.181,12.181,0,0,0-7.624-6.141A18.271,18.271,0,0,0,330.409,248.836Z" transform="translate(-330.409 -240.845)" fill="#fff"/>
      </g>
      <g id="Group_2" data-name="Group 2" transform="translate(22.039 0)">
        <path id="Path_4" data-name="Path 4" d="M421.506,181.278s-5.307,1.189-7.992-1.164a16.834,16.834,0,0,1-2.427-8.2v-.074c-.123-2.268-.025-4.082-.025-4.082h7.244s-1.3,6.006.4,10.223A6.154,6.154,0,0,0,421.506,181.278Z" transform="translate(-411.026 -167.758)" fill="#fff"/>
        <path id="Path_5" data-name="Path 5" d="M428.817,188.585v7.71s-9.25,2.13-15.138-5.332c-1.461-1.852-2.206-4.645-2.427-8.2v-.074a12.18,12.18,0,0,0,7.624,6.141A18.268,18.268,0,0,0,428.817,188.585Z" transform="translate(-411.19 -178.607)" fill="#fff"/>
      </g>
      <g id="Group_3" data-name="Group 3" transform="translate(21.348 20.727)">
        <path id="Path_6" data-name="Path 6" d="M438.44,243.583V251.2s-5.826-1.837-10.006-.82c-.306.074-.6.685-.878.783-1.41.5-1.912,1.875-2.635,3.236,0,0-1.189-5.307,1.164-7.992a16.758,16.758,0,0,1,8.2-2.77h.074c.331-.024.638-.037.944-.049a1.8,1.8,0,0,1,.257-.012Z" transform="translate(-420.213 -243.577)" fill="#fff"/>
        <path id="Path_7" data-name="Path 7" d="M423.6,243.577l-.012.012a13.744,13.744,0,0,0-6.852,7.318c-.086.233-.159.466-.233.7-.735,2.525-.772,5.087-.135,9.193h-7.71s-.012-.061-.025-.2a19.875,19.875,0,0,1,1.152-9.4l.074-.184a11.515,11.515,0,0,1,.8-1.544,10.9,10.9,0,0,1,1.128-1.569,11.137,11.137,0,0,1,2.3-2.01,14.135,14.135,0,0,1,2.268-1.214c.024-.012.049-.012.074-.024A20.444,20.444,0,0,1,423.6,243.577Z" transform="translate(-408.499 -243.577)" fill="#fff"/>
      </g>
      <g id="Group_4" data-name="Group 4" transform="translate(0.09 0)">
        <path id="Path_8" data-name="Path 8" d="M330.738,201.98v-7.618s5.826,1.837,10.006.82c.306-.074.6-.685.879-.783,1.409-.5,1.912-1.875,2.635-3.236,0,0,1.189,5.307-1.165,7.992a16.757,16.757,0,0,1-8.2,2.77h-.074c-.331.024-.637.037-.944.049a1.806,1.806,0,0,1-.258.012Z" transform="translate(-330.738 -184.765)" fill="#fff"/>
        <path id="Path_9" data-name="Path 9" d="M342.172,184.98l.012-.012a13.746,13.746,0,0,0,6.852-7.318c.086-.233.159-.466.233-.7.735-2.525.772-5.087.135-9.193h7.71s.012.061.025.2a19.871,19.871,0,0,1-1.152,9.4l-.074.184a11.512,11.512,0,0,1-.8,1.544,10.922,10.922,0,0,1-1.128,1.569,11.139,11.139,0,0,1-2.3,2.01,14.135,14.135,0,0,1-2.267,1.214c-.025.012-.049.012-.074.024A20.446,20.446,0,0,1,342.172,184.98Z" transform="translate(-339.046 -167.758)" fill="#fff"/>
      </g>
    </g>
  </g>
</svg>
