<svg xmlns="http://www.w3.org/2000/svg" width="276.032" height="270" viewBox="0 0 276.032 270"><defs><style>.a{opacity:0.07;}</style></defs><g class="a" transform="translate(-19.757 -12.081)"><path d="M106,269.143a24.983,24.983,0,0,1-15.215-11.682L61.543,206.818,54.309,211a25.048,25.048,0,0,1-34.235-9.174L3.367,172.886a25.047,25.047,0,0,1,9.172-34.235L65.633,108a174.854,174.854,0,0,0,69.54-74.17l.3-.6a25.063,25.063,0,0,1,45.4-20.7L247.7,128.28a25.09,25.09,0,0,1-9.171,34.233h0a25.091,25.091,0,0,1-31.443-5.265l-.678-.044a174.879,174.879,0,0,0-71.181,10.164l2.838,4.917a25.045,25.045,0,0,1-9.173,34.234l-7.234,4.177,12.53,21.7A25.059,25.059,0,0,1,106,269.143ZM76.01,198.465l29.239,50.641a8.354,8.354,0,0,0,14.469-8.353L90.48,190.111ZM20.894,153.12a8.35,8.35,0,0,0-3.059,11.411l16.707,28.938a8.353,8.353,0,0,0,11.413,3.058L96.6,167.289,71.534,123.881Zm84.056,28.638,8.353,14.469,7.235-4.177a8.348,8.348,0,0,0,3.057-11.411l-3.9-6.759C112.652,177.239,108.025,179.981,104.95,181.758Zm-19.2-66.666,25.564,44.279a191.265,191.265,0,0,1,85.354-19.236L145.088,50.791A191.309,191.309,0,0,1,85.752,115.092Zm69.239-97.27a8.349,8.349,0,0,0-3.058,11.411l66.83,115.753a8.354,8.354,0,1,0,14.469-8.355L166.4,20.879a8.347,8.347,0,0,0-11.411-3.057ZM45.731,174.538a8.354,8.354,0,0,1-2.015-15.3l14.468-8.354a8.354,8.354,0,0,1,8.354,14.469L52.069,173.7a8.333,8.333,0,0,1-6.338.835Zm219.783-71.45-16.138-4.324A8.354,8.354,0,1,1,253.7,82.626l16.138,4.324a8.353,8.353,0,1,1-4.324,16.138ZM241.885,62.164a8.354,8.354,0,0,1-2.015-15.3l20.463-11.815a8.354,8.354,0,1,1,8.354,14.469L248.224,61.329a8.326,8.326,0,0,1-6.338.835ZM213.934,37.378a8.354,8.354,0,0,1-5.908-10.232l4.324-16.138a8.354,8.354,0,0,1,16.139,4.324l-4.325,16.139a8.343,8.343,0,0,1-10.23,5.907Z" transform="translate(19.757 12.08)"/></g></svg>